<?xml version="1.0" encoding="UTF-8" standalone="no"?>
<!-- Created with Inkscape (http://www.inkscape.org/) -->

<svg
   xmlns:dc="http://purl.org/dc/elements/1.1/"
   xmlns:cc="http://creativecommons.org/ns#"
   xmlns:rdf="http://www.w3.org/1999/02/22-rdf-syntax-ns#"
   xmlns:svg="http://www.w3.org/2000/svg"
   xmlns="http://www.w3.org/2000/svg"
   xmlns:sodipodi="http://sodipodi.sourceforge.net/DTD/sodipodi-0.dtd"
   xmlns:inkscape="http://www.inkscape.org/namespaces/inkscape"
   id="svg3020"
   version="1.1"
   inkscape:version="0.48.3.1 r9886"
   viewBox="0 0 141.8125 95.375"
   width="100%"
   height="100%"
   x="0px"
   y="0px"
   xml:space="preserve"
   sodipodi:docname="d1a5447cbf.eps"><metadata
     id="metadata3026"><rdf:RDF><cc:Work
         rdf:about=""><dc:format>image/svg+xml</dc:format><dc:type
           rdf:resource="http://purl.org/dc/dcmitype/StillImage" /><dc:title></dc:title></cc:Work></rdf:RDF></metadata><defs
     id="defs3024"><clipPath
       clipPathUnits="userSpaceOnUse"
       id="clipPath3036"><path
         d="m 0,0 1134.5,0 0,763 L 0,763 0,0 z"
         id="path3038"
         inkscape:connector-curvature="0" /></clipPath><clipPath
       clipPathUnits="userSpaceOnUse"
       id="clipPath3046"><path
         d="m 848.367,553.453 c -6.89,-1.015 -12.5,-7.426 -12.5,-14.371 l 0,-30.781 c 0,-6.895 5.61,-11.668 12.5,-10.645 l 52.031,7.746 0,0 29.805,4.434 0,31.102 0,24.722 -81.836,-12.207 z"
         id="path3048"
         inkscape:connector-curvature="0" /></clipPath><linearGradient
       x1="0"
       y1="0"
       x2="1"
       y2="0"
       gradientUnits="userSpaceOnUse"
       gradientTransform="matrix(26.873,4.15721,4.15721,-26.873,66.4414,49.6856)"
       spreadMethod="pad"
       id="linearGradient3050"><stop
         style="stop-opacity:1;stop-color:#ed1c24"
         offset="0"
         id="stop3052" /><stop
         style="stop-opacity:1;stop-color:#961a1f"
         offset="1"
         id="stop3054" /></linearGradient><clipPath
       clipPathUnits="userSpaceOnUse"
       id="clipPath3062"><path
         d="m 855.598,467.23 c -27.7,-4.113 -50.215,15.059 -50.215,42.747 l 0,18.414 c 0,27.644 22.515,53.547 50.215,57.66 l 48.496,7.187 26.109,3.895 0,29.32 c 0,6.875 -5.601,11.668 -12.437,10.652 l -255.547,-37.98 0,-198.168 267.984,39.781 0,37.602 -74.605,-11.11 z"
         id="path3064"
         inkscape:connector-curvature="0" /></clipPath><linearGradient
       x1="0"
       y1="0"
       x2="1"
       y2="0"
       gradientUnits="userSpaceOnUse"
       gradientTransform="matrix(26.8726,4.15715,4.15715,-26.8726,66.4014,49.9483)"
       spreadMethod="pad"
       id="linearGradient3066"><stop
         style="stop-opacity:1;stop-color:#ed1c24"
         offset="0"
         id="stop3068" /><stop
         style="stop-opacity:1;stop-color:#961a1f"
         offset="1"
         id="stop3070" /></linearGradient><clipPath
       clipPathUnits="userSpaceOnUse"
       id="clipPath3078"><path
         d="m 835.867,694.023 0,-37.582 74.613,11.082 c 27.704,4.141 50.196,-15.058 50.196,-42.746 l 0,-110.429 143.144,21.281 0,198.195 -267.953,-39.801 z"
         id="path3080"
         inkscape:connector-curvature="0" /></clipPath><linearGradient
       x1="0"
       y1="0"
       x2="1"
       y2="0"
       gradientUnits="userSpaceOnUse"
       gradientTransform="matrix(26.8722,4.45395,4.45395,-26.8722,84.7666,59.4576)"
       spreadMethod="pad"
       id="linearGradient3082"><stop
         style="stop-opacity:1;stop-color:#f68712"
         offset="0"
         id="stop3084" /><stop
         style="stop-opacity:1;stop-color:#ed1c24"
         offset="1"
         id="stop3086" /></linearGradient><clipPath
       clipPathUnits="userSpaceOnUse"
       id="clipPath3094"><path
         d="M 0,0 0,763 1135,763 1135,0 0,0 z"
         id="path3096"
         inkscape:connector-curvature="0" /></clipPath></defs><sodipodi:namedview
     pagecolor="#ffffff"
     bordercolor="#666666"
     borderopacity="1"
     objecttolerance="10"
     gridtolerance="10"
     guidetolerance="10"
     inkscape:pageopacity="0"
     inkscape:pageshadow="2"
     inkscape:window-width="1855"
     inkscape:window-height="1056"
     id="namedview3022"
     showgrid="false"
     fit-margin-top="0"
     fit-margin-left="0"
     fit-margin-right="0"
     fit-margin-bottom="0"
     inkscape:zoom="9.5270537"
     inkscape:cx="70.90625"
     inkscape:cy="47.706251"
     inkscape:window-x="65"
     inkscape:window-y="24"
     inkscape:window-maximized="1"
     inkscape:current-layer="g3028" /><g
     id="g3028"
     inkscape:groupmode="layer"
     inkscape:label="ink_ext_XXXXXX"
     transform="matrix(1.25,0,0,-1.25,0,95.375)"><g
       id="g3030"
       transform="scale(0.1,0.1)"><g
         id="g3032"><g
           id="g3034"
           clip-path="url(#clipPath3036)"><path
             d="m 1120.79,753.672 c -8.73,7.535 -20.29,10.89 -31.7,9.215 L 839.102,725.98 c -19.446,-2.878 -33.848,-19.562 -33.848,-39.187 l 0,-35.301 -140.02,-20.676 c -19.453,-2.871 -33.839,-19.531 -33.839,-39.191 l 0,-180.508 c 0,-11.492 5.011,-22.461 13.71,-29.988 8.735,-7.559 20.317,-10.856 31.692,-9.215 l 250.019,36.91 c 19.446,2.875 33.836,19.531 33.836,39.188 l 0,35.293 139.998,20.683 c 19.44,2.848 33.85,19.532 33.85,39.219 l 0,180.461 c 0,11.52 -5,22.48 -13.71,30.004"
             style="fill:#ffffff;fill-opacity:1;fill-rule:nonzero;stroke:none"
             id="path3040"
             inkscape:connector-curvature="0" /></g></g><g
         id="g3042"><g
           id="g3044"
           clip-path="url(#clipPath3046)"><path
             d="m 848.367,553.453 c -6.89,-1.015 -12.5,-7.426 -12.5,-14.371 l 0,-30.781 c 0,-6.895 5.61,-11.668 12.5,-10.645 l 52.031,7.746 0,0 29.805,4.434 0,55.824 -81.836,-12.207"
             style="fill:url(#linearGradient3050);fill-opacity:1;fill-rule:nonzero;stroke:none"
             id="path3056"
             inkscape:connector-curvature="0" /></g></g><g
         id="g3058"><g
           id="g3060"
           clip-path="url(#clipPath3062)"><path
             d="m 855.598,467.23 c -27.7,-4.113 -50.215,15.059 -50.215,42.747 l 0,18.414 c 0,27.644 22.515,53.547 50.215,57.66 l 48.496,7.187 26.109,3.895 0,29.32 c 0,6.875 -5.601,11.668 -12.437,10.652 l -255.547,-37.98 0,-198.168 267.984,39.781 0,37.602 -74.605,-11.11"
             style="fill:url(#linearGradient3066);fill-opacity:1;fill-rule:nonzero;stroke:none"
             id="path3072"
             inkscape:connector-curvature="0" /></g></g><g
         id="g3074"><g
           id="g3076"
           clip-path="url(#clipPath3078)"><path
             d="m 835.867,694.023 0,-37.582 74.613,11.082 c 27.704,4.141 50.196,-15.058 50.196,-42.746 l 0,-110.429 143.144,21.281 0,198.195 -267.953,-39.801"
             style="fill:url(#linearGradient3082);fill-opacity:1;fill-rule:nonzero;stroke:none"
             id="path3088"
             inkscape:connector-curvature="0" /></g></g><g
         id="g3090"><g
           id="g3092"
           clip-path="url(#clipPath3094)"><path
             d="m 154.34,208.82 c 0,-11.601 -6.254,-14.679 -17.856,-14.679 -11.613,0 -17.855,3.078 -17.855,14.679 0,11.629 6.242,14.696 17.855,14.696 11.602,0 17.856,-3.067 17.856,-14.696"
             style="fill:#e31b22;fill-opacity:1;fill-rule:nonzero;stroke:none"
             id="path3098"
             inkscape:connector-curvature="0" /><path
             d="m 67.3086,200.723 c -5.6484,0.246 -10.5938,0.488 -15.7774,0.488 -26.1015,0 -30.8242,-2.832 -30.8242,-18.602 0,-12.921 3.2852,-18.351 11.7696,-18.351 9.1796,0 22.9101,0.234 34.832,2.773 l 0,33.692 z m 16.4531,-50.118 c 0,0 -43.2109,-3.066 -54.5703,-3.066 C 9.43359,147.539 0,158.145 0,180.02 c 0,16.945 5.65625,28.007 17.1758,32.453 9.2109,3.543 25.9062,5.449 50.1328,5.664 0,7.058 -0.4883,16.472 -2.3711,21.179 -1.4023,3.996 -6.8125,6.582 -13.1758,6.582 -9.1797,0 -25.1562,-3.308 -35.9726,-6.113 -0.9493,-0.215 -1.9024,-0.469 -2.8477,-0.469 -1.8828,0 -3.05859,1.387 -3.05859,4.465 l 0,8.731 c 0,4.207 0.71879,5.605 3.30079,6.082 10.3516,2.109 27.2852,4.707 37.6328,4.707 9.4258,0 23.5352,-1.649 30.125,-9.871 5.6524,-7.043 8.0195,-12.942 8.0195,-36.946 l 0,-59.05 c 0,-5.403 -1.1914,-6.829 -5.1992,-6.829"
             style="fill:#e31b22;fill-opacity:1;fill-rule:nonzero;stroke:none"
             id="path3100"
             inkscape:connector-curvature="0" /><path
             d="m 258.207,233.867 c -1.629,7.071 -5.773,12.16 -12.598,12.16 -10.097,0 -28.261,-0.929 -35.789,-2.558 l 0,-73.977 c 9.188,-1.484 17.153,-2.605 26.082,-2.605 5.629,0 8.703,0.711 11.965,2.105 8.711,3.75 12.695,14.336 12.695,37.121 0,8.946 -1.183,22.09 -2.355,27.754 z m 18.102,-63.23 c -7.067,-13.645 -21.86,-20.91 -41.11,-20.91 -7.761,0 -15.293,1.015 -25.379,1.855 l 0,-40.762 c 0,-5.39 -1.175,-6.828 -5.164,-6.828 l -8.242,0 c -7.273,0 -8.223,0.461 -8.223,6.828 l 0,142.071 c 0,5.625 2.575,6.601 6.852,6.894 4.281,0.285 42.297,3.242 53.527,2.969 9.184,-0.195 16.918,-2.117 23.016,-9.629 8.016,-9.395 10.816,-21.406 10.816,-46.27 0,-19.98 -1.632,-27.734 -6.093,-36.218"
             style="fill:#e31b22;fill-opacity:1;fill-rule:nonzero;stroke:none"
             id="path3102"
             inkscape:connector-curvature="0" /><path
             d="m 372.113,243.496 c -8.601,0.723 -14.461,1.289 -19.297,1.524 -6.375,0.312 -10.754,-2.024 -13.558,-4.786 -4.488,-4.394 -3.985,-18.046 -3.985,-18.046 l 0,-64.805 c 0,-5.43 -1.171,-6.817 -5.168,-6.817 l -8.929,0 c -7.266,0 -8.227,0.45 -8.227,6.817 l 0,64.746 c 0,31.68 22.168,37.754 27.078,39.16 4.969,1.406 14.762,2.656 29.743,1.301 3.968,-0.402 5.843,-2.863 5.843,-5.664 l 0,-4.934 c -0.144,-4.461 0,-8.828 -3.5,-8.496"
             style="fill:#e31b22;fill-opacity:1;fill-rule:nonzero;stroke:none"
             id="path3104"
             inkscape:connector-curvature="0" /><path
             d="m 438.953,245.488 c -19.754,0 -23.742,-5.215 -23.742,-26.336 l 0,-4.699 44.867,0 c 0.231,4.238 0.231,6.582 0.231,10.567 0,15.976 -4.434,20.468 -21.356,20.468 z m 36.414,-47.48 -60.156,0 c 0,-12.696 0,-25.84 7.758,-29.832 3.765,-1.887 10.804,-3.281 17.136,-3.281 17.875,0 32.887,5.398 36.637,5.398 1.672,0 1.918,-1.648 2.375,-7.051 0.238,-1.648 0.238,-3.543 0.238,-5.644 0,-4.473 -0.238,-5.879 -4.941,-6.817 -11.266,-2.129 -24.437,-3.281 -34.547,-3.281 -16.207,0 -29.578,4.219 -36.152,11.523 -7.531,7.989 -10.348,21.602 -10.348,45.567 0,22.09 1.637,33.34 7.043,42.734 6.11,10.832 19.055,15.977 38.543,15.977 18.305,0 29.817,-4.903 35.711,-15.723 6.328,-11.258 6.328,-26.094 6.328,-38.769 0,-9.141 -0.23,-10.801 -5.625,-10.801"
             style="fill:#e31b22;fill-opacity:1;fill-rule:nonzero;stroke:none"
             id="path3106"
             inkscape:connector-curvature="0" /><path
             d="m 547.699,148.203 c -15.031,0 -25.574,0.695 -32.879,1.633 -2.828,0.496 -3.035,1.18 -3.035,7.312 0,4.2 0,2.551 0.207,8.438 0,2.59 0.488,3.059 2.363,3.059 1.907,0 15.993,-2.833 36.411,-2.833 13.406,0 15.972,2.364 15.972,12.938 0,5.402 -0.461,8.906 -1.879,10.566 -2.336,2.344 -6.082,3.528 -25.597,9.395 -12.242,3.516 -20.446,7.297 -23.957,10.801 -3.746,3.789 -6.117,10.351 -6.117,20.234 0,10.789 2.597,19.024 7.074,24.199 6.082,6.789 14.539,8.438 41.789,8.438 5.633,0 11.519,0 17.144,-0.469 6.825,-0.469 7.766,-1.18 7.766,-7.969 0,-1.648 0,-0.254 -0.234,-7.304 -0.254,-3.047 -0.942,-3.985 -4.211,-3.985 -5.196,0 -14.832,2.102 -30.817,2.102 -16.191,0 -17.617,-1.164 -17.617,-13.156 0,-3.047 0,-4.485 0.488,-6.122 0.938,-3.496 3.524,-4.699 21.828,-10.539 L 567.68,210 c 15.511,-4.941 19.754,-10.574 19.754,-28.672 0,-26.766 -7.754,-33.125 -39.735,-33.125"
             style="fill:#e31b22;fill-opacity:1;fill-rule:nonzero;stroke:none"
             id="path3108"
             inkscape:connector-curvature="0" /><path
             d="m 655.09,148.203 c -15.039,0 -25.625,0.695 -32.91,1.633 -2.832,0.496 -3.039,1.18 -3.039,7.312 0,4.2 0,2.551 0.207,8.438 0,2.59 0.488,3.059 2.382,3.059 1.891,0 15.973,-2.833 36.407,-2.833 13.394,0 15.972,2.364 15.972,12.938 0,5.402 -0.449,8.906 -1.875,10.566 -2.363,2.344 -6.113,3.528 -25.601,9.395 -12.231,3.516 -20.449,7.297 -23.965,10.801 -3.773,3.789 -6.113,10.351 -6.113,20.234 0,10.789 2.586,19.024 7.066,24.199 6.086,6.789 14.57,8.438 41.801,8.438 5.625,0 11.519,0 17.156,-0.469 6.824,-0.469 7.766,-1.18 7.766,-7.969 0,-1.648 0,-0.254 -0.254,-7.304 -0.219,-3.047 -0.942,-3.985 -4.211,-3.985 -5.188,0 -14.832,2.102 -30.789,2.102 -16.223,0 -17.641,-1.164 -17.641,-13.156 0,-3.047 0,-4.485 0.5,-6.122 0.918,-3.496 3.528,-4.699 21.836,-10.539 L 675.066,210 c 15.493,-4.941 19.731,-10.574 19.731,-28.672 0,-26.766 -7.777,-33.125 -39.707,-33.125"
             style="fill:#e31b22;fill-opacity:1;fill-rule:nonzero;stroke:none"
             id="path3110"
             inkscape:connector-curvature="0" /><path
             d="m 768.562,245.488 c -19.746,0 -23.718,-5.215 -23.718,-26.336 l 0,-4.699 44.844,0 c 0.246,4.238 0.246,6.582 0.246,10.567 0,15.976 -4.454,20.468 -21.372,20.468 z m 36.426,-47.48 -60.144,0 c 0,-12.696 0,-25.84 7.722,-29.832 3.782,-1.887 10.84,-3.281 17.153,-3.281 17.871,0 32.886,5.398 36.66,5.398 1.648,0 1.883,-1.648 2.359,-7.051 0.215,-1.648 0.215,-3.543 0.215,-5.644 0,-4.473 -0.215,-5.879 -4.922,-6.817 -11.265,-2.129 -24.441,-3.281 -34.527,-3.281 -16.203,0 -29.602,4.219 -36.176,11.523 -7.547,7.989 -10.348,21.602 -10.348,45.567 0,22.09 1.622,33.34 7.047,42.734 6.106,10.832 19.028,15.977 38.535,15.977 18.325,0 29.829,-4.903 35.684,-15.723 6.359,-11.258 6.359,-26.094 6.359,-38.769 0,-9.141 -0.222,-10.801 -5.617,-10.801"
             style="fill:#e31b22;fill-opacity:1;fill-rule:nonzero;stroke:none"
             id="path3112"
             inkscape:connector-curvature="0" /><path
             d="m 925.027,150.566 -8.218,0 c -7.278,0 -8.223,0.45 -8.223,6.817 l 0,62.305 c 0,12.003 -0.449,19.257 -2.348,21.66 -1.66,2.09 -3.191,4.582 -10.586,4.582 -12.429,0 -18.964,-0.969 -32.886,-3.028 l 0,-85.519 c 0,-5.43 -1.172,-6.817 -5.168,-6.817 l -8.196,0 c -7.3,0 -8.25,0.45 -8.25,6.817 l 0,95.215 c 0,5.644 0.813,6.504 6.289,6.855 5.489,0.371 34.676,2.199 51.621,3.176 24.876,0.828 31.141,-16.145 31.141,-30.246 l 0,-75 c 0,-5.43 -1.172,-6.817 -5.176,-6.817"
             style="fill:#e31b22;fill-opacity:1;fill-rule:nonzero;stroke:none"
             id="path3114"
             inkscape:connector-curvature="0" /><path
             d="m 333.977,60.5469 c -4.106,1.1328 -8.508,1.8359 -11.688,1.8359 -2.348,0 -3.684,-0.293 -5.019,-1.1133 -3.379,-2.0507 -5.012,-8.2031 -5.012,-18.9531 0,-5.6445 0.711,-9.3281 2.25,-11.5742 1.328,-1.9531 4.203,-3.3867 6.859,-3.3867 3.688,0 8.61,2.1562 12.61,5.7304 l 0,27.461 z m 7.168,-39.336 -3.688,0 c -3.082,0 -3.48,0.1953 -3.48,2.9688 l 0,0.3047 c -5.747,-3.2735 -10.25,-4.7188 -14.653,-4.7188 -10.754,0 -16.597,8.418 -16.597,23.6719 0,17.9297 6.554,26.7266 19.875,26.7266 3.89,0 8.605,-0.711 11.375,-1.2266 l 0,17.9297 c 0,2.4687 0.503,2.7812 2.656,2.7812 l 4.512,0 c 1.636,0 2.253,-1.2382 2.253,-2.7812 l 0,-62.6875 c 0,-2.3633 -0.515,-2.9688 -2.253,-2.9688"
             style="fill:#e31b22;fill-opacity:1;fill-rule:nonzero;stroke:none"
             id="path3116"
             inkscape:connector-curvature="0" /><path
             d="m 365.625,21.2109 -4,0 c -3.07,0 -3.48,0.1953 -3.48,2.9688 l 0,41.8945 c 0,2.461 0.515,2.7735 2.66,2.7735 l 4.82,0 c 1.637,0 2.25,-1.2383 2.25,-2.7735 l 0,-41.8945 c 0,-2.3633 -0.512,-2.9688 -2.25,-2.9688 z m 0,55.4297 -4,0 c -3.07,0 -3.48,0.1953 -3.48,2.9492 l 0,3.6914 c 0,2.461 0.515,2.7657 2.66,2.7657 l 4.82,0 c 1.637,0 2.25,-1.2305 2.25,-2.7657 l 0,-3.6914 c 0,-2.3437 -0.512,-2.9492 -2.25,-2.9492"
             style="fill:#e31b22;fill-opacity:1;fill-rule:nonzero;stroke:none"
             id="path3118"
             inkscape:connector-curvature="0" /><path
             d="m 411.824,62.2852 c -3.285,0.2148 -5.633,0.3125 -9.836,0.3125 -5.328,0 -7.578,-1.0352 -9.015,-4.1993 -1.328,-2.8789 -2.149,-8.1054 -2.149,-13.6328 0,-2.3554 0.207,-5.6328 0.617,-8.6133 0.821,-6.5429 2.762,-8.5937 8.094,-8.5937 3.485,0 8.195,0.918 12.289,2.3633 l 0,32.3633 z M 419.402,7.07031 C 416.43,2.46094 410.488,0 402.195,0 c -6.453,0 -14.55,0.917969 -18.539,2.05078 -1.437,0.41016 -1.746,0.82031 -1.746,2.46094 0,1.23047 0.102,2.55859 0.309,3.77734 0.304,1.64453 0.41,2.47264 1.234,2.47264 0.82,0 9.012,-2.77342 19.457,-2.77342 6.043,0 8.195,1.4375 8.606,5.54692 0.308,2.7539 0.308,5.4101 0.308,8.1836 -4.914,-1.1329 -9.527,-1.7579 -13.625,-1.7579 -12.09,0 -17.008,7.2969 -17.008,24.1993 0,9.3164 1.743,16.1914 5.121,20.1757 3.899,4.7071 7.891,6.0469 18.747,6.0469 4.511,0 8.199,0 13.73,-0.4101 2.258,-0.2149 2.457,-0.6172 2.457,-2.9805 l 0,-50.918 c 0,-5.0078 -0.305,-6.64842 -1.844,-9.00389"
             style="fill:#e31b22;fill-opacity:1;fill-rule:nonzero;stroke:none"
             id="path3120"
             inkscape:connector-curvature="0" /><path
             d="m 443.578,21.2109 -3.992,0 c -3.078,0 -3.488,0.1953 -3.488,2.9688 l 0,41.8945 c 0,2.461 0.519,2.7735 2.668,2.7735 l 4.812,0 c 1.641,0 2.258,-1.2383 2.258,-2.7735 l 0,-41.8945 c 0,-2.3633 -0.508,-2.9688 -2.258,-2.9688 z m 0,55.4297 -3.992,0 c -3.078,0 -3.488,0.1953 -3.488,2.9492 l 0,3.6914 c 0,2.461 0.519,2.7657 2.668,2.7657 l 4.812,0 c 1.641,0 2.258,-1.2305 2.258,-2.7657 l 0,-3.6914 c 0,-2.3437 -0.508,-2.9492 -2.258,-2.9492"
             style="fill:#e31b22;fill-opacity:1;fill-rule:nonzero;stroke:none"
             id="path3122"
             inkscape:connector-curvature="0" /><path
             d="m 483.941,61.3672 -10.648,0 0,-26.0352 c 0,-3.9843 0.098,-4.9023 0.609,-5.9179 0.512,-1.2305 1.641,-1.8555 3.282,-1.8555 2.972,0 6.863,1.543 8.398,1.543 0.922,0 1.023,-0.2149 1.023,-1.336 l 0,-3.8984 c 0,-2.7734 -0.21,-2.9688 -2.664,-3.1836 -3.277,-0.293 -5.328,-0.5078 -8.711,-0.5078 -9.418,0 -11.363,2.8711 -11.363,14.8633 l 0,26.3281 -2.562,0 c -2.36,0 -2.66,0.5078 -2.66,2.7539 l 0,2.3633 c 0,1.7383 1.222,2.3633 2.66,2.3633 l 2.562,0 0,9.6289 c 0,2.4414 0.508,2.7539 2.656,2.7539 l 4.512,0 c 1.641,0 2.258,-1.2305 2.258,-2.7539 l 0,-9.6289 10.648,0 c 2.254,0 2.871,-0.5274 2.871,-2.3633 l 0,-1.4453 c 0,-3.2618 -0.207,-3.6719 -2.871,-3.6719"
             style="fill:#e31b22;fill-opacity:1;fill-rule:nonzero;stroke:none"
             id="path3124"
             inkscape:connector-curvature="0" /><path
             d="m 526.965,43.0273 c -2.461,0.0977 -4.617,0.2071 -6.863,0.2071 -11.372,0 -13.426,-1.2305 -13.426,-8.0977 0,-5.625 1.437,-7.9883 5.125,-7.9883 3.996,0 10.969,2.9688 15.164,6.543 l 0,9.3359 z m 7.168,-21.8164 -3.688,0 c -3.074,0 -3.48,0.1953 -3.48,2.9688 l 0,2.1601 c -5.945,-4.4257 -11.274,-6.4765 -16.594,-6.4765 -8.601,0 -12.711,4.6211 -12.711,14.1406 0,7.3828 2.461,12.207 7.481,14.1406 4,1.543 11.269,2.3633 21.824,2.461 0,3.0781 -0.207,7.1679 -1.027,9.2187 -0.618,1.7383 -2.973,2.8711 -5.735,2.8711 -3.996,0 -10.961,-1.4258 -15.672,-2.6562 -0.41,-0.0977 -0.82,-0.2149 -1.23,-0.2149 -0.821,0 -1.328,0.625 -1.328,1.9531 l 0,3.7891 c 0,1.8359 0.3,2.4531 1.433,2.6563 4.504,0.9296 11.883,2.0507 16.391,2.0507 4.094,0 10.238,-0.7109 13.113,-4.2968 2.457,-3.0664 3.481,-5.625 3.481,-16.0938 l 0,-25.7031 c 0,-2.3633 -0.512,-2.9688 -2.258,-2.9688"
             style="fill:#e31b22;fill-opacity:1;fill-rule:nonzero;stroke:none"
             id="path3126"
             inkscape:connector-curvature="0" /><path
             d="m 557.805,21.2109 -3.59,0 c -3.176,0 -3.586,0.1953 -3.586,2.9688 l 0,62.6875 c 0,2.4687 0.516,2.7812 2.656,2.7812 l 4.52,0 c 1.633,0 2.25,-1.2382 2.25,-2.7812 l 0,-62.6875 c 0,-2.3633 -0.52,-2.9688 -2.25,-2.9688"
             style="fill:#e31b22;fill-opacity:1;fill-rule:nonzero;stroke:none"
             id="path3128"
             inkscape:connector-curvature="0" /><path
             d="m 593.242,62.5977 c -8.601,0 -10.344,-2.2461 -10.344,-11.4844 l 0,-2.0508 19.563,0 c 0.105,1.8555 0.105,2.8711 0.105,4.6211 0,6.9609 -1.953,8.9141 -9.324,8.9141 z m 15.891,-20.6915 -26.235,0 c 0,-5.539 0,-11.2812 3.379,-13.0195 1.645,-0.8203 4.707,-1.4258 7.473,-1.4258 7.793,0 14.348,2.3438 15.984,2.3438 0.727,0 0.825,-0.7031 1.028,-3.0664 0.097,-0.711 0.097,-1.5352 0.097,-2.461 0,-1.9531 -0.097,-2.5585 -2.136,-2.9687 -4.922,-0.918 -10.664,-1.4453 -15.071,-1.4453 -7.058,0 -12.898,1.8555 -15.777,5.0312 -3.273,3.4844 -4.508,9.4219 -4.508,19.8711 0,9.6289 0.719,14.5508 3.074,18.6524 2.661,4.707 8.293,6.9648 16.801,6.9648 7.996,0 13.02,-2.1601 15.567,-6.8672 2.773,-4.9101 2.773,-11.3672 2.773,-16.914 0,-3.9844 -0.105,-4.6954 -2.449,-4.6954"
             style="fill:#e31b22;fill-opacity:1;fill-rule:nonzero;stroke:none"
             id="path3130"
             inkscape:connector-curvature="0" /><path
             d="m 712.488,21.2109 -3.593,0 c -3.18,0 -3.59,0.1953 -3.59,2.9688 l 0,27.5586 c 0,5.2265 -0.2,8.3008 -0.918,9.414 -0.715,1.0352 -1.535,1.543 -2.856,1.543 -3.804,0 -9.219,-4.2969 -12.207,-6.7656 l 0,-31.75 c 0,-2.3633 -0.508,-2.9688 -2.246,-2.9688 l -3.687,0 c -3.188,0 -3.481,0.1953 -3.481,2.9688 l 0,27.5586 c 0,5.2265 -0.215,8.3008 -1.023,9.414 -0.711,1.0352 -1.438,1.543 -2.879,1.543 -3.781,0 -9.121,-4.2969 -12.192,-6.7656 l 0,-31.75 c 0,-2.3633 -0.504,-2.9688 -2.246,-2.9688 l -3.582,0 c -3.176,0 -3.586,0.1953 -3.586,2.9688 l 0,41.8945 c 0,2.461 0.508,2.7735 2.66,2.7735 l 4.508,0 c 1.633,0 2.246,-1.2383 2.246,-2.7735 l 0,-1.7383 c 3.188,2.3438 8.508,6.1446 15.579,6.1446 4.816,0 7.683,-2.5703 9.011,-6.7696 2.973,2.168 8.711,6.7696 16.391,6.7696 6.973,0 9.937,-5.2266 9.937,-13.2149 l 0,-33.0859 c 0,-2.3633 -0.41,-2.9688 -2.246,-2.9688"
             style="fill:#e31b22;fill-opacity:1;fill-rule:nonzero;stroke:none"
             id="path3132"
             inkscape:connector-curvature="0" /><path
             d="m 747.52,62.5977 c -8.602,0 -10.352,-2.2461 -10.352,-11.4844 l 0,-2.0508 19.57,0 c 0.098,1.8555 0.098,2.8711 0.098,4.6211 0,6.9609 -1.941,8.9141 -9.316,8.9141 z m 15.871,-20.6915 -26.223,0 c 0,-5.539 0,-11.2812 3.379,-13.0195 1.633,-0.8203 4.719,-1.4258 7.48,-1.4258 7.793,0 14.336,2.3438 15.989,2.3438 0.711,0 0.82,-0.7031 1.023,-3.0664 0.09,-0.711 0.09,-1.5352 0.09,-2.461 0,-1.9531 -0.09,-2.5585 -2.149,-2.9687 -4.906,-0.918 -10.644,-1.4453 -15.05,-1.4453 -7.078,0 -12.918,1.8555 -15.782,5.0312 -3.269,3.4844 -4.503,9.4219 -4.503,19.8711 0,9.6289 0.722,14.5508 3.07,18.6524 2.664,4.707 8.301,6.9648 16.805,6.9648 7.976,0 13.007,-2.1601 15.566,-6.8672 2.766,-4.9101 2.766,-11.3672 2.766,-16.914 0,-3.9844 -0.098,-4.6954 -2.461,-4.6954"
             style="fill:#e31b22;fill-opacity:1;fill-rule:nonzero;stroke:none"
             id="path3134"
             inkscape:connector-curvature="0" /><path
             d="m 808.977,60.5469 c -4.106,1.1328 -8.497,1.8359 -11.68,1.8359 -2.348,0 -3.684,-0.293 -5.012,-1.1133 -3.39,-2.0507 -5.019,-8.2031 -5.019,-18.9531 0,-5.6445 0.714,-9.3281 2.254,-11.5742 1.332,-1.9531 4.203,-3.3867 6.859,-3.3867 3.687,0 8.609,2.1562 12.598,5.7304 l 0,27.461 z m 7.175,-39.336 -3.679,0 c -3.078,0 -3.496,0.1953 -3.496,2.9688 l 0,0.3047 c -5.735,-3.2735 -10.239,-4.7188 -14.653,-4.7188 -10.75,0 -16.59,8.418 -16.59,23.6719 0,17.9297 6.551,26.7266 19.871,26.7266 3.899,0 8.618,-0.711 11.372,-1.2266 l 0,17.9297 c 0,2.4687 0.515,2.7812 2.671,2.7812 l 4.504,0 c 1.629,0 2.254,-1.2382 2.254,-2.7812 l 0,-62.6875 c 0,-2.3633 -0.515,-2.9688 -2.254,-2.9688"
             style="fill:#e31b22;fill-opacity:1;fill-rule:nonzero;stroke:none"
             id="path3136"
             inkscape:connector-curvature="0" /><path
             d="m 840.637,21.2109 -4.004,0 c -3.071,0 -3.469,0.1953 -3.469,2.9688 l 0,41.8945 c 0,2.461 0.496,2.7735 2.664,2.7735 l 4.809,0 c 1.636,0 2.246,-1.2383 2.246,-2.7735 l 0,-41.8945 c 0,-2.3633 -0.512,-2.9688 -2.246,-2.9688 z m 0,55.4297 -4.004,0 c -3.071,0 -3.469,0.1953 -3.469,2.9492 l 0,3.6914 c 0,2.461 0.496,2.7657 2.664,2.7657 l 4.809,0 c 1.636,0 2.246,-1.2305 2.246,-2.7657 l 0,-3.6914 c 0,-2.3437 -0.512,-2.9492 -2.246,-2.9492"
             style="fill:#e31b22;fill-opacity:1;fill-rule:nonzero;stroke:none"
             id="path3138"
             inkscape:connector-curvature="0" /><path
             d="m 876.582,62.5977 c -8.602,0 -10.344,-2.2461 -10.344,-11.4844 l 0,-2.0508 19.574,0 c 0.094,1.8555 0.094,2.8711 0.094,4.6211 0,6.9609 -1.941,8.9141 -9.324,8.9141 z m 15.891,-20.6915 -26.235,0 c 0,-5.539 0,-11.2812 3.391,-13.0195 1.633,-0.8203 4.695,-1.4258 7.473,-1.4258 7.781,0 14.343,2.3438 15.972,2.3438 0.727,0 0.821,-0.7031 1.035,-3.0664 0.102,-0.711 0.102,-1.5352 0.102,-2.461 0,-1.9531 -0.102,-2.5585 -2.149,-2.9687 -4.921,-0.918 -10.667,-1.4453 -15.07,-1.4453 -7.058,0 -12.898,1.8555 -15.769,5.0312 -3.285,3.4844 -4.504,9.4219 -4.504,19.8711 0,9.6289 0.715,14.5508 3.078,18.6524 2.652,4.707 8.289,6.9648 16.785,6.9648 7.996,0 13.02,-2.1601 15.574,-6.8672 2.778,-4.9101 2.778,-11.3672 2.778,-16.914 0,-3.9844 -0.122,-4.6954 -2.461,-4.6954"
             style="fill:#e31b22;fill-opacity:1;fill-rule:nonzero;stroke:none"
             id="path3140"
             inkscape:connector-curvature="0" /><path
             d="m 933.547,60.7422 c -7.485,0 -10.246,-1.0156 -15.567,-4.4024 l 0,-32.1601 c 0,-2.3633 -0.519,-2.9688 -2.257,-2.9688 l -3.899,0 c -3.179,0 -3.582,0.1953 -3.582,2.9688 l 0,41.8945 c 0,2.461 0.508,2.7735 2.664,2.7735 l 4.817,0 c 1.632,0 2.257,-1.2383 2.257,-2.7735 l 0,-2.1484 c 3.68,2.6562 9.122,5.5273 14.84,5.5273 1.758,0 2.676,-0.7226 2.676,-1.9531 l 0,-3.5742 c 0,-2.461 -0.418,-3.1836 -1.949,-3.1836"
             style="fill:#e31b22;fill-opacity:1;fill-rule:nonzero;stroke:none"
             id="path3142"
             inkscape:connector-curvature="0" /></g></g></g></g></svg>
