<?xml version="1.0" encoding="UTF-8" standalone="no"?>
<!-- Created with Inkscape (http://www.inkscape.org/) -->

<svg
   xmlns:dc="http://purl.org/dc/elements/1.1/"
   xmlns:cc="http://creativecommons.org/ns#"
   xmlns:rdf="http://www.w3.org/1999/02/22-rdf-syntax-ns#"
   xmlns:svg="http://www.w3.org/2000/svg"
   xmlns="http://www.w3.org/2000/svg"
   xmlns:sodipodi="http://sodipodi.sourceforge.net/DTD/sodipodi-0.dtd"
   xmlns:inkscape="http://www.inkscape.org/namespaces/inkscape"
   id="svg3512"
   version="1.1"
   inkscape:version="0.48.3.1 r9886"
   viewBox="0 0 374.1875 274.9875"
   width="100%"
   height="100%"
   x="0px"
   y="0px"
   xml:space="preserve"
   sodipodi:docname="Arktekk_logo_cmyk.eps"><metadata
     id="metadata3518"><rdf:RDF><cc:Work
         rdf:about=""><dc:format>image/svg+xml</dc:format><dc:type
           rdf:resource="http://purl.org/dc/dcmitype/StillImage" /><dc:title></dc:title></cc:Work></rdf:RDF></metadata><defs
     id="defs3516"><clipPath
       clipPathUnits="userSpaceOnUse"
       id="clipPath3528"><path
         d="M 0,2199.88 0,0 l 2993.5,0 0,2199.88 -2993.5,0 z"
         id="path3530" /></clipPath></defs><sodipodi:namedview
     pagecolor="#ffffff"
     bordercolor="#666666"
     borderopacity="1"
     objecttolerance="10"
     gridtolerance="10"
     guidetolerance="10"
     inkscape:pageopacity="0"
     inkscape:pageshadow="2"
     inkscape:window-width="640"
     inkscape:window-height="480"
     id="namedview3514"
     showgrid="false"
     inkscape:zoom="0.85822087"
     inkscape:cx="187.09375"
     inkscape:cy="137.49374"
     inkscape:window-x="343"
     inkscape:window-y="124"
     inkscape:window-maximized="0"
     inkscape:current-layer="g3520" /><g
     id="g3520"
     inkscape:groupmode="layer"
     inkscape:label="ink_ext_XXXXXX"
     transform="matrix(1.25,0,0,-1.25,0,274.9875)"><g
       id="g3522"
       transform="scale(0.1,0.1)"><g
         id="g3524"><g
           id="g3526"
           clip-path="url(#clipPath3528)"><path
             d="M 297.574,323.281 C 141.371,302.52 52.3984,271.871 52.3984,152.238 52.3984,67.2188 105.781,32.6211 193.77,32.6211 c 38.554,0 78.101,7.9101 103.804,21.75 l 0,268.9099 z M 186.852,0 C 56.3516,0 0,62.2812 0,152.238 0,294.609 130.496,338.102 297.574,354.922 l 0,36.566 c 0,95.891 -56.351,122.594 -129.508,122.594 -51.41,0 -95.898,-18.793 -123.5777,-34.602 l -14.8321,34.602 c 27.6836,15.816 83.0428,38.547 144.3358,38.547 88.981,0 174,-38.547 174,-162.129 l 0,-352.9297 C 309.438,14.8203 253.086,0 186.852,0"
             style="fill:#484546;fill-opacity:1;fill-rule:nonzero;stroke:none"
             id="path3532" /><path
             d="M 714.77,506.172 C 668.305,519.02 612.945,513.09 583.285,491.34 l 0,-481.46109 -53.387,0 0,505.20309 c 48.446,24.699 84.032,37.547 200.692,37.547 l -15.82,-46.457"
             style="fill:#484546;fill-opacity:1;fill-rule:nonzero;stroke:none"
             id="path3534" /><path
             d="M 1145.81,9.87891 918.422,287.691 l -1.973,0 0,-277.81209 -51.414,0 0,776.07009 51.414,0 0,-496.277 1.973,0 209.588,253.078 59.32,0 L 967.855,288.672 1208.09,9.87891 l -62.28,0"
             style="fill:#484546;fill-opacity:1;fill-rule:nonzero;stroke:none"
             id="path3536" /><path
             d="m 1471.05,6.92188 c -89.96,0 -118.63,67.21872 -118.63,124.55812 l 0,379.629 -62.29,0 0,31.641 62.29,0 0,127.531 53.39,19.778 0,-147.309 98.85,0 0,-30.641 -98.85,0 0,-383.597 c 0,-43.4925 20.75,-84.0237 77.11,-84.0237 5.92,0 14.82,0 21.74,1.9726 l 0,-34.6015 c -8.89,-2.96096 -19.77,-4.93752 -33.61,-4.93752"
             style="fill:#484546;fill-opacity:1;fill-rule:nonzero;stroke:none"
             id="path3538" /><path
             d="m 1827.93,513.09 c -85.01,0 -151.25,-65.238 -151.25,-227.379 l 290.66,44.48 c 0,133.469 -53.39,182.899 -139.41,182.899 z M 1677.67,253.082 c 7.91,-141.363 73.16,-211.5625 178.94,-211.5625 59.31,0 100.84,15.8203 127.54,31.6407 l 16.79,-38.5508 C 1972.28,16.8008 1918.89,0 1855.62,0 1727.1,0 1627.25,78.1016 1627.25,277.801 c 0,187.84 89.96,274.828 201.68,274.828 114.68,0 190.8,-72.16 190.8,-249.129 l -342.06,-50.418"
             style="fill:#484546;fill-opacity:1;fill-rule:nonzero;stroke:none"
             id="path3540" /><path
             d="m 2466.58,9.87891 -227.39,277.81209 -1.97,0 0,-277.81209 -51.41,0 0,776.07009 51.41,0 0,-496.277 1.97,0 209.59,253.078 59.32,0 -219.47,-254.078 240.23,-278.79309 -62.28,0"
             style="fill:#484546;fill-opacity:1;fill-rule:nonzero;stroke:none"
             id="path3542" /><path
             d="m 2931.22,9.87891 -227.39,277.81209 -1.97,0 0,-277.81209 -51.42,0 0,776.07009 51.42,0 0,-496.277 1.97,0 209.59,253.078 59.32,0 -219.47,-254.078 240.23,-278.79309 -62.28,0"
             style="fill:#484546;fill-opacity:1;fill-rule:nonzero;stroke:none"
             id="path3544" /><path
             d="m 1737.37,1352.8 c 0,69.69 -0.15,173.6 -0.21,250.13 -0.06,22.52 -0.06,42.78 -0.06,58.94 61.09,13.33 118.97,40.93 168.44,81.39 33.07,27.02 62.41,59.78 86.28,98.01 l -138.73,86.62 c -29.32,-46.93 -72.37,-79.93 -120.7,-97.41 l -1.06,34.94 c -31.88,189.83 -196.87,334.52 -395.79,334.46 -54.36,0 -106.11,-10.93 -153.42,-30.51 l 28.31,-56.66 45.21,-90.46 c 24.99,8.95 51.81,14.09 79.9,14.09 131.37,0 237.91,-106.5 237.91,-237.93 0,-57.27 0.09,-105.14 0.17,-144.98 -23.65,17.38 -49.46,32.4 -77.33,44.55 -9,3.95 -18.18,7.6 -27.59,10.92 -72.37,25.44 -147.12,28.89 -217.03,13.92 -99.72,-21.39 -189.47,-80.39 -248.22,-166.86 -19.059,-28.1 -34.911,-59.05 -46.716,-92.59 -43.242,-123.03 -23.058,-252.94 43.446,-354.09 l 0.17,-0.16 c 34.38,-56.25 71.59,-97.89 138.55,-131.69 l -0.63,-1.77 c 57.39,-31.5 123.27,-49.461 193.34,-49.461 61.36,0 119.41,13.852 171.43,38.41 29.69,14.039 57.43,31.52 82.6,52.071 4.54,3.67 8.97,7.46 13.33,11.33 -8.49,8.77 -16.69,17.83 -24.37,27.33 -27.19,33.66 -48.87,71.95 -64.15,113.34 -0.22,-0.24 -0.45,-0.49 -0.66,-0.69 -43.5,-47.49 -105.8,-77.46 -175.24,-77.46 -27.57,0 -53.95,4.92 -78.57,13.54 -92.75,32.49 -159.37,120.57 -159.37,224.41 0,36.63 8.48,71.16 23.28,102.14 0.36,0.81 0.76,1.6 1.14,2.4 1.77,3.62 3.74,7.14 5.7,10.67 0.77,1.42 1.46,2.9 2.29,4.31 2.02,3.53 4.13,6.97 6.31,10.41 1.24,1.85 2.49,3.75 3.77,5.6 59.23,87.01 171.36,127.13 275.35,90.58 98.65,-34.77 161.4,-125.18 160.32,-224.28 l -0.04,-3.29 c 5.41,-85.53 37.62,-163.8 88.29,-226.5 58.18,-71.96 140.74,-123.27 235.16,-141.661 24.96,-4.859 50.71,-7.55 77.12,-7.55 l 0,163.561 c -131.41,0 -237.9,106.52 -237.93,237.93"
             style="fill:#8ca225;fill-opacity:1;fill-rule:nonzero;stroke:none"
             id="path3546" /></g></g></g></g></svg>
