<?xml version="1.0" encoding="UTF-8" standalone="no"?>
<!-- Created with Inkscape (http://www.inkscape.org/) -->

<svg
   xmlns:dc="http://purl.org/dc/elements/1.1/"
   xmlns:cc="http://creativecommons.org/ns#"
   xmlns:rdf="http://www.w3.org/1999/02/22-rdf-syntax-ns#"
   xmlns:svg="http://www.w3.org/2000/svg"
   xmlns="http://www.w3.org/2000/svg"
   xmlns:sodipodi="http://sodipodi.sourceforge.net/DTD/sodipodi-0.dtd"
   xmlns:inkscape="http://www.inkscape.org/namespaces/inkscape"
   id="svg2"
   version="1.1"
   inkscape:version="0.48.4 r9939"
   viewBox="0 0 312.5125 110.2375"
   width="100%"
   height="100%"
   x="0px"
   y="0px"
   xml:space="preserve"
   sodipodi:docname="basho-logo-color-horiz-tagline.eps"><metadata
     id="metadata8"><rdf:RDF><cc:Work
         rdf:about=""><dc:format>image/svg+xml</dc:format><dc:type
           rdf:resource="http://purl.org/dc/dcmitype/StillImage" /><dc:title></dc:title></cc:Work></rdf:RDF></metadata><defs
     id="defs6"><clipPath
       clipPathUnits="userSpaceOnUse"
       id="clipPath18"><path
         d="m 0,0 2500,0 0,881.934 -2500,0 L 0,0 z"
         id="path20" /></clipPath></defs><sodipodi:namedview
     pagecolor="#ffffff"
     bordercolor="#666666"
     borderopacity="1"
     objecttolerance="10"
     gridtolerance="10"
     guidetolerance="10"
     inkscape:pageopacity="0"
     inkscape:pageshadow="2"
     inkscape:window-width="640"
     inkscape:window-height="480"
     id="namedview4"
     showgrid="false"
     inkscape:zoom="1.1615535"
     inkscape:cx="156.25626"
     inkscape:cy="55.118752"
     inkscape:window-x="425"
     inkscape:window-y="118"
     inkscape:window-maximized="0"
     inkscape:current-layer="g10" /><g
     id="g10"
     inkscape:groupmode="layer"
     inkscape:label="ink_ext_XXXXXX"
     transform="matrix(1.25,0,0,-1.25,0,110.2375)"><g
       id="g12"
       transform="scale(0.1,0.1)"><g
         id="g14"><g
           id="g16"
           clip-path="url(#clipPath18)"><path
             d="m 1179.96,255.117 c -15.07,-16.055 -33.65,-24.07 -55.69,-24.07 -22.75,0 -41.63,7.879 -56.63,23.672 -14.98,15.777 -22.48,36.465 -22.48,62.051 0,25.039 7.5,45.32 22.48,60.847 15,15.52 33.88,23.281 56.63,23.281 22.57,0 41.28,-7.89 56.1,-23.671 14.8,-15.789 22.21,-36.036 22.21,-60.731 0,-24.863 -7.55,-45.332 -22.62,-61.379 z m -40.6,212.453 c -17.29,0 -33.52,-3.273 -48.7,-9.781 -15.16,-6.527 -29.27,-16.32 -42.33,-29.371 l 0,142.855 -71.693,0 0,-398.968 71.693,0 0,30.429 c 14.12,-13.406 28.32,-23.066 42.61,-28.964 14.28,-5.918 29.71,-8.868 46.29,-8.868 37.22,0 69.42,14.414 96.57,43.262 27.15,28.84 40.76,64.68 40.76,107.539 0,44.453 -13.16,80.871 -39.43,109.27 -26.3,28.39 -58.21,42.597 -95.77,42.597"
             style="fill:#5a5c62;fill-opacity:1;fill-rule:nonzero;stroke:none"
             id="path22" /><path
             d="m 1516.73,254.719 c -14.95,-15.793 -33.76,-23.672 -56.43,-23.672 -21.97,0 -40.49,8.015 -55.51,24.07 -15.03,16.047 -22.55,36.516 -22.55,61.379 0,24.695 7.37,44.942 22.14,60.731 14.79,15.781 33.32,23.671 55.64,23.671 22.87,0 41.76,-7.761 56.71,-23.281 14.94,-15.527 22.42,-35.808 22.42,-60.847 0,-25.586 -7.48,-46.274 -22.42,-62.051 z m 19.23,173.699 c -12.85,13.051 -26.86,22.844 -42.02,29.371 -15.16,6.508 -31.36,9.781 -48.61,9.781 -37.55,0 -69.41,-14.207 -95.69,-42.597 -26.23,-28.399 -39.37,-64.817 -39.37,-109.27 0,-42.859 13.56,-78.699 40.7,-107.539 27.12,-28.848 59.3,-43.262 96.46,-43.262 16.56,0 31.93,2.95 46.13,8.868 14.17,5.898 28.29,15.558 42.4,28.964 l 0,-30.429 72.23,0 0,287.859 -72.23,0 0,-31.746"
             style="fill:#5a5c62;fill-opacity:1;fill-rule:nonzero;stroke:none"
             id="path24" /><path
             d="m 1789.68,346.914 -26.46,13.242 c -11.46,5.633 -18.64,10.09 -21.55,13.36 -2.92,3.261 -4.38,6.828 -4.38,10.714 0,5.125 2.3,9.383 6.89,12.832 4.59,3.434 10.94,5.165 19.04,5.165 14.83,0 31.32,-9.004 49.49,-26.993 l 44.71,44.727 c -11.47,15.332 -25.46,27.094 -41.95,35.309 -16.47,8.199 -34.08,12.3 -52.77,12.3 -27.34,0 -49.79,-8.066 -67.33,-24.211 -17.55,-16.14 -26.32,-35.586 -26.32,-58.339 0,-35.282 23.26,-64.649 69.83,-88.106 l 24.34,-12.168 c 20.99,-10.574 31.5,-21.418 31.5,-32.539 0,-6.004 -2.91,-11.297 -8.74,-15.867 -5.83,-4.594 -13.49,-6.887 -23.01,-6.887 -8.82,0 -18.91,3.039 -30.31,9.133 -11.37,6.082 -21.29,14.062 -29.74,23.945 l -44.46,-48.429 c 25.04,-32.793 58.56,-49.2 100.55,-49.2 31.56,0 56.75,8.547 75.53,25.664 18.79,17.11 28.17,38.438 28.17,64.012 0,19.231 -5.2,36 -15.6,50.285 -10.42,14.289 -29.57,28.301 -57.43,42.051"
             style="fill:#5a5c62;fill-opacity:1;fill-rule:nonzero;stroke:none"
             id="path26" /><path
             d="m 2066.7,467.57 c -14.63,0 -29.09,-3.035 -43.37,-9.129 -14.31,-6.082 -28.49,-15.218 -42.61,-27.386 l 0,140.218 -71.7,0 0,-398.968 71.7,0 0,115.617 c 0,30.859 1.04,50.625 3.17,59.266 4.05,16.757 11.34,29.98 21.83,39.687 10.51,9.699 23.05,14.551 37.69,14.551 11.31,0 20.78,-2.91 28.45,-8.731 7.67,-5.82 13.11,-14.636 16.28,-26.453 3.17,-11.828 4.76,-34.394 4.76,-67.734 l 0,-126.203 71.16,0 0,190.226 c 0,33.164 -8.37,58.289 -25.13,75.41 -19.58,19.754 -43.65,29.629 -72.23,29.629"
             style="fill:#5a5c62;fill-opacity:1;fill-rule:nonzero;stroke:none"
             id="path28" /><path
             d="m 2404.81,255.645 c -15.01,-15.692 -33.83,-23.543 -56.46,-23.543 -22.59,0 -41.28,7.761 -56.03,23.281 -14.76,15.527 -22.13,35.801 -22.13,60.859 0,24.336 7.45,44.317 22.38,59.91 14.93,15.618 33.61,23.418 56.07,23.418 22.97,0 41.82,-7.703 56.57,-23.132 14.76,-15.45 22.13,-35.508 22.13,-60.196 0,-24.707 -7.52,-44.902 -22.53,-60.597 z m 75.19,136.25 c -13.41,23.293 -32.07,41.718 -55.96,55.312 -23.9,13.566 -49.43,20.363 -76.6,20.363 -37.57,0 -70.81,-13.054 -99.74,-39.152 -33,-29.988 -49.48,-67.469 -49.48,-112.449 0,-41.985 14.6,-77.657 43.79,-107.024 29.18,-29.367 64.43,-44.043 105.69,-44.043 28.06,0 53.72,6.653 77,19.961 23.28,13.321 41.66,31.809 55.16,55.442 13.49,23.633 20.24,49.031 20.24,76.191 0,26.992 -6.71,52.117 -20.1,75.399"
             style="fill:#5a5c62;fill-opacity:1;fill-rule:nonzero;stroke:none"
             id="path30" /><path
             d="m 261.926,744.809 -8.258,68.152 c -0.309,21.805 -13.477,63.242 -61.641,67.562 -10.425,0.934 -22.242,1.411 -35.132,1.411 -45.063,0 -88.8598,-5.641 -90.7036,-5.879 -0.75,-0.063 -25.5976,-2.645 -41.6445,-18.617 l -2.6602,-2.657 0,-0.238 C 8.24219,838.566 5.9375,816.449 5.84375,815.473 5.49219,812.828 -3.38281,743.531 1.42969,689.926 5.76172,641.758 47.168,628.574 68.9727,628.281 l 63.0233,-7.625 5.488,-0.672 3.086,4.59 c 30.629,45.387 70.012,82.879 117.059,111.426 l 4.988,3.023 -0.691,5.786"
             style="fill:#5a5c62;fill-opacity:1;fill-rule:nonzero;stroke:none"
             id="path32" /><path
             d="M 581.293,104.883 C 544.477,90.625 506.746,83.9062 469.59,83.9062 345.484,83.9375 228.281,159.074 180.789,281.797 c -4.793,12.394 -8.664,24.883 -11.781,37.433 6.453,33.399 26.004,99.286 67.844,-11.171 0,0 22.566,-63.145 60.875,-87.961 0,0 -40.571,451.023 180.437,324.722 0,0 138.09,-98.011 116.109,43.543 0,0 -18.085,138.114 115.997,0.078 19.726,-24.394 36.058,-52.191 47.988,-83.015 C 772.5,468.629 779.211,430.891 779.219,393.73 779.188,269.602 704.039,152.363 581.293,104.883 z M 469.535,26.3867 c -2.023,0 -4.047,0.0781 -6.074,0.1094 2.047,-0.0313 4.082,-0.1094 6.129,-0.1094 -0.024,0 -0.024,0 -0.055,0 z m 350.793,503.0623 -0.156,0.387 -0.012,0.031 C 792.168,601.84 743.629,662.59 679.797,705.562 617.27,747.641 544.562,769.883 469.527,769.883 l -0.093,0 c -46.465,0 -92.114,-8.574 -135.735,-25.477 C 261.52,716.441 200.59,667.844 157.543,603.871 115.465,541.328 93.2188,468.59 93.2383,393.527 c 0,-46.425 8.5627,-92.113 25.4767,-135.773 27.98,-72.156 76.562,-133.047 140.539,-176.0938 62.523,-42.0704 135.238,-64.3164 210.281,-64.3164 46.535,0 92.188,8.5742 135.785,25.4609 72.2,27.9844 133.11,76.5823 176.157,140.5663 42.085,62.559 64.32,135.293 64.304,210.359 0,46.43 -8.562,92.09 -25.453,135.719"
             style="fill:#5a5c62;fill-opacity:1;fill-rule:nonzero;stroke:none"
             id="path34" /><path
             d="m 464.77,223.234 c 151.597,-94.375 151.597,85.828 151.597,85.828 -35.902,-28.75 -208.433,-43.113 -208.433,-43.113 0.25,-44.484 39.894,-32.129 56.836,-42.715"
             style="fill:#5a5c62;fill-opacity:1;fill-rule:nonzero;stroke:none"
             id="path36" /><path
             d="m 675.426,331.926 c 31.269,-130.078 68.469,-24.875 78.359,42.078 0.27,1.652 -0.117,3.449 0.746,4.844 10.723,18.937 2.18,39.414 2.18,39.414 -15.981,-60.946 -81.285,-86.336 -81.285,-86.336"
             style="fill:#5a5c62;fill-opacity:1;fill-rule:nonzero;stroke:none"
             id="path38" /><path
             d="m 237.258,730.098 c 0,0 0.14,26.496 -25.731,28.558 -25.925,2.071 -60.355,-2.738 -60.355,-2.738 0,0 -10.977,-1.16 -17.817,-8.004 l 0,0 c -6.839,-6.836 -8.003,-17.816 -8.003,-17.816 0,0 -4.829,-34.43 -2.692,-60.336 2.035,-25.883 28.531,-25.727 28.531,-25.727 l 3.012,-0.351 c 12.043,15.519 25.129,30.214 39.535,43.875 13.68,12.925 28.532,24.906 44.246,35.894 l -0.726,6.645"
             style="fill:#f79224;fill-opacity:1;fill-rule:nonzero;stroke:none"
             id="path40" /><path
             d="m 1023.64,50.9766 c 17.7,0 25.08,11.1445 25.08,29.1718 0,17.8711 -7.38,26.2186 -25.08,26.2186 l -31.472,0 0,-55.3904 31.472,0 z m -31.472,-9.6758 0,-39.66018 -9.996,0 0,114.23038 41.468,0 c 24.42,0 35.4,-11.309 35.4,-35.7226 0,-24.4257 -10.98,-38.8476 -35.4,-38.8476 l -31.472,0"
             style="fill:#5a5c62;fill-opacity:1;fill-rule:nonzero;stroke:none"
             id="path42" /><path
             d="m 1081.47,83.5859 9.83,0 0,-11.6328 c 0,0 13.28,10.1563 30,13.2813 l 0,-10.0078 c -15.57,-3.1172 -30,-12.4532 -30,-12.4532 l 0,-61.13278 -9.83,0 0,81.94528"
             style="fill:#5a5c62;fill-opacity:1;fill-rule:nonzero;stroke:none"
             id="path44" /><path
             d="m 1191.93,43.7617 c 0,23.4453 -7.21,32.461 -23.93,32.461 -18.84,0 -24.59,-7.8829 -24.59,-32.3086 0,-24.8985 3.45,-35.06644 24.59,-35.06644 21.15,0 23.93,11.47654 23.93,34.91404 z m 10.16,0 C 1202.09,14.4258 1195.37,0 1168,0 c -27.54,0 -34.58,12.9492 -34.58,43.9141 0,29.0156 9.18,41.1445 34.58,41.1445 23.77,0 34.09,-12.6172 34.09,-41.2969"
             style="fill:#5a5c62;fill-opacity:1;fill-rule:nonzero;stroke:none"
             id="path46" /><path
             d="m 1287.13,83.5859 0,-81.94528 -9.65,0 0,5.73047 c 0,0 -12.79,-7.37109 -25.25,-7.37109 -22.78,0 -27.37,9.99219 -27.37,40.8125 l 0,42.7734 9.67,0 0,-42.4414 c 0,-24.5898 2.46,-32.29684 18.84,-32.29684 12.3,0 24.11,6.88674 24.11,6.88674 l 0,67.8515 9.65,0"
             style="fill:#5a5c62;fill-opacity:1;fill-rule:nonzero;stroke:none"
             id="path48" /><path
             d="m 1366.12,16.0547 0,58.3515 c -3.27,0.3399 -13.76,1.8165 -20.32,1.8165 -19.51,0 -24.75,-11.9766 -24.75,-34.6016 0,-28.6719 10.33,-32.44141 19.82,-32.60548 12.13,0.16407 25.25,7.03908 25.25,7.03908 z m 9.83,-14.41408 -9.83,0 0,5.89844 c 0,0 -12.94,-7.53906 -26.22,-7.53906 -13.78,0 -28.68,4.91406 -28.68,41.9648 0,28.5157 8.51,43.0938 34.24,43.0938 7.22,0 17.55,-1.4727 20.66,-1.9609 l 0,33.2693 9.83,0 0,-114.72638"
             style="fill:#5a5c62;fill-opacity:1;fill-rule:nonzero;stroke:none"
             id="path50" /><path
             d="m 1444.59,1.64062 0,81.94528 9.85,0 0,-5.8906 c 0,0 10.98,6.543 22.94,7.043 3.45,0.164 6.55,0.164 9.17,-0.168 6.39,-0.8086 10.83,-3.1055 13.78,-7.0508 3.92,1.4766 18.18,7.5391 30.15,7.5391 22.29,0 27.38,-9.9883 27.38,-40.8125 l 0,-42.60548 -9.84,0 0,40.15628 c 0,26.0547 -2.13,34.25 -18.69,34.25 -12.28,0 -24.41,-6.3867 -24.9,-6.7188 1.64,-4.7578 2.28,-14.2578 2.28,-25.082 l 0,-42.60548 -9.66,0 0,42.27348 c 0,24.5937 -2.63,32.1328 -18.85,32.1328 -12.3,0 -23.76,-6.8867 -23.76,-6.8867 l 0,-67.51958 -9.85,0"
             style="fill:#5a5c62;fill-opacity:1;fill-rule:nonzero;stroke:none"
             id="path52" /><path
             d="m 1605.37,40.9688 c -10.99,-0.9766 -15.09,-6.2227 -15.09,-16.0547 0,-10.4883 4.6,-16.39848 13.6,-16.39848 12.94,0 28.2,5.58598 28.2,5.58598 l 0,29.6601 -26.71,-2.7929 z m 36.37,-25.7227 c 0.5,-4.7578 5.25,-6.56251 10.66,-7.20704 l -0.49,-7.874998 c -8.03,0 -14.1,1.632818 -18.53,6.554688 0,0 -15.41,-6.71875 -30.82,-6.71875 -14.4,0 -22.44,8.35938 -22.44,24.7461 0,15.0781 7.54,22.293 24.09,23.9375 l 27.87,2.7695 0,7.3867 c 0,12.293 -5.58,17.2071 -16.07,17.2071 -11.8,0 -30.98,-2.2969 -30.98,-2.2969 l -0.49,8.0391 c 0,0 18.84,3.2695 32.13,3.2695 17.05,0 25.07,-8.5156 25.07,-26.2188 l 0,-43.5937"
             style="fill:#5a5c62;fill-opacity:1;fill-rule:nonzero;stroke:none"
             id="path54" /><path
             d="m 1672.06,1.64062 0,118.33238 9.83,0 0,-69.8168 13.59,0.4883 26.56,32.9414 11.14,0 -28.84,-37.5312 29.17,-44.41408 -11.31,0 -26.55,39.32818 -13.76,-0.4883 0,-38.83988 -9.83,0"
             style="fill:#5a5c62;fill-opacity:1;fill-rule:nonzero;stroke:none"
             id="path56" /><path
             d="m 1802.66,46.7109 c 0,21.6289 -7.05,29.668 -22.46,29.668 -14.91,0 -23.76,-8.3594 -23.76,-29.668 l 46.22,0 z m 6.55,-36.2226 0.34,-8.19142 c 0,0 -18.53,-2.29688 -31.31,-2.29688 -24.42,0.164062 -31.8,14.9141 -31.8,42.2852 0,31.6289 13.77,42.7734 33.76,42.7734 21.14,0 32.3,-11.1445 32.3,-38.6719 l -0.33,-7.8711 -55.73,0 c 0,-19.3437 5.58,-29.49998 22.78,-29.49998 11.97,0 29.99,1.47268 29.99,1.47268"
             style="fill:#5a5c62;fill-opacity:1;fill-rule:nonzero;stroke:none"
             id="path58" /><path
             d="m 1835.75,83.5859 9.83,0 0,-11.6328 c 0,0 13.28,10.1563 29.99,13.2813 l 0,-10.0078 C 1860,72.1094 1845.58,62.7734 1845.58,62.7734 l 0,-61.13278 -9.83,0 0,81.94528"
             style="fill:#5a5c62;fill-opacity:1;fill-rule:nonzero;stroke:none"
             id="path60" /><path
             d="m 1945.87,73.5938 c 0,0 -17.69,2.6289 -28.34,2.6289 -10.33,0 -19.34,-2.793 -19.34,-13.9375 0,-8.5235 4.09,-11.1524 21.3,-13.7696 C 1940.96,45.0703 1949,41.1445 1949,25.4102 1949,6.22266 1937.04,0 1917.36,0 c -9.99,0 -28.19,2.94922 -28.19,2.94922 l 0.66,8.68358 c 0,0 18.36,-2.78514 26.71,-2.78514 14.26,0 22.46,3.28124 22.46,16.06644 0,9.832 -4.91,11.8047 -22.46,14.5898 -19.66,3.1133 -28.35,6.7188 -28.35,22.4414 0,17.8711 14.59,23.1133 28.85,23.1133 12.46,0 29.18,-2.7813 29.18,-2.7813 l -0.35,-8.6835"
             style="fill:#5a5c62;fill-opacity:1;fill-rule:nonzero;stroke:none"
             id="path62" /><path
             d="m 2064.36,43.7617 c 0,23.4453 -7.22,32.461 -23.94,32.461 -18.84,0 -24.58,-7.8829 -24.58,-32.3086 0,-24.8985 3.44,-35.06644 24.58,-35.06644 21.15,0 23.94,11.47654 23.94,34.91404 z m 10.16,0 C 2074.52,14.4258 2067.81,0 2040.42,0 c -27.53,0 -34.58,12.9492 -34.58,43.9141 0,29.0156 9.18,41.1445 34.58,41.1445 23.77,0 34.1,-12.6172 34.1,-41.2969"
             style="fill:#5a5c62;fill-opacity:1;fill-rule:nonzero;stroke:none"
             id="path64" /><path
             d="m 2108.75,1.64062 -9.67,0 0,72.92968 -10.81,0 0,9.0156 10.81,0 0,8.3672 c 0,23.5939 5.91,29.6599 21.47,29.6599 5.73,0 16.07,-0.976 16.07,-0.976 l -0.17,-8.203 c 0,0 -9.67,0.332 -14.41,0.332 -9.84,0 -13.29,-4.102 -13.29,-20.9887 l 0,-8.1914 24.92,0 0,-9.0156 -24.92,0 0,-72.92968"
             style="fill:#5a5c62;fill-opacity:1;fill-rule:nonzero;stroke:none"
             id="path66" /><path
             d="m 2233.46,106.367 -31.63,0 0,-50.4764 31.63,0 c 19.02,0 24.91,10.3203 24.91,26.0547 0,16.8828 -7.87,24.4217 -24.91,24.4217 z m 3.11,-59.9803 -34.74,0 0,-44.74608 -10,0 0,114.23038 41.63,0 c 23.76,0 35.41,-9.992 35.41,-33.9257 0,-17.8633 -6.24,-29.1719 -21.97,-33.2617 l 23.45,-47.04298 -11.32,0 -22.46,44.74608"
             style="fill:#5a5c62;fill-opacity:1;fill-rule:nonzero;stroke:none"
             id="path68" /><path
             d="m 2292.6,83.5859 9.84,0 0,-81.94528 -9.84,0 0,81.94528 z m 0,32.7811 9.84,0 0,-12.285 -9.84,0 0,12.285"
             style="fill:#5a5c62;fill-opacity:1;fill-rule:nonzero;stroke:none"
             id="path70" /><path
             d="m 2349.8,40.9688 c -10.99,-0.9766 -15.08,-6.2227 -15.08,-16.0547 0,-10.4883 4.58,-16.39848 13.61,-16.39848 12.93,0 28.19,5.58598 28.19,5.58598 l 0,29.6601 -26.72,-2.7929 z m 36.38,-25.7227 c 0.49,-4.7578 5.24,-6.56251 10.66,-7.20704 l -0.5,-7.874998 c -8.03,0 -14.1,1.632818 -18.52,6.554688 0,0 -15.4,-6.71875 -30.81,-6.71875 -14.43,0 -22.45,8.35938 -22.45,24.7461 0,15.0781 7.53,22.293 24.09,23.9375 l 27.87,2.7695 0,7.3867 c 0,12.293 -5.59,17.2071 -16.08,17.2071 -11.79,0 -30.96,-2.2969 -30.96,-2.2969 l -0.5,8.0391 c 0,0 18.85,3.2695 32.13,3.2695 17.04,0 25.07,-8.5156 25.07,-26.2188 l 0,-43.5937"
             style="fill:#5a5c62;fill-opacity:1;fill-rule:nonzero;stroke:none"
             id="path72" /><path
             d="m 2416.48,1.64062 0,118.33238 9.83,0 0,-69.8168 13.61,0.4883 26.56,32.9414 11.14,0 -28.85,-37.5312 29.17,-44.41408 -11.3,0 -26.55,39.32818 -13.78,-0.4883 0,-38.83988 -9.83,0"
             style="fill:#5a5c62;fill-opacity:1;fill-rule:nonzero;stroke:none"
             id="path74" /></g></g></g></g></svg>
