<?xml version="1.0" encoding="UTF-8" standalone="no"?>
<!-- Created with Inkscape (http://www.inkscape.org/) -->

<svg
   xmlns:dc="http://purl.org/dc/elements/1.1/"
   xmlns:cc="http://creativecommons.org/ns#"
   xmlns:rdf="http://www.w3.org/1999/02/22-rdf-syntax-ns#"
   xmlns:svg="http://www.w3.org/2000/svg"
   xmlns="http://www.w3.org/2000/svg"
   xmlns:sodipodi="http://sodipodi.sourceforge.net/DTD/sodipodi-0.dtd"
   xmlns:inkscape="http://www.inkscape.org/namespaces/inkscape"
   id="svg3004"
   version="1.1"
   inkscape:version="0.48.3.1 r9886"
   viewBox="0 0 500.05 116.6875"
   width="100%"
   height="100%"
   x="0px"
   y="0px"
   xml:space="preserve"
   sodipodi:docname="Bekk_pos.eps"><metadata
     id="metadata3010"><rdf:RDF><cc:Work
         rdf:about=""><dc:format>image/svg+xml</dc:format><dc:type
           rdf:resource="http://purl.org/dc/dcmitype/StillImage" /><dc:title></dc:title></cc:Work></rdf:RDF></metadata><defs
     id="defs3008" /><sodipodi:namedview
     pagecolor="#ffffff"
     bordercolor="#666666"
     borderopacity="1"
     objecttolerance="10"
     gridtolerance="10"
     guidetolerance="10"
     inkscape:pageopacity="0"
     inkscape:pageshadow="2"
     inkscape:window-width="1366"
     inkscape:window-height="744"
     id="namedview3006"
     showgrid="false"
     inkscape:zoom="2.4017599"
     inkscape:cx="250.02499"
     inkscape:cy="58.34375"
     inkscape:window-x="0"
     inkscape:window-y="24"
     inkscape:window-maximized="1"
     inkscape:current-layer="g3012" /><g
     id="g3012"
     inkscape:groupmode="layer"
     inkscape:label="ink_ext_XXXXXX"
     transform="matrix(1.25,0,0,-1.25,0,116.6875)"><g
       id="g3014"
       transform="scale(0.1,0.1)"><path
         d="m 17.168,933.52 348.531,0 c 0,0 287.403,24.289 287.403,-217.61 0,-241.863 -247.766,-223.683 -295.059,-223.683 l -341.7735,0.472 0,107.016 354.7105,0 c 0,0 156.223,-7.199 156.223,116.195 0,119.168 -105.594,110.813 -160.047,110.813 -54.48,0 -350.0544,0 -350.0544,0 L 17.168,933.52"
         style="fill:#231f20;fill-opacity:1;fill-rule:nonzero;stroke:none"
         id="path3016" /><path
         d="M 606.211,412.438 C 659.164,380.691 706.832,323.57 706.832,230.078 706.832,-11.7773 458.93,1.85547 411.637,1.85547 L 0,1.52344 0,108.672 l 421.977,0.066 c 0,0 157.941,-2.058 158.957,121.34 0.699,84.785 -53.231,149.317 -104.739,182.36 l 130.016,0"
         style="fill:#231f20;fill-opacity:1;fill-rule:nonzero;stroke:none"
         id="path3018" /><path
         d="m 1017.08,412.438 148.99,0 c 0,-67.208 0,-164.25 0,-211.579 0,-69.425 41.67,-92.187 82.95,-92.187 41.28,0 369.9,0 407.25,0 L 1656.86,0 c -39.32,0 -440.32,0 -491.42,0 -51.11,0 -148.36,33.0859 -148.36,171.094 0,152.718 0,241.344 0,241.344"
         style="fill:#231f20;fill-opacity:1;fill-rule:nonzero;stroke:none"
         id="path3020" /><path
         d="m 1657.34,599.062 c -37.36,0 -380.12,0.188 -421.4,0.188 -41.28,0 -70.5,3.996 -70.5,51.344 0,7.414 0,115.058 0.72,123.332 0,49.676 25.57,52.797 66.85,52.797 41.28,0 385.98,0 423.34,0 l 0.05,106.797 c -39.31,0 -480.28,0 -480.28,0 0,0 -159.04,10.621 -159.04,-159.461 0,-59.325 0,-116.563 0,-118.68 0,-152.723 113.97,-162.68 165.07,-162.68 51.11,0 434.92,0 474.25,0 l 0.94,106.363"
         style="fill:#231f20;fill-opacity:1;fill-rule:nonzero;stroke:none"
         id="path3022" /><path
         d="m 2723.2,933.281 c -22.42,-24.73 -230.6,-273.597 -257.04,-299.672 -43.98,-43.363 -122.82,-34.132 -186.65,-34.132 -64.85,0 -75.93,49.093 -75.93,82.457 0,33.394 -0.26,221.16 -0.26,251.347 l -148.27,0 c 0,-31.781 0.55,-292.484 0.55,-333.804 0,-32.84 15.41,-107.165 147.44,-107.165 24.84,0 251.77,0.368 254.36,0.387 32.73,0.239 81.95,19.934 138.51,86.793 16.73,19.774 258.46,310.59 297.72,353.789 l -170.43,0"
         style="fill:#231f20;fill-opacity:1;fill-rule:nonzero;stroke:none"
         id="path3024" /><path
         d="m 2577.26,345.512 c -31.13,33.633 -59.48,66.926 -157.37,66.926 0,0 -65.59,0 -216.85,0 -108.49,0 -147.08,-78.704 -147.08,-120.036 0,-41.316 0,-259.2106 0,-290.99575 l 147.72,0.47656 c 0,30.18749 0.26,217.16819 0.26,250.56219 0,33.364 9.79,52.231 74.65,52.231 63.85,0 53.89,-0.34 61.08,-0.293 61.07,0.402 95.31,-2.172 126.85,-33.613 C 2492.84,244.574 2709.14,27.9883 2734,1.83594 l 169.98,0 C 2862.29,46.4648 2594.86,326.504 2577.26,345.512"
         style="fill:#231f20;fill-opacity:1;fill-rule:nonzero;stroke:none"
         id="path3026" /><path
         d="m 3819.59,932.965 c -22.43,-24.735 -230.6,-273.602 -257.05,-299.672 -43.97,-43.367 -122.81,-34.133 -186.65,-34.133 -64.84,0 -75.93,49.094 -75.93,82.457 0,33.391 -0.25,221.16 -0.25,251.348 l -148.27,0 c 0,-31.785 0.55,-292.488 0.55,-333.805 0,-32.844 15.41,-107.164 147.44,-107.164 24.83,0 251.77,0.371 254.36,0.391 32.73,0.234 81.95,19.925 138.51,86.789 16.73,19.773 258.46,310.59 297.72,353.789 l -170.43,0"
         style="fill:#231f20;fill-opacity:1;fill-rule:nonzero;stroke:none"
         id="path3028" /><path
         d="m 3673.65,345.199 c -31.13,33.633 -59.49,66.914 -157.38,66.914 0,0 -65.58,0 -216.84,0 -108.49,0 -147.08,-78.691 -147.08,-120.027 0,-41.32 0,-259.2071 0,-291.00006 l 147.71,0.48437 c 0,30.17969 0.27,217.16369 0.27,250.56269 0,33.359 9.79,52.226 74.65,52.226 63.84,0 53.88,-0.339 61.08,-0.293 61.06,0.403 95.3,-2.168 126.85,-33.613 26.31,-26.191 242.62,-242.785 267.48,-268.94128 l 169.98,0 C 3958.68,46.1406 3691.25,326.188 3673.65,345.199"
         style="fill:#231f20;fill-opacity:1;fill-rule:nonzero;stroke:none"
         id="path3030" /></g></g></svg>
