<?xml version="1.0" encoding="UTF-8" standalone="no"?>
<!-- Created with Inkscape (http://www.inkscape.org/) -->

<svg
   xmlns:dc="http://purl.org/dc/elements/1.1/"
   xmlns:cc="http://creativecommons.org/ns#"
   xmlns:rdf="http://www.w3.org/1999/02/22-rdf-syntax-ns#"
   xmlns:svg="http://www.w3.org/2000/svg"
   xmlns="http://www.w3.org/2000/svg"
   xmlns:sodipodi="http://sodipodi.sourceforge.net/DTD/sodipodi-0.dtd"
   xmlns:inkscape="http://www.inkscape.org/namespaces/inkscape"
   id="svg3412"
   version="1.1"
   inkscape:version="0.48.3.1 r9886"
   viewBox="0 0 522.74316 122.32015"
   width="100%"
   height="100%"
   x="0px"
   y="0px"
   sodipodi:docname="bekk.png">
  <metadata
     id="metadata3418">
    <rdf:RDF>
      <cc:Work
         rdf:about="">
        <dc:format>image/svg+xml</dc:format>
        <dc:type
           rdf:resource="http://purl.org/dc/dcmitype/StillImage" />
        <dc:title></dc:title>
      </cc:Work>
    </rdf:RDF>
  </metadata>
  <defs
     id="defs3416" />
  <sodipodi:namedview
     pagecolor="#ffffff"
     bordercolor="#666666"
     borderopacity="1"
     objecttolerance="10"
     gridtolerance="10"
     guidetolerance="10"
     inkscape:pageopacity="0"
     inkscape:pageshadow="2"
     inkscape:window-width="1855"
     inkscape:window-height="1056"
     id="namedview3414"
     showgrid="false"
     fit-margin-top="0"
     fit-margin-left="0"
     fit-margin-right="0"
     fit-margin-bottom="0"
     inkscape:zoom="0.50519031"
     inkscape:cx="-43.819933"
     inkscape:cy="61.16371"
     inkscape:window-x="65"
     inkscape:window-y="24"
     inkscape:window-maximized="1"
     inkscape:current-layer="svg3412" />
  <path
     style="fill:#000000"
     d="m 0,115.30343 0,-7.01673 30.75,-0.31513 c 30.674626,-0.31436 30.760905,-0.32126 35.198879,-2.81513 2.446883,-1.375 5.334817,-4.02073 6.41763,-5.879409 4.132391,-7.09335 1.236841,-18.84186 -6.62256,-26.87059 l -4.160365,-4.25 8.351065,0 8.351061,0 4.75921,4.759208 c 3.62098,3.620973 5.17073,6.174801 6.47988,10.678114 3.43332,11.810208 -0.48557,25.719067 -8.85024,31.411157 -9.105939,6.19651 -11.023607,6.47611 -47.42456,6.91465 L 0,122.32015 0,115.30343 z m 143.5,4.96297 c -4.84098,-2.23426 -7.8876,-5.40003 -9.95227,-10.34149 C 132.33473,107.02179 132,102.10462 132,87.188561 l 0,-19.03212 9.5,0 9.5,0 0.002,15.25 c 10e-4,12.52059 0.31449,15.87393 1.75,18.736089 2.91423,5.81044 3.90265,5.98291 34.38182,5.99917 l 27.63337,0.0147 0.60297,2.25 c 0.33164,1.2375 0.60913,4.3875 0.61664,7 l 0.0132,4.75004 -34.25,-0.022 c -31.15915,-0.02 -34.61097,-0.18856 -38.25,-1.86808 z M 268,101.60678 c 0,-22.512353 0.31274,-24.011371 6.00955,-28.804923 4.97851,-4.189139 9.56658,-4.852743 30.92315,-4.472621 16.40211,0.291938 20.15999,0.641482 23.23134,2.160889 3.1932,1.579693 48.72803,48.087215 49.66929,50.730305 0.19314,0.54234 -3.99893,0.93601 -9.9673,0.93601 l -10.30065,0 -19.03269,-18.90429 C 316.94646,81.811541 317.57425,82.171053 301.70455,82.162018 c -9.07057,-0.0052 -9.9771,0.176066 -12.25,2.448968 C 287.03501,87.030521 287,87.315811 287,104.61099 l 0,17.54545 -9.5,0 -9.5,0 0,-20.54966 z m 144,-0.30246 c 0,-20.033141 0.0893,-20.984631 2.2738,-24.226199 5.47155,-8.119236 10.53148,-9.319575 36.86287,-8.744777 14.992,0.327267 17.87812,0.652678 21.1327,2.382719 2.07315,1.102028 14.27786,13.014442 27.12157,26.472028 l 23.35221,24.468349 -10.67403,0.2809 -10.67404,0.28091 -19.28944,-19.00928 C 467.45225,88.768421 461.937,83.955498 459.1581,83.183646 c -2.01196,-0.558828 -7.85018,-1.018561 -12.97384,-1.021628 -8.83879,-0.0053 -12.76643,0.919249 -14.41895,3.394127 -0.40408,0.605166 -0.74158,9.087796 -0.75,18.850295 l -0.0153,17.75 -9.5,0 -9.5,0 0,-20.85212 z M 0.75,57.575227 C 0.3375,57.161561 0,53.973108 0,50.489774 l 0,-6.333333 25.318499,0 c 29.187932,0 33.479449,-0.727971 38.587383,-6.545587 C 66.615432,34.524847 67,33.35497 67,28.19837 c 0,-4.861449 -0.447244,-6.419998 -2.564276,-8.935947 -1.410352,-1.676108 -4.222852,-3.508125 -6.25,-4.071149 C 56.096938,14.611131 42.909848,14.165179 27.75,14.162018 L 1,14.156441 1,7.078221 1,0 30.75,0.365043 C 59.155347,0.713587 60.76698,0.836019 66.40685,3.073798 78.74868,7.970769 84.92697,18.326852 83.652,31.980202 82.54649,43.81881 77.16354,50.953319 66,55.375986 60.882738,57.403295 58.447131,57.5818 31,57.941135 14.775,58.153552 1.1625,57.988895 0.75,57.575227 z M 146.91654,57.23269 C 141.25922,56.116097 136.35109,52.513143 134.07095,47.803008 132.26771,44.078015 132,41.647077 132,28.998 c 0,-13.262292 0.202,-14.910684 2.32022,-18.934275 1.55419,-2.952203 3.78273,-5.232668 6.75,-6.907284 l 4.42978,-2.5 34.75,-0.298237 34.75,-0.298237 0,7.048237 0,7.048237 -30,0 c -36.67755,0 -34,-1.166222 -34,14.80887 0,7.752325 0.40109,11.357786 1.41836,12.75 1.34315,1.838193 3.06898,1.956568 32.54475,2.232242 l 31.1264,0.291113 -0.29476,6.708887 -0.29475,6.708888 -32.5,0.14176 c -17.875,0.07797 -34.11256,-0.176512 -36.08346,-0.565511 z M 279.7334,57.068169 C 277.66178,56.580115 274.82628,55.433493 273.43229,54.52012 268.36171,51.19775 268,49.145972 268,23.706101 l 0,-23.54966 9.5,0 9.5,0 0,17.350777 c 0,19.189608 0.75645,22.9548 5.05876,25.179608 3.42479,1.771031 16.07595,1.968095 22.50009,0.35048 5.33979,-1.344575 6.86303,-2.832189 26.2447,-25.630865 l 14.66461,-17.25 10.76592,0 c 9.72133,0 12.62795,0.731166 9.81579,2.469179 -0.52257,0.322966 -9.92886,11.283031 -20.90286,24.355699 -19.06702,22.713388 -24.17042,27.759348 -30.46211,30.119234 -3.39833,1.274645 -39.51403,1.248626 -44.9515,-0.03238 z m 141.78974,-0.705498 c -3.49056,-1.196679 -5.65571,-2.720979 -7.25,-5.104113 C 412.06746,47.96151 412,47.152838 412,24.008558 l 0,-23.852117 9.5,0 9.5,0 0,17.952947 c 0,19.513177 0.57357,22.258057 5.14503,24.622049 3.30927,1.71129 16.5503,1.904536 22.35497,0.326259 5.18412,-1.40955 6.75109,-2.937798 25.27598,-24.651255 l 15.57003,-18.25 10.88601,0 c 8.26191,0 10.70576,0.291658 10.13823,1.209935 -1.88056,3.042822 -38.95329,46.664267 -42.20877,49.664748 -7.14546,6.585769 -9.37944,7.083881 -31.66148,7.059585 -16.1991,-0.01766 -20.94583,-0.346069 -24.97686,-1.728038 z"
     id="path4192"
     inkscape:connector-curvature="0" />
</svg>
