<?xml version="1.0" encoding="UTF-8" standalone="no"?>
<!-- Created with Inkscape (http://www.inkscape.org/) -->

<svg
   xmlns:dc="http://purl.org/dc/elements/1.1/"
   xmlns:cc="http://creativecommons.org/ns#"
   xmlns:rdf="http://www.w3.org/1999/02/22-rdf-syntax-ns#"
   xmlns:svg="http://www.w3.org/2000/svg"
   xmlns="http://www.w3.org/2000/svg"
   xmlns:sodipodi="http://sodipodi.sourceforge.net/DTD/sodipodi-0.dtd"
   xmlns:inkscape="http://www.inkscape.org/namespaces/inkscape"
   id="svg3586"
   version="1.1"
   inkscape:version="0.48.3.1 r9886"
   viewBox="0 0 174.8625 114.1625"
   width="100%"
   height="100%"
   x="0px"
   y="0px"
   xml:space="preserve"
   sodipodi:docname="Hovedlogo_u_payoff_CMYK.eps"><metadata
     id="metadata3592"><rdf:RDF><cc:Work
         rdf:about=""><dc:format>image/svg+xml</dc:format><dc:type
           rdf:resource="http://purl.org/dc/dcmitype/StillImage" /><dc:title></dc:title></cc:Work></rdf:RDF></metadata><defs
     id="defs3590"><clipPath
       clipPathUnits="userSpaceOnUse"
       id="clipPath3602"><path
         d="m 0,0 1398.91,0 0,913 L 0,913 0,0 z"
         id="path3604" /></clipPath></defs><sodipodi:namedview
     pagecolor="#ffffff"
     bordercolor="#666666"
     borderopacity="1"
     objecttolerance="10"
     gridtolerance="10"
     guidetolerance="10"
     inkscape:pageopacity="0"
     inkscape:pageshadow="2"
     inkscape:window-width="640"
     inkscape:window-height="480"
     id="namedview3588"
     showgrid="false"
     inkscape:zoom="2.0644792"
     inkscape:cx="87.431252"
     inkscape:cy="57.081249"
     inkscape:window-x="65"
     inkscape:window-y="24"
     inkscape:window-maximized="0"
     inkscape:current-layer="g3594" /><g
     id="g3594"
     inkscape:groupmode="layer"
     inkscape:label="ink_ext_XXXXXX"
     transform="matrix(1.25,0,0,-1.25,0,114.1625)"><g
       id="g3596"
       transform="scale(0.1,0.1)"><g
         id="g3598"><g
           id="g3600"
           clip-path="url(#clipPath3602)"><path
             d="m 92.1094,23.3398 c 44.1526,0 52.0236,37.0508 52.0236,69.2774 0,31.9728 -10.403,65.2148 -57.1018,65.2148 l -60.1367,0 0,-134.4922 65.2149,0 z M 0,181.191 l 91.8555,0 c 54.3045,0 79.1675,-35.527 79.1675,-88.066 C 171.023,42.6367 148.953,0 93.3789,0 L 0,0 0,181.191"
             style="fill:#80cc28;fill-opacity:1;fill-rule:nonzero;stroke:none"
             id="path3606" /><path
             d="m 300,156.309 -34.004,-80.1762 68.77,0 L 300,156.309 z m 44.656,-103.516 -88.804,0 L 232.754,0 l -28.926,0 81.961,181.191 30.703,0 L 398.457,0 367.754,0 344.656,52.793"
             style="fill:#80cc28;fill-opacity:1;fill-rule:nonzero;stroke:none"
             id="path3608" /><path
             d="m 440.391,181.191 26.894,0 0,-157.8512 110.125,0 0,-23.3398 -137.019,0 0,181.191"
             style="fill:#80cc28;fill-opacity:1;fill-rule:nonzero;stroke:none"
             id="path3610" /><path
             d="m 713.734,23.3398 c 44.161,0 52.032,37.0508 52.032,69.2774 0,31.9728 -10.411,65.2148 -57.11,65.2148 l -60.133,0 0,-134.4922 65.211,0 z m -92.101,157.8512 91.847,0 c 54.317,0 79.219,-35.527 79.219,-88.066 C 792.699,42.6367 770.59,0 715.004,0 l -93.371,0 0,181.191"
             style="fill:#80cc28;fill-opacity:1;fill-rule:nonzero;stroke:none"
             id="path3612" /><path
             d="m 921.832,156.309 -34.004,-80.1762 68.77,0 -34.766,80.1762 z m 44.656,-103.516 -88.808,0 L 854.566,0 825.59,0 l 82.031,181.191 30.703,0 L 1020.29,0 989.586,0 966.488,52.793"
             style="fill:#80cc28;fill-opacity:1;fill-rule:nonzero;stroke:none"
             id="path3614" /><path
             d="m 1096.55,157.832 -68.52,0 0,23.359 163.93,0 0,-23.359 -68.52,0 0,-157.832 -26.89,0 0,157.832"
             style="fill:#80cc28;fill-opacity:1;fill-rule:nonzero;stroke:none"
             id="path3616" /><path
             d="m 1300.45,156.309 -34,-80.1762 68.77,0 -34.77,80.1762 z m 44.66,-103.516 -88.81,0 L 1233.21,0 l -28.93,0 81.97,181.191 30.7,0 L 1398.91,0 l -30.7,0 -23.1,52.793"
             style="fill:#80cc28;fill-opacity:1;fill-rule:nonzero;stroke:none"
             id="path3618" /><path
             d="m 832.562,612.578 -271.394,0 c -9.719,-0.023 -17.598,-7.887 -17.598,-17.64 l 0,-271.442 c 0,-9.707 7.879,-17.598 17.598,-17.617 l 271.394,0 c 9.727,0.019 17.618,7.91 17.637,17.617 l 0,271.442 c -0.019,9.734 -7.91,17.617 -17.637,17.64"
             style="fill:#80cc28;fill-opacity:1;fill-rule:nonzero;stroke:none"
             id="path3620" /><path
             d="m 850.199,323.496 c -0.019,-9.707 -7.91,-17.598 -17.637,-17.617 l -271.394,0 c -9.719,0.019 -17.598,7.91 -17.598,17.617 l 0,271.442 c 0,9.753 7.879,17.617 17.598,17.64 l 271.394,0 c 9.727,-0.023 17.618,-7.906 17.637,-17.64 l 0,-271.442 z m -17.637,319.074 -271.394,0 c -26.309,0 -47.613,-21.328 -47.613,-47.632 l 0,-271.442 c 0,-26.289 21.304,-47.598 47.613,-47.637 l 271.394,0 c 26.309,0.039 47.618,21.329 47.618,47.637 l 0,271.442 c 0,26.304 -21.309,47.632 -47.618,47.632"
             style="fill:#0fab4b;fill-opacity:1;fill-rule:nonzero;stroke:none"
             id="path3622" /><path
             d="m 828.344,541.906 c 0,-5.812 -4.707,-10.527 -10.528,-10.527 l -41.004,0 c -5.8,0 -10.519,4.715 -10.519,10.527 l 0,41.004 c 0,5.813 4.719,10.528 10.519,10.528 l 41.004,0 c 5.821,0 10.528,-4.715 10.528,-10.528 l 0,-41.004"
             style="fill:#ffffff;fill-opacity:1;fill-rule:nonzero;stroke:none"
             id="path3624" /><path
             d="m 828.344,461.836 c 0,-5.809 -4.707,-10.527 -10.528,-10.527 l -41.004,0 c -5.8,0 -10.519,4.718 -10.519,10.527 l 0,41.008 c 0,5.816 4.719,10.523 10.519,10.523 l 41.004,0 c 5.821,0 10.528,-4.707 10.528,-10.523 l 0,-41.008"
             style="fill:#ffffff;fill-opacity:1;fill-rule:nonzero;stroke:none"
             id="path3626" /><path
             d="m 747.582,541.906 c 0,-5.812 -4.715,-10.527 -10.527,-10.527 l -40.996,0 c -5.809,0 -10.528,4.715 -10.528,10.527 l 0,41.004 c 0,5.813 4.719,10.528 10.528,10.528 l 40.996,0 c 5.812,0 10.527,-4.715 10.527,-10.528 l 0,-41.004"
             style="fill:#ffffff;fill-opacity:1;fill-rule:nonzero;stroke:none"
             id="path3628" /><path
             d="m 773.441,744.605 c -1.25,-0.019 -2.546,-0.207 -3.828,-0.617 l -65.644,-20.879 c -5.43,-1.703 -8.84,-6.703 -8.864,-12.074 0,-1.25 0.207,-2.547 0.618,-3.844 l 20.843,-65.652 c 1.711,-5.371 6.731,-8.848 12.102,-8.848 1.277,0 2.566,0.184 3.836,0.602 l 65.644,20.852 c 5.391,1.73 8.848,6.75 8.848,12.097 0,1.293 -0.195,2.567 -0.586,3.848 l -20.859,65.652 c -1.719,5.406 -6.739,8.844 -12.11,8.863"
             style="fill:#da4219;fill-opacity:1;fill-rule:nonzero;stroke:none"
             id="path3630" /><path
             d="m 728.668,632.691 c -5.371,0 -10.391,3.477 -12.102,8.848 l -20.843,65.652 c -0.411,1.297 -0.618,2.594 -0.618,3.844 0.024,5.371 3.434,10.371 8.864,12.074 l 65.644,20.879 c 1.282,0.41 2.578,0.598 3.828,0.617 5.371,-0.019 10.391,-3.457 12.11,-8.863 L 806.41,670.09 c 0.391,-1.281 0.586,-2.555 0.586,-3.848 0,-5.347 -3.457,-10.367 -8.848,-12.097 l -65.644,-20.852 c -1.27,-0.418 -2.559,-0.602 -3.836,-0.602 z m 87.273,40.418 -20.859,65.676 c -3.105,9.649 -12.012,15.817 -21.641,15.817 -2.285,0 -4.609,-0.368 -6.875,-1.09 l -65.621,-20.875 c -9.66,-3.047 -15.832,-11.973 -15.832,-21.602 0,-2.281 0.348,-4.605 1.086,-6.89 l 20.848,-65.653 c 3.086,-9.625 11.973,-15.797 21.621,-15.797 2.273,0 4.578,0.332 6.863,1.051 l 65.664,20.879 c 9.61,3.105 15.782,11.988 15.782,21.617 0.019,2.238 -0.293,4.563 -1.036,6.867"
             style="fill:#ffffff;fill-opacity:1;fill-rule:nonzero;stroke:none"
             id="path3632" /><path
             d="m 1023.15,654.504 -100.451,23.988 c -1.699,0.414 -3.34,0.602 -5,0.602 -9.687,0 -18.535,-6.645 -20.879,-16.524 L 872.836,562.094 c -0.43,-1.606 -0.586,-3.274 -0.606,-4.949 0.02,-9.696 6.661,-18.54 16.504,-20.875 l 100.391,-23.989 c 1.68,-0.39 3.379,-0.597 5.02,-0.597 9.725,0.019 18.575,6.64 20.915,16.523 l 23.97,100.309 c 0.39,1.773 0.6,3.461 0.6,5.093 -0.02,9.715 -6.64,18.543 -16.48,20.895"
             style="fill:#80cc28;fill-opacity:1;fill-rule:nonzero;stroke:none"
             id="path3634" /><path
             d="m 1039.03,628.516 -23.97,-100.309 c -2.34,-9.883 -11.19,-16.504 -20.915,-16.523 -1.641,0 -3.34,0.207 -5.02,0.597 L 888.734,536.27 c -9.843,2.335 -16.484,11.179 -16.504,20.875 0.02,1.675 0.176,3.343 0.606,4.949 L 896.82,662.57 c 2.344,9.879 11.192,16.524 20.879,16.524 1.66,0 3.301,-0.188 5,-0.602 l 100.451,-23.988 c 9.84,-2.352 16.46,-11.18 16.48,-20.895 0,-1.632 -0.21,-3.32 -0.6,-5.093 z m -13.58,35.703 -100.407,23.988 c -2.481,0.598 -4.941,0.891 -7.344,0.891 -14.258,0 -27.148,-9.739 -30.605,-24.219 L 863.129,564.488 c -0.625,-2.433 -0.899,-4.926 -0.899,-7.343 0,-14.274 9.747,-27.145 24.18,-30.614 l 100.41,-23.988 c 2.442,-0.555 4.883,-0.844 7.325,-0.844 14.255,0 27.165,9.699 30.625,24.176 l 24,100.391 c 0.55,2.476 0.84,4.91 0.84,7.343 0.02,14.254 -9.68,27.145 -24.16,30.61"
             style="fill:#ffffff;fill-opacity:1;fill-rule:nonzero;stroke:none"
             id="path3636" /><path
             d="m 1043.68,772.59 -78.422,116.883 c -6.016,8.957 -15.84,13.781 -25.879,13.781 -5.977,0 -11.953,-1.711 -17.305,-5.281 L 805.199,819.586 c -8.984,-6.008 -13.789,-15.844 -13.808,-25.895 0.019,-5.961 1.718,-11.98 5.312,-17.328 l 78.379,-116.859 c 5.996,-8.957 15.82,-13.781 25.879,-13.781 5.957,0 11.992,1.687 17.324,5.277 l 116.875,78.395 c 8.95,6.039 13.77,15.859 13.79,25.91 -0.02,5.961 -1.7,11.961 -5.27,17.285"
             style="fill:#0492d2;fill-opacity:1;fill-rule:nonzero;stroke:none"
             id="path3638" /><path
             d="m 900.961,645.723 c -10.059,0 -19.883,4.824 -25.879,13.781 l -78.379,116.859 c -3.594,5.348 -5.293,11.367 -5.312,17.328 0.019,10.051 4.824,19.887 13.808,25.895 l 116.875,78.387 c 5.352,3.57 11.328,5.281 17.305,5.281 10.039,0 19.863,-4.824 25.879,-13.781 L 1043.68,772.59 c 3.57,-5.324 5.25,-11.324 5.27,-17.285 -0.02,-10.051 -4.84,-19.871 -13.79,-25.91 L 918.285,651 c -5.332,-3.59 -11.367,-5.277 -17.324,-5.277 z M 1051.98,778.16 973.578,895.043 c -7.969,11.824 -20.976,18.219 -34.199,18.219 -7.871,0 -15.859,-2.27 -22.871,-6.973 L 799.613,827.875 c -11.836,-7.918 -18.222,-20.961 -18.203,-34.184 -0.019,-7.879 2.246,-15.863 6.973,-22.894 L 866.781,653.93 c 7.891,-11.801 20.938,-18.211 34.18,-18.211 7.871,0 15.859,2.265 22.891,6.972 l 116.898,78.407 c 11.79,7.945 18.2,20.964 18.18,34.207 0.02,7.859 -2.25,15.843 -6.95,22.855"
             style="fill:#ffffff;fill-opacity:1;fill-rule:nonzero;stroke:none"
             id="path3640" /></g></g></g></g></svg>
