<?xml version="1.0" encoding="UTF-8" standalone="no"?>
<!-- Created with Inkscape (http://www.inkscape.org/) -->

<svg
   xmlns:dc="http://purl.org/dc/elements/1.1/"
   xmlns:cc="http://creativecommons.org/ns#"
   xmlns:rdf="http://www.w3.org/1999/02/22-rdf-syntax-ns#"
   xmlns:svg="http://www.w3.org/2000/svg"
   xmlns="http://www.w3.org/2000/svg"
   xmlns:sodipodi="http://sodipodi.sourceforge.net/DTD/sodipodi-0.dtd"
   xmlns:inkscape="http://www.inkscape.org/namespaces/inkscape"
   id="svg3771"
   version="1.1"
   inkscape:version="0.48.3.1 r9886"
   viewBox="0 0 619.22375 171.70876"
   width="100%"
   height="100%"
   x="0px"
   y="0px"
   xml:space="preserve"
   sodipodi:docname="finn.svg"><metadata
     id="metadata3777"><rdf:RDF><cc:Work
         rdf:about=""><dc:format>image/svg+xml</dc:format><dc:type
           rdf:resource="http://purl.org/dc/dcmitype/StillImage" /><dc:title /></cc:Work></rdf:RDF></metadata><defs
     id="defs3775" /><sodipodi:namedview
     pagecolor="#ffffff"
     bordercolor="#666666"
     borderopacity="1"
     objecttolerance="10"
     gridtolerance="10"
     guidetolerance="10"
     inkscape:pageopacity="0"
     inkscape:pageshadow="2"
     inkscape:window-width="1855"
     inkscape:window-height="1056"
     id="namedview3773"
     showgrid="false"
     inkscape:zoom="0.58298682"
     inkscape:cx="309.61249"
     inkscape:cy="-383.12032"
     inkscape:window-x="65"
     inkscape:window-y="24"
     inkscape:window-maximized="1"
     inkscape:current-layer="g3779"
     fit-margin-top="0"
     fit-margin-left="0"
     fit-margin-right="0"
     fit-margin-bottom="0" /><g
     id="g3779"
     inkscape:groupmode="layer"
     inkscape:label="ink_ext_XXXXXX"
     transform="matrix(1.25,0,0,-1.25,0,171.70875)"><g
       id="g3781"
       transform="scale(0.1,0.1)"><path
         d="m 4524.92,0 c 236.86,0 428.87,191.988 428.87,428.902 l 0,515.875 c 0,236.913 -192.01,428.893 -428.87,428.893 l -2561.87,0 c -236.86,0 -428.87,-191.98 -428.87,-428.893 L 1534.18,0 4524.92,0"
         style="fill:#00adef;fill-opacity:1;fill-rule:nonzero;stroke:none"
         id="path3783"
         inkscape:connector-curvature="0" /><path
         d="m 1373.68,0 0,944.777 c 0,236.913 -192.01,428.893 -428.868,428.893 l -515.945,0 C 192.012,1373.67 0,1181.69 0,944.777 L 0,428.902 C 0,191.988 192.012,0 428.867,0 l 944.813,0"
         style="fill:#293d9b;fill-opacity:1;fill-rule:nonzero;stroke:none"
         id="path3785"
         inkscape:connector-curvature="0" /><path
         d="m 3041.39,248.965 196.223,0 0,532.109 -196.223,0 0,-532.109 z"
         style="fill:#ffffff;fill-opacity:1;fill-rule:nonzero;stroke:none"
         id="path3787"
         inkscape:connector-curvature="0" /><path
         d="m 2468.96,671.016 c 0,55.293 38.14,110.058 130.69,110.058 l 284.21,0 0,-156.133 c -29.15,0 -186.13,0 -186.13,0 -24.97,0 -32.55,-9.921 -32.55,-26.64 l 0,-74.719 218.68,0 0,-156.102 -218.68,0 0,-118.515 -196.22,0 0,422.051"
         style="fill:#ffffff;fill-opacity:1;fill-rule:nonzero;stroke:none"
         id="path3789"
         inkscape:connector-curvature="0" /><path
         d="m 3591.48,622.844 104.01,0 c 24.08,0 32.45,-8.321 32.45,-32.356 l -0.08,-341.523 196.32,0 0,419.961 c 0,55.273 -38.14,110.039 -130.68,110.039 l -398.25,0 -0.09,-530 196.32,0 0,373.879"
         style="fill:#ffffff;fill-opacity:1;fill-rule:nonzero;stroke:none"
         id="path3791"
         inkscape:connector-curvature="0" /><path
         d="m 4267.04,622.844 104.01,0 c 24.08,0 32.45,-8.321 32.45,-32.356 l -0.09,-341.523 196.33,0 0,419.961 c 0,55.273 -38.15,110.039 -130.7,110.039 l -398.23,0 -0.1,-530 196.33,0 0,373.879"
         style="fill:#ffffff;fill-opacity:1;fill-rule:nonzero;stroke:none"
         id="path3793"
         inkscape:connector-curvature="0" /></g></g></svg>
