<?xml version="1.0" encoding="UTF-8" standalone="no"?>
<!-- Created with Inkscape (http://www.inkscape.org/) -->

<svg
   xmlns:dc="http://purl.org/dc/elements/1.1/"
   xmlns:cc="http://creativecommons.org/ns#"
   xmlns:rdf="http://www.w3.org/1999/02/22-rdf-syntax-ns#"
   xmlns:svg="http://www.w3.org/2000/svg"
   xmlns="http://www.w3.org/2000/svg"
   xmlns:sodipodi="http://sodipodi.sourceforge.net/DTD/sodipodi-0.dtd"
   xmlns:inkscape="http://www.inkscape.org/namespaces/inkscape"
   id="svg3116"
   version="1.1"
   inkscape:version="0.48.4 r9939"
   viewBox="0 0 391.2 192.0125"
   width="100%"
   height="100%"
   x="0px"
   y="0px"
   xml:space="preserve"
   sodipodi:docname="Logo_PO_r d.eps"><metadata
     id="metadata3122"><rdf:RDF><cc:Work
         rdf:about=""><dc:format>image/svg+xml</dc:format><dc:type
           rdf:resource="http://purl.org/dc/dcmitype/StillImage" /><dc:title></dc:title></cc:Work></rdf:RDF></metadata><defs
     id="defs3120"><clipPath
       clipPathUnits="userSpaceOnUse"
       id="clipPath3132"><path
         d="m 0,0 3129.6,0 0,1536 L 0,1536 0,0 z"
         id="path3134" /></clipPath></defs><sodipodi:namedview
     pagecolor="#ffffff"
     bordercolor="#666666"
     borderopacity="1"
     objecttolerance="10"
     gridtolerance="10"
     guidetolerance="10"
     inkscape:pageopacity="0"
     inkscape:pageshadow="2"
     inkscape:window-width="640"
     inkscape:window-height="480"
     id="namedview3118"
     showgrid="false"
     inkscape:zoom="0.92791408"
     inkscape:cx="195.60001"
     inkscape:cy="96.006248"
     inkscape:window-x="0"
     inkscape:window-y="24"
     inkscape:window-maximized="0"
     inkscape:current-layer="g3124" /><g
     id="g3124"
     inkscape:groupmode="layer"
     inkscape:label="ink_ext_XXXXXX"
     transform="matrix(1.25,0,0,-1.25,0,192.0125)"><g
       id="g3126"
       transform="scale(0.1,0.1)"><g
         id="g3128"><g
           id="g3130"
           clip-path="url(#clipPath3132)"><path
             d="m 1176.69,707.133 c -3.63,8.586 -22.76,82.211 33.99,175.316 47.41,78.028 129.91,124.421 162.45,96.512 22.29,-19.094 -1.78,-84.305 -73.08,-166.445 -43.05,-49.532 -82.72,-82.371 -123.36,-105.383 m 1933.06,18.715 c -22.69,3.554 -35.9,-28.668 -89.86,-81.012 -30.14,-29.414 -62.23,-59.492 -114.44,-81.504 -76.5,-32.504 -89.82,11.152 -82.11,74.18 8.21,66.73 36.98,152.445 46.59,198.179 3.3,15.821 3.82,37.106 -10.04,58.461 -15.59,24.039 -52.72,36.965 -72.01,14.18 -28.32,-33.578 -40.82,-58.09 -132.07,-172.465 C 2575.43,635.07 2472,552.004 2413.75,597.18 c -31.79,24.57 -35.58,74.375 -0.27,143.433 38.46,75.293 127.11,161.766 206.08,219.254 103.37,75.163 160.27,87.373 171.28,90.343 13.93,3.68 24.79,4.14 29.42,-1.57 11.56,-14.35 -19.14,-31.23 -9.24,-64.007 6.84,-22.809 30.76,-32.695 44.92,-33.582 20.2,-1.606 68.24,10.949 78.44,73.469 10.18,62.5 -47.6,173.02 -313.4,71.38 -203.4,-77.75 -409.45,-275.806 -445.29,-436.845 -39.81,-25.586 -89.28,-46.973 -139.77,-43.145 -93.84,7.207 -85.88,121.637 -39.63,209.547 46.86,88.844 129.4,150.27 154.95,173.887 35.68,32.986 70.17,37.436 49.33,95.356 -14.55,40.36 -37.52,42.75 -75.84,31.72 -92.32,-26.69 -200.39,-46.68 -270.04,-53.87 -2.34,44.27 -29.39,87.41 -88.65,87.26 -61.19,-0.09 -124.61,-56.98 -135.92,-128.37 -12.15,-77.542 25.49,-117.139 59.57,-131.612 -70.33,-129.957 -219.94,-289.894 -364.51,-300.812 -40.76,-3.028 -78.16,11.113 -97.36,33.457 96.59,55.429 192.08,129.8 245.68,241.011 70.5,146.296 -0.21,232.256 -102.01,232.256 -114.38,0 -323.57,-116.045 -387.295,-315.568 -17.101,-53.953 -21.386,-122.055 -4.933,-184.399 -59.766,-20.859 -124.832,-34.687 -186.133,-34.687 -90.508,0 -92.098,69.648 -70.117,116.816 15.449,33.082 139.668,298.305 225.031,478.648 274.517,48.61 642.407,113.32 709.887,125.59 40.96,7.54 90.49,10.13 87.43,44.78 -2.23,26.38 -35.26,25.63 -62.56,24.48 l -658.23,-33.46 c 70,169.92 -94.215,235.67 -121.812,197.85 -10.996,-14.92 -54.656,-102.18 -106.875,-209.43 l -121.238,-6.01 c -53.743,-4.15 -141.516,-12.83 -153.938,-100.53 -9.707,-68.64 61.211,-108.99 141.367,-94.28 10.488,2 24.121,4.47 40.586,7.4 C 645.727,1003.68 594.828,895.852 578.941,860.965 539.75,774.93 498.871,697.355 489.613,624.68 431.637,590.305 368.18,564.719 313.246,566.867 c -90.527,3.418 -87.801,74.668 -68.601,116.699 13.777,30.153 37.488,83.063 68.308,149.274 41.68,89.566 1.66,158.398 -63.359,181.48 -44.121,15.63 -84.637,16.55 -102.246,0.83 C 124.73,994.949 141.898,944.215 123.07,902.918 82.8672,820.242 52.0352,748.629 31.3242,704.398 -13.6875,609.445 -5.99219,527.102 41.2734,474.719 c 33.6328,-37.469 89.8636,-61.61 165.7226,-61.61 90.5,0 202.266,50 294.524,111.321 3.035,-7.391 6.66,-14.711 10.761,-21.961 28.875,-50.278 90.047,-85.098 174.629,-85.098 92.735,0 226.219,45.738 331.09,104.809 38.16,-52.481 101.02,-89.629 196.2,-91.141 274.81,-4.141 491.96,256.961 578.23,463.832 76.03,10.867 170.56,48.512 170.56,48.512 0,0 -244.1,-225.172 -189.76,-402.063 21.54,-70.269 94.69,-128.769 199.35,-118.5 84.03,8.141 156.66,55.809 212.85,108.418 37.25,-92.777 133.17,-107.367 197.68,-98.09 160.61,23.243 267.52,181.961 267.52,181.961 0,0 -16.72,-61.054 5.68,-114.16 16.19,-38.519 54.89,-74.199 127.03,-74.199 162.64,0 290.59,166.055 316.94,206.836 42.65,66.602 32.38,88.726 9.47,92.262"
             style="fill:#ed1c24;fill-opacity:1;fill-rule:evenodd;stroke:none"
             id="path3136" /><path
             d="m 296.84,1080.45 c 67.687,0 134.629,52.8 149.355,118.04 14.805,65.25 -28.133,118.13 -95.84,118.13 -67.714,0 -134.746,-52.88 -149.453,-118.13 -14.824,-65.24 28.203,-118.04 95.938,-118.04"
             style="fill:#ed1c24;fill-opacity:1;fill-rule:evenodd;stroke:none"
             id="path3138" /><path
             d="m 114.742,38.4609 -17.2264,0 L 19.6875,206.41 20.918,3.07812 0,3.07812 0,233.789 l 28.3008,0 77.8282,-169.8007 77.824,169.8007 28.305,0 0,-230.71088 -20.918,0 L 192.566,206.41 114.742,38.4609"
             style="fill:#393536;fill-opacity:1;fill-rule:nonzero;stroke:none"
             id="path3140" /><path
             d="m 309.098,85.8203 76.593,0 L 347.551,201.801 309.098,85.8203 z M 258.34,3.07812 339.859,236.871 l 15.379,0 81.52,-233.79288 -23.688,0 -21.222,64.60158 -88.594,0 -21.227,-64.60158 -23.687,0"
             style="fill:#393536;fill-opacity:1;fill-rule:nonzero;stroke:none"
             id="path3142" /><path
             d="m 523.77,114.75 -19.997,-23.0781 0,-88.59378 -20.918,0 0,230.71088 20.918,0 0,-115.051 96.286,115.051 27.07,0 -89.824,-103.359 99.05,-127.35188 -27.375,0 L 523.77,114.75"
             style="fill:#393536;fill-opacity:1;fill-rule:nonzero;stroke:none"
             id="path3144" /><path
             d="m 804.273,113.52 -102.128,0 0,-91.0591 112.894,0 0,-19.38278 -133.812,0 0,230.71088 133.812,0 0,-19.367 -112.894,0 0,-81.531 102.128,0 0,-19.371"
             style="fill:#393536;fill-opacity:1;fill-rule:nonzero;stroke:none"
             id="path3146" /><path
             d="m 974.945,85.8203 76.595,0 L 1013.4,201.801 974.945,85.8203 z M 924.188,3.07812 1005.71,236.871 l 15.38,0 81.52,-233.79288 -23.69,0 -21.22,64.60158 -88.598,0 -21.227,-64.60158 -23.687,0"
             style="fill:#393536;fill-opacity:1;fill-rule:nonzero;stroke:none"
             id="path3148" /><path
             d="m 1237.29,22.4609 43.06,0 c 55.37,0 73.83,40.6094 73.83,95.9801 0,55.368 -18.46,95.981 -73.83,95.981 l -43.06,0 0,-191.9611 z m -20.92,-19.38278 0,230.71088 62.75,0 c 75.37,0 97.21,-49.828 97.21,-115.348 0,-65.5308 -21.84,-115.36288 -97.21,-115.36288 l -62.75,0"
             style="fill:#393536;fill-opacity:1;fill-rule:nonzero;stroke:none"
             id="path3150" /><path
             d="m 1439.35,3.07812 21.5273,0 0,230.711 -21.5273,0 0,-230.711 z"
             style="fill:#393536;fill-opacity:1;fill-rule:nonzero;stroke:none"
             id="path3152" /><path
             d="m 1648.5,113.52 -99.05,0 0,-110.44188 -20.92,0 0,230.71088 130.73,0 0,-19.367 -109.81,0 0,-81.531 99.05,0 0,-19.371"
             style="fill:#393536;fill-opacity:1;fill-rule:nonzero;stroke:none"
             id="path3154" /><path
             d="m 1833.03,113.52 -99.05,0 0,-110.44188 -20.92,0 0,230.71088 130.73,0 0,-19.367 -109.81,0 0,-81.531 99.05,0 0,-19.371"
             style="fill:#393536;fill-opacity:1;fill-rule:nonzero;stroke:none"
             id="path3156" /><path
             d="m 2020.63,113.52 -102.13,0 0,-91.0591 112.9,0 0,-19.38278 -133.82,0 0,230.71088 133.82,0 0,-19.367 -112.9,0 0,-81.531 102.13,0 0,-19.371"
             style="fill:#393536;fill-opacity:1;fill-rule:nonzero;stroke:none"
             id="path3158" /><path
             d="m 2109.18,123.359 56.92,0 c 40.92,0 47.07,20.922 47.07,45.532 0,24.609 -6.15,45.531 -47.07,45.531 l -56.92,0 0,-91.063 z m 0,-120.28088 -20.91,0 0,230.71088 72.29,0 c 57.53,0 75.36,-25.219 75.36,-64.898 0,-30.762 -10.76,-52.911 -42.44,-61.219 l 55.06,-104.59388 -24.3,0 -51.68,101.20288 c -3.39,-0.301 -6.77,-0.301 -10.15,-0.301 l -53.23,0 0,-100.90188"
             style="fill:#393536;fill-opacity:1;fill-rule:nonzero;stroke:none"
             id="path3160" /><path
             d="m 2417.68,113.52 -102.13,0 0,-91.0591 112.9,0 0,-19.38278 -133.82,0 0,230.71088 133.82,0 0,-19.367 -112.9,0 0,-81.531 102.13,0 0,-19.371"
             style="fill:#393536;fill-opacity:1;fill-rule:nonzero;stroke:none"
             id="path3162" /><path
             d="m 2629.59,3.07812 -123.97,187.96088 0.62,-187.96088 -20.92,0 0,230.71088 15.68,0 123.98,-187.9492 -0.62,187.9492 20.92,0 0,-230.71088 -15.69,0"
             style="fill:#393536;fill-opacity:1;fill-rule:nonzero;stroke:none"
             id="path3164" /><path
             d="m 2792.9,236.871 c 28.3,0 47.36,-5.23 59.98,-10.769 l 0,-20.614 c -21.23,8.614 -36.92,11.992 -59.98,11.992 -50.45,0 -68.61,-43.371 -68.61,-99.039 0,-55.6793 18.16,-99.0621 68.61,-99.0621 23.06,0 38.75,3.3906 59.98,12 l 0,-20.6172 C 2840.26,5.23828 2821.2,0 2792.9,0 c -68.91,0 -90.76,52.9102 -90.76,118.441 0,65.52 21.85,118.43 90.76,118.43"
             style="fill:#393536;fill-opacity:1;fill-rule:nonzero;stroke:none"
             id="path3166" /><path
             d="m 3032.79,113.52 -102.13,0 0,-91.0591 112.9,0 0,-19.38278 -133.82,0 0,230.71088 133.82,0 0,-19.367 -112.9,0 0,-81.531 102.13,0 0,-19.371"
             style="fill:#393536;fill-opacity:1;fill-rule:nonzero;stroke:none"
             id="path3168" /></g></g></g></g></svg>
