<?xml version="1.0" encoding="UTF-8" standalone="no"?>
<!-- Created with Inkscape (http://www.inkscape.org/) -->

<svg
   xmlns:dc="http://purl.org/dc/elements/1.1/"
   xmlns:cc="http://creativecommons.org/ns#"
   xmlns:rdf="http://www.w3.org/1999/02/22-rdf-syntax-ns#"
   xmlns:svg="http://www.w3.org/2000/svg"
   xmlns="http://www.w3.org/2000/svg"
   xmlns:sodipodi="http://sodipodi.sourceforge.net/DTD/sodipodi-0.dtd"
   xmlns:inkscape="http://www.inkscape.org/namespaces/inkscape"
   id="svg2"
   version="1.1"
   inkscape:version="0.48.4 r9939"
   viewBox="0 0 279.80167 90.595001"
   width="100%"
   height="100%"
   x="0px"
   y="0px"
   xml:space="preserve"
   sodipodi:docname="logo.ai"><metadata
     id="metadata8"><rdf:RDF><cc:Work
         rdf:about=""><dc:format>image/svg+xml</dc:format><dc:type
           rdf:resource="http://purl.org/dc/dcmitype/StillImage" /><dc:title></dc:title></cc:Work></rdf:RDF></metadata><defs
     id="defs6"><clipPath
       clipPathUnits="userSpaceOnUse"
       id="clipPath16"><path
         d="m 0,595.276 841.89,0 L 841.89,0 0,0 0,595.276 z"
         id="path18"
         inkscape:connector-curvature="0" /></clipPath></defs><sodipodi:namedview
     pagecolor="#ffffff"
     bordercolor="#666666"
     borderopacity="1"
     objecttolerance="10"
     gridtolerance="10"
     guidetolerance="10"
     inkscape:pageopacity="0"
     inkscape:pageshadow="2"
     inkscape:window-width="1600"
     inkscape:window-height="876"
     id="namedview4"
     showgrid="false"
     fit-margin-top="0"
     fit-margin-left="0"
     fit-margin-right="0"
     fit-margin-bottom="0"
     inkscape:zoom="0.27747092"
     inkscape:cx="138.68877"
     inkscape:cy="46.768765"
     inkscape:window-x="0"
     inkscape:window-y="24"
     inkscape:window-maximized="1"
     inkscape:current-layer="g10" /><g
     id="g10"
     inkscape:groupmode="layer"
     inkscape:label="logo"
     transform="matrix(1.25,0,0,-1.25,-387.4925,415.87375)"><g
       id="g12"><g
         id="g14"
         clip-path="url(#clipPath16)"><path
           d="m 314.889,276.893 -4.895,0 0,40.342 4.895,0 0,-40.342 z m 0,47.909 -4.895,0 0,7.897 4.895,0 0,-7.897 z"
           style="fill:#0075ba;fill-opacity:1;fill-rule:nonzero;stroke:none"
           id="path20"
           inkscape:connector-curvature="0" /><path
           d="m 344.381,317.254 0,-4.132 -8.263,0 0,-27.224 c 0,-1.617 0.222,-2.884 0.667,-3.793 0.449,-0.914 1.562,-1.423 3.345,-1.525 1.418,0 2.837,0.082 4.251,0.254 l 0,-4.195 c -0.735,0 -1.466,-0.02 -2.201,-0.063 -0.731,-0.045 -1.466,-0.064 -2.201,-0.064 -3.297,0 -5.605,0.64 -6.912,1.92 -1.311,1.273 -1.939,3.632 -1.887,7.077 l 0.044,27.613 -7.036,0 0,4.132 7.036,0 0,12.077 4.894,0 0,-12.077 8.263,0 z"
           style="fill:#0075ba;fill-opacity:1;fill-rule:nonzero;stroke:none"
           id="path22"
           inkscape:connector-curvature="0" /><path
           d="m 383.352,305.289 c -0.6,1.716 -1.442,3.237 -2.535,4.564 -1.092,1.327 -2.419,2.396 -3.98,3.202 -1.562,0.806 -3.329,1.212 -5.304,1.212 -2.03,0 -3.825,-0.406 -5.387,-1.212 -1.561,-0.806 -2.884,-1.875 -3.976,-3.202 -1.092,-1.327 -1.967,-2.86 -2.614,-4.604 -0.652,-1.744 -1.08,-3.524 -1.287,-5.347 l 26.06,0 c -0.056,1.871 -0.381,3.666 -0.977,5.387 m -24.344,-15.037 c 0.496,-1.906 1.291,-3.614 2.383,-5.128 1.093,-1.513 2.475,-2.765 4.14,-3.759 1.668,-0.988 3.671,-1.484 6.014,-1.484 3.595,0 6.404,0.937 8.438,2.816 2.03,1.874 3.436,4.377 4.219,7.504 l 4.958,0 c -1.045,-4.589 -2.964,-8.133 -5.757,-10.635 -2.788,-2.502 -6.741,-3.753 -11.858,-3.753 -3.182,0 -5.935,0.56 -8.255,1.679 -2.324,1.121 -4.215,2.654 -5.677,4.61 -1.461,1.953 -2.542,4.217 -3.245,6.8 -0.707,2.574 -1.057,5.299 -1.057,8.163 0,2.658 0.35,5.264 1.053,7.814 0.703,2.551 1.788,4.831 3.245,6.837 1.462,2.006 3.353,3.619 5.673,4.847 2.321,1.223 5.07,1.835 8.251,1.835 3.23,0 5.995,-0.651 8.287,-1.951 2.296,-1.302 4.159,-3.003 5.594,-5.108 1.434,-2.11 2.462,-4.529 3.09,-7.258 0.624,-2.733 0.886,-5.502 0.783,-8.31 l -31.018,0 c 0,-1.777 0.246,-3.616 0.739,-5.519"
           style="fill:#0075ba;fill-opacity:1;fill-rule:nonzero;stroke:none"
           id="path24"
           inkscape:connector-curvature="0" /><path
           d="m 404.398,317.254 0,-9.459 0.151,0 c 1.247,3.282 3.187,5.816 5.82,7.596 2.631,1.78 5.773,2.59 9.42,2.435 l 0,-4.957 c -2.241,0.103 -4.275,-0.195 -6.099,-0.902 -1.823,-0.704 -3.4,-1.709 -4.731,-3.012 -1.327,-1.303 -2.356,-2.852 -3.086,-4.652 -0.732,-1.8 -1.093,-3.766 -1.093,-5.903 l 0,-21.507 -4.958,0 0,40.361 4.576,0 z"
           style="fill:#0075ba;fill-opacity:1;fill-rule:nonzero;stroke:none"
           id="path26"
           inkscape:connector-curvature="0" /><path
           d="m 454,298.956 c -0.313,-0.576 -0.914,-0.989 -1.799,-1.251 -0.887,-0.263 -1.669,-0.445 -2.344,-0.548 -2.086,-0.366 -4.239,-0.692 -6.452,-0.977 -2.217,-0.287 -4.238,-0.715 -6.061,-1.287 -1.828,-0.577 -3.326,-1.395 -4.498,-2.463 -1.176,-1.069 -1.76,-2.594 -1.76,-4.576 0,-1.249 0.246,-2.357 0.743,-3.323 0.493,-0.965 1.16,-1.799 1.994,-2.502 0.835,-0.703 1.796,-1.24 2.893,-1.601 1.097,-0.365 2.217,-0.547 3.364,-0.547 1.875,0 3.675,0.285 5.395,0.861 1.72,0.572 3.222,1.406 4.498,2.498 1.278,1.097 2.296,2.424 3.05,3.989 0.754,1.561 1.137,3.337 1.137,5.316 l 0,6.411 -0.16,0 z m -24.609,12.025 c 0.83,1.724 1.962,3.127 3.396,4.219 1.43,1.092 3.106,1.899 5.033,2.42 1.926,0.52 4.06,0.778 6.4,0.778 1.771,0 3.54,-0.17 5.307,-0.508 1.772,-0.338 3.357,-0.978 4.764,-1.915 1.405,-0.938 2.55,-2.253 3.436,-3.945 0.881,-1.692 1.326,-3.893 1.326,-6.602 l 0,-21.412 c 0,-1.979 0.962,-2.967 2.892,-2.967 0.573,0 1.093,0.101 1.561,0.312 l 0,-4.142 c -0.57,-0.104 -1.08,-0.182 -1.522,-0.235 -0.444,-0.052 -1.004,-0.08 -1.679,-0.08 -1.252,0 -2.252,0.172 -3.003,0.51 -0.755,0.338 -1.335,0.816 -1.752,1.445 -0.413,0.627 -0.688,1.368 -0.816,2.229 -0.13,0.857 -0.193,1.808 -0.193,2.851 l -0.16,0 c -0.885,-1.302 -1.783,-2.462 -2.693,-3.478 -0.91,-1.014 -1.926,-1.863 -3.046,-2.539 -1.117,-0.676 -2.392,-1.195 -3.826,-1.563 -1.43,-0.363 -3.134,-0.546 -5.113,-0.546 -1.875,0 -3.635,0.222 -5.271,0.662 -1.641,0.445 -3.076,1.148 -4.299,2.115 -1.224,0.961 -2.185,2.183 -2.889,3.67 -0.702,1.486 -1.052,3.245 -1.052,5.275 0,2.813 0.624,5.018 1.875,6.607 1.247,1.588 2.9,2.8 4.958,3.634 2.057,0.835 4.373,1.419 6.952,1.756 2.578,0.342 5.197,0.668 7.853,0.977 1.041,0.104 1.951,0.235 2.734,0.389 0.782,0.16 1.434,0.434 1.955,0.823 0.52,0.393 0.92,0.926 1.208,1.601 0.285,0.679 0.433,1.565 0.433,2.662 0,1.664 -0.275,3.031 -0.823,4.099 -0.548,1.069 -1.303,1.916 -2.269,2.543 -0.964,0.624 -2.089,1.057 -3.365,1.287 -1.278,0.238 -2.645,0.354 -4.107,0.354 -3.13,0 -5.684,-0.743 -7.667,-2.229 -1.982,-1.486 -3.023,-3.87 -3.126,-7.151 l -4.895,0 c 0.155,2.344 0.649,4.378 1.483,6.094"
           style="fill:#0075ba;fill-opacity:1;fill-rule:nonzero;stroke:none"
           id="path28"
           inkscape:connector-curvature="0" /><path
           d="m 488.908,317.254 0,-4.132 -8.263,0 0,-27.224 c 0,-1.617 0.222,-2.884 0.667,-3.793 0.449,-0.914 1.561,-1.423 3.344,-1.525 1.419,0 2.837,0.082 4.252,0.254 l 0,-4.195 c -0.736,0 -1.467,-0.02 -2.201,-0.063 -0.731,-0.045 -1.467,-0.064 -2.201,-0.064 -3.297,0 -5.606,0.64 -6.912,1.92 -1.312,1.273 -1.94,3.632 -1.888,7.077 l 0.044,27.613 -7.035,0 0,4.132 7.035,0 0,12.077 4.895,0 0,-12.077 8.263,0 z"
           style="fill:#0075ba;fill-opacity:1;fill-rule:nonzero;stroke:none"
           id="path30"
           inkscape:connector-curvature="0" /><path
           d="m 527.879,305.289 c -0.596,1.716 -1.442,3.237 -2.535,4.564 -1.092,1.327 -2.419,2.396 -3.977,3.202 -1.56,0.806 -3.329,1.212 -5.306,1.212 -2.032,0 -3.823,-0.406 -5.384,-1.212 -1.561,-0.806 -2.888,-1.875 -3.98,-3.202 -1.093,-1.327 -1.963,-2.86 -2.615,-4.604 -0.65,-1.744 -1.08,-3.524 -1.287,-5.347 l 26.06,0 c -0.051,1.871 -0.376,3.666 -0.976,5.387 m -24.34,-15.037 c 0.492,-1.906 1.287,-3.614 2.383,-5.128 1.093,-1.513 2.471,-2.765 4.139,-3.759 1.666,-0.988 3.671,-1.484 6.015,-1.484 3.591,0 6.403,0.937 8.434,2.816 2.029,1.874 3.436,4.377 4.219,7.504 l 4.958,0 c -1.045,-4.589 -2.96,-8.133 -5.753,-10.635 -2.792,-2.502 -6.746,-3.753 -11.858,-3.753 -3.181,0 -5.935,0.56 -8.26,1.679 -2.319,1.121 -4.214,2.654 -5.671,4.61 -1.463,1.953 -2.547,4.217 -3.25,6.8 -0.704,2.574 -1.057,5.299 -1.057,8.163 0,2.658 0.353,5.264 1.057,7.814 0.703,2.551 1.783,4.831 3.246,6.837 1.457,2.006 3.348,3.619 5.668,4.847 2.32,1.223 5.074,1.835 8.252,1.835 3.232,0 5.994,-0.651 8.29,-1.951 2.292,-1.302 4.159,-3.003 5.593,-5.108 1.435,-2.11 2.463,-4.529 3.087,-7.258 0.627,-2.733 0.886,-5.502 0.782,-8.31 l -31.018,0 c 0,-1.777 0.247,-3.616 0.744,-5.519"
           style="fill:#0075ba;fill-opacity:1;fill-rule:nonzero;stroke:none"
           id="path32"
           inkscape:connector-curvature="0" /><path
           d="m 381.596,260.223 -6.686,0 0,4.928 6.686,0 0,-4.928 z"
           style="fill:#0075ba;fill-opacity:1;fill-rule:nonzero;stroke:none"
           id="path34"
           inkscape:connector-curvature="0" /><path
           d="m 392.7,260.223 -6.678,0 0,4.928 6.678,0 0,-4.928 z"
           style="fill:#0075ba;fill-opacity:1;fill-rule:nonzero;stroke:none"
           id="path36"
           inkscape:connector-curvature="0" /><path
           d="m 397.32,260.223 13.363,0 0,4.928 -13.363,0 0,-4.928 z"
           style="fill:#0075ba;fill-opacity:1;fill-rule:nonzero;stroke:none"
           id="path38"
           inkscape:connector-curvature="0" /><path
           d="m 415.402,260.223 19.951,0 0,4.928 -19.951,0 0,-4.928 z"
           style="fill:#0075ba;fill-opacity:1;fill-rule:nonzero;stroke:none"
           id="path40"
           inkscape:connector-curvature="0" /><path
           d="m 440.017,260.223 33.211,0 0,4.928 -33.211,0 0,-4.928 z"
           style="fill:#0075ba;fill-opacity:1;fill-rule:nonzero;stroke:none"
           id="path42"
           inkscape:connector-curvature="0" /><path
           d="m 478.233,260.223 53.378,0 0,4.928 -53.378,0 0,-4.928 z"
           style="fill:#0075ba;fill-opacity:1;fill-rule:nonzero;stroke:none"
           id="path44"
           inkscape:connector-curvature="0" /></g></g></g></svg>
