<?xml version="1.0" encoding="UTF-8" standalone="no"?>
<!-- Created with Inkscape (http://www.inkscape.org/) -->

<svg
   xmlns:dc="http://purl.org/dc/elements/1.1/"
   xmlns:cc="http://creativecommons.org/ns#"
   xmlns:rdf="http://www.w3.org/1999/02/22-rdf-syntax-ns#"
   xmlns:svg="http://www.w3.org/2000/svg"
   xmlns="http://www.w3.org/2000/svg"
   xmlns:sodipodi="http://sodipodi.sourceforge.net/DTD/sodipodi-0.dtd"
   xmlns:inkscape="http://www.inkscape.org/namespaces/inkscape"
   id="svg3020"
   version="1.1"
   inkscape:version="0.48.3.1 r9886"
   viewBox="0 0 1035.9 318.675"
   width="100%"
   height="100%"
   x="0px"
   y="0px"
   xml:space="preserve"
   sodipodi:docname="kantega_logo.eps"><metadata
     id="metadata3026"><rdf:RDF><cc:Work
         rdf:about=""><dc:format>image/svg+xml</dc:format><dc:type
           rdf:resource="http://purl.org/dc/dcmitype/StillImage" /><dc:title></dc:title></cc:Work></rdf:RDF></metadata><defs
     id="defs3024" /><sodipodi:namedview
     pagecolor="#ffffff"
     bordercolor="#666666"
     borderopacity="1"
     objecttolerance="10"
     gridtolerance="10"
     guidetolerance="10"
     inkscape:pageopacity="0"
     inkscape:pageshadow="2"
     inkscape:window-width="1855"
     inkscape:window-height="1056"
     id="namedview3022"
     showgrid="false"
     inkscape:zoom="1.6314316"
     inkscape:cx="517.95001"
     inkscape:cy="159.33749"
     inkscape:window-x="65"
     inkscape:window-y="24"
     inkscape:window-maximized="1"
     inkscape:current-layer="g3028" /><g
     id="g3028"
     inkscape:groupmode="layer"
     inkscape:label="ink_ext_XXXXXX"
     transform="matrix(1.25,0,0,-1.25,0,318.675)"><g
       id="g3030"
       transform="scale(0.1,0.1)"><path
         d="m 2274.81,1426.5 c -8.66,30.66 -23.16,54.17 -43.5,70.5 -22.99,21.33 -50.49,32 -82.5,32 -51,0 -104.83,-15.33 -161.5,-46 -53.99,-31 -104.66,-72 -152,-123 -50,-49 -90.33,-103.5 -121,-163.5 -34,-62.33 -53.83,-122 -59.5,-179 -8.66,-68.328 2.84,-102.5 34.5,-102.5 27,0 65.17,16.832 114.5,50.5 l 154.51,123 c 89.66,84.67 195.16,197.33 316.49,338 z m -13,1092.5 1.51,-1.5 c 13.33,-16.33 18.66,-39 15.99,-68 -3,-17.34 -12.16,-34.16 -27.5,-50.5 -2,-1 -3,-2 -3,-3 -36.66,-37.67 -94.5,-93.5 -173.5,-167.5 -84.67,-76 -149.67,-131.83 -195,-167.5 -15.33,-11.67 -30.33,-22.83 -45,-33.5 -79.67,-60.67 -165.33,-120.34 -256.99,-179 -110,-66.67 -221.84,-127.83 -335.51,-183.5 -113.66,-54 -222.5,-100.34 -326.498,-139 -1.664,0 -2.996,-1 -4,-3 -1,-0.67 -1.496,-2 -1.496,-4 26.996,-179.34 52.5,-329.67 76.496,-451 21.998,-105 46.008,-185 71.998,-240 31,-71 63.34,-107 97,-108 33.67,1 76,13 127.01,36 25.99,11.672 53.49,25.672 82.5,42 0.99,1 1.49,2 1.49,3 37.67,17.332 68.51,2.832 92.5,-43.5 21.34,-44.328 15,-78 -18.99,-101 C 1318.48,570.5 1213.98,531 1127.31,538 l -3,0 c -45,2.672 -84.33,15.172 -118,37.5 -35.665,22 -65.665,52.832 -89.998,92.5 -1,1.66 -2.332,2.5 -4,2.5 -38.664,63.672 -70,154.332 -93.996,272 L 769.312,1256 c -15.664,102 -31.667,178.5 -48,229.5 -1,2 -2,3.5 -2.996,4.5 -1.671,1 -3.504,1.5 -5.504,1.5 -1.996,0 -3.5,-1 -4.496,-3 l -313.504,-426 c -83.664,-113 -128.996,-173.828 -136,-182.5 -29.667,-41.328 -55.667,-83.668 -77.996,-127 -25,-40.328 -58.171,-58.668 -99.5035,-55 l -2.9961,0 c -30.668,3 -51.8359,12.172 -63.5,27.5 C 1.48047,741.832 -2.85156,764 1.8125,792 l 1.50391,3 8.49609,29 0,1.5 1.5039,0 c 30,54.672 63.3281,108.5 99.9996,161.5 0.664,1 0.996,2 0.996,3 14.668,20.33 60,84 136,191 l 373.004,498.5 c 80,103 148.832,205 206.496,306 0,2 0,3.5 0,4.5 l 78,160.5 c 23.004,54.67 38.336,103.83 46,147.5 1,14.33 -2.832,22.5 -11.5,24.5 l -1.496,1.5 c -9.336,1.67 -25.171,-2.33 -47.5,-12 -27.004,-12.34 -51.504,-27.17 -73.504,-44.5 -66.667,-52 -129.832,-108.33 -189.5,-169 -1.996,-1 -3,-2 -3,-3 -53.664,-57 -124.332,-143.67 -212,-260 -45.332,-61.66 -90.664,-80 -136,-55 -23.332,14.33 -36.832,31.17 -40.5,50.5 -2.996,19.34 3.336,42 19,68 64.336,110.66 146.668,215.17 247,313.5 86.668,93.33 175.168,165.67 265.5,217 90.668,56.67 167.333,82.66 229.998,78 57.67,-3 99.5,-27.67 125.51,-74 21.33,-38.33 26.66,-87.5 15.99,-147.5 -14.33,-81.67 -50,-177 -107,-286 -41.33,-83.66 -97.662,-179 -168.994,-286 -1.004,-1 -1.504,-2.5 -1.504,-4.5 0,-1.66 0.5,-3 1.504,-4 0.996,-1 2.5,-2 4.496,-3 1,0 2.5,0 4.5,0 88.333,31.67 180.668,70.67 276.998,117 108,52 214.01,110.33 318,175 l 0,-1.5 c 103,63.34 198.84,129.84 287.5,199.5 40.67,29.66 78.84,59.5 114.5,89.5 20,20 61.33,58.5 124.01,115.5 59.66,58.67 98.66,97.16 116.99,115.5 26,27 53.5,39 82.5,36 l 1.5,0 c 21,0 42.67,-10 65,-30 z m 5525.5,-818 c 50,0 95.84,-9.66 137.5,-29 39.34,-22 72.5,-52.83 99.5,-92.5 l 58,62 c 23.01,26.34 47,39.5 72,39.5 20.33,0 37.67,-5.83 52,-17.5 23.33,-19.33 33.5,-43.5 30.5,-72.5 -3,-18.33 -10.16,-34.66 -21.49,-49 l -66.51,-84 c -48.33,-55.67 -87.83,-123 -118.49,-202 -22.34,-62.67 -37.34,-125.83 -45,-189.5 -9.67,-80.668 -9.67,-126.84 0,-138.5 0.99,-1 3.49,-4 7.5,-9 7.66,-3.668 19.66,-1.668 35.99,6 l 167.5,95.5 c 27.01,17.33 52.5,4.83 76.51,-37.5 25,-42.668 17.33,-76.5 -23.01,-101.5 -83.66,-53 -141.49,-88.168 -173.5,-105.5 -52,-28.668 -91.5,-43 -118.49,-43 -72.34,0 -116.67,26 -133.01,78 -10.33,34.672 -17.5,78 -21.49,130 -3,45.332 -3,86.67 0,124 l 1.49,7.5 c -96.33,-99.328 -185,-176.828 -266,-232.5 l -131.5,-72.5 c -42.33,-17.328 -80.33,-26 -113.99,-26 -42.34,0 -79.51,9.172 -111.51,27.5 -23.99,16.332 -44.16,40 -60.5,71 -16.33,32.672 -25.49,70.172 -27.5,112.5 1,6.672 1.51,14.332 1.51,23 0,6.66 -0.51,12.5 -1.51,17.5 -9.66,-7.668 -20.33,-15.84 -32,-24.5 -7.66,-6.668 -15.83,-13.5 -24.5,-20.5 -61.66,-45.328 -108.83,-77.5 -141.49,-96.5 l -1.51,-1.5 c -180,-95.34 -273.33,-144.5 -280,-147.5 L 6468.32,438 c -55,-89.668 -110,-164.328 -165,-224 -60.67,-67.328 -123.68,-118.8281 -189.01,-154.5 -47.33,-27 -96.49,-44.3281 -147.5,-52 -22.33,-5 -45.5,-7.5 -69.5,-7.5 -21.99,0 -42.67,2.5 -61.99,7.5 -47.34,8.6719 -89.67,28.332 -127,59 -29.01,22.332 -50.84,48.332 -65.5,78 -14.34,34.672 -19.01,72.832 -14.01,114.5 9.34,95.332 69.01,184.332 179.01,267 99.32,74.332 253.99,152.832 463.99,235.5 82.67,33 156.84,65.832 222.5,98.5 l 86.51,212.5 c -83.68,-74.328 -163.68,-130.168 -240,-167.5 -74.01,-35.668 -141.84,-53.5 -203.51,-53.5 -76,0 -135.83,27.332 -179.49,82 -26.67,36.672 -41.51,76.67 -44.5,120 -80,-64.328 -149.34,-115.328 -208,-153 -70.34,-44.328 -136.34,-78.5 -198.01,-102.5 -61.66,-23.34 -119.49,-36.828 -173.5,-40.5 -9.66,0 -18.33,0 -25.99,0 -13.34,0 -26.84,0.5 -40.51,1.5 -37.67,4.672 -71.33,14.672 -101,30 -0.99,0 -2,0.5 -2.99,1.5 -2.01,0 -4.01,0.5 -6.01,1.5 -0.66,0 -1.49,0.5 -2.5,1.5 -41.66,21.332 -76.33,52.172 -103.99,92.5 l -3,4.5 c -2,2.672 -3.01,5.5 -3.01,8.5 l -1.49,0 c -162.67,-76 -326.01,-120.828 -490,-134.5 -68.34,-5.668 -128.51,19.832 -180.5,76.5 -22,26 -38.34,56.332 -49.01,91 -9.66,31 -13.49,63.832 -11.5,98.5 -280.33,-237 -474.5,-355.5 -582.5,-355.5 -44.33,0 -78.5,15.5 -102.5,46.5 -25,27.672 -35.16,64.172 -30.5,109.5 7.67,68.332 51.51,170 131.51,305 80,125.33 121.49,199 124.49,221 5.67,55 -19,82.5 -74,82.5 -53.66,0 -118.66,-23.67 -195,-71 -64.33,-40.33 -137.5,-98.17 -219.5,-173.5 -55,-51 -175.5,-177.67 -361.5,-380 -25,-26 -51.33,-39 -79,-39 -61.66,0 -89.66,29 -84,87 l 13,40.5 c 73.34,131 136.5,275.5 189.5,433.5 l -185,-168 c -6,-5.67 -12.33,-10.33 -18.99,-14 l -52.01,-48 c -212,-187.668 -362.33,-281.5 -451,-281.5 -60.66,0 -104,26 -130,78 -21.99,42.332 -29.67,96.16 -23,161.5 l 1.5,7.5 C 2087.48,973.172 1998.32,895.672 1916.31,840 l -130,-72.5 c -42.33,-17.328 -80.83,-26 -115.49,-26 -43.34,0 -80,9.172 -110,27.5 -25,16.332 -44.67,40 -59.01,71 -25.99,47 -35.16,110 -27.5,189 6.67,80 51.51,188.33 134.5,325 28.67,42.67 61.34,82.67 98,120 64.67,69.33 136,123.33 214.01,162 82.66,43.33 164.49,65 245.49,65 49.33,0 94.67,-9.66 136,-29 40.34,-22 74,-52.83 101.01,-92.5 l 56.49,62 c 23,26.34 46.5,39.5 70.5,39.5 22.34,0 40.67,-5.83 55,-17.5 23.34,-19.33 33.01,-43.5 29,-72.5 -2,-18.33 -8.16,-34.66 -18.49,-49 l -71.01,-84 c -47.33,-55.67 -85.33,-123 -113.99,-202 -23.34,-62.67 -38.84,-125.83 -46.51,-189.5 -3.67,-39.34 0.17,-59 11.51,-59 l 47.99,23 c 70.34,46.33 158.34,118.17 264,215.5 l 105.51,91 c 5,3.67 9.82,7.5 14.49,11.5 l 266,254 c 31.67,34 66.34,51 104,51 67.34,0 99.67,-39.5 97,-118.5 -6.67,-71.33 -28.83,-157.17 -66.49,-257.5 105.99,101.33 204.16,179.83 294.49,235.5 51.34,33 100,57.67 146,74 52.01,17.33 101.17,26 147.5,26 81,0 142.17,-23.67 183.5,-71 44.34,-46.33 62.17,-108 53.51,-185 -7.68,-53 -40.84,-126.17 -99.51,-219.5 -77.33,-113.67 -122.66,-189.328 -136,-227 l -11.5,-37.5 c 0,-4 1.5,-6.828 4.51,-8.5 l 44.49,20 c 168.67,107 319.5,217.83 452.51,332.5 63.33,56.67 112.83,102.83 148.49,138.5 l 134.51,208 c 2,3 4.5,6.5 7.5,10.5 8.66,15.33 16.32,28.84 22.99,40.5 l 154.51,229.5 c -246.67,-21.33 -507.67,-51.67 -783.01,-91 -23.33,-3 -44.16,2.34 -62.5,16 -18.33,14.33 -28.83,33.16 -31.5,56.5 -4,22 0.84,42.17 14.51,60.5 14.33,18.33 32.66,28.83 55,31.5 304.33,44.33 591.83,77.16 862.5,98.5 l -1.51,-1.5 c 22,3 44.17,5 66.51,6 l 148.99,221 c 20,30.66 46.01,46 78.01,46 62.33,0 90.16,-27.84 83.49,-83.5 l -14.5,-45 -82,-123 c 105,7 207.5,11.33 307.5,13 22.33,1 41.67,-6.16 58.01,-21.5 16.33,-16.33 25,-36.5 25.99,-60.5 1,-21.33 -6.67,-41.17 -22.99,-59.5 -15.67,-15.34 -34.51,-23.5 -56.51,-24.5 -117.66,-3 -238.66,-8.83 -363,-17.5 l -0.99,0 c -20.34,-0.67 -40.17,-2 -59.5,-4 l -192.01,-287.5 -1.5,0 c -103,-144.67 -179.16,-261.84 -228.5,-351.5 -36.67,-70.34 -56.83,-124.17 -60.49,-161.5 -4.01,-36.67 0.33,-65.168 12.99,-85.5 12.34,-25 33.5,-37.5 63.5,-37.5 87.67,1 182.5,21.66 284.5,62 53,20.33 98.34,41.17 136.01,62.5 -2,10.33 -3.01,20.83 -3.01,31.5 4,59.67 6.5,90 7.5,91 8.67,90.67 35.51,176.5 80.51,257.5 41.66,74 94.66,140 158.99,198 61.67,55.67 125.33,98 191.01,127 65.33,29.66 124.49,44.5 177.5,44.5 74.32,0 133.16,-22 176.49,-66 43.34,-47.33 59.67,-103.84 49.01,-169.5 -10.67,-67.33 -35.17,-129.34 -73.51,-186 -19.33,-26 -46.33,-57.33 -81,-94 -80.99,-79 -206.67,-166.67 -377,-263 -30,-17.33 -59.5,-33.668 -88.49,-49 -1.67,-1 -3,-2 -4.01,-3 20,-29 54.67,-45.5 104.01,-49.5 l 20,0 c 64.66,0 148.99,30.5 252.99,91.5 26,16.33 53.5,35 82.5,56 81.67,55 171.17,125.33 268.5,211 l 52,46.5 c 2,1.67 4.5,3 7.5,4 4.67,8.66 9.5,16.83 14.5,24.5 52.01,80 118.33,151.83 199.01,215.5 78.33,60.67 161.66,108.33 250,143 88.66,35.66 171.66,53.5 248.99,53.5 78,0 144.34,-19.17 199.01,-57.5 l 4.5,4 c 20.33,29 46.82,43.5 79.49,43.5 62.67,0 90.67,-28 84,-84 l -15.99,-44.5 -78.01,-123 c -106.99,-236 -191.33,-425.33 -253,-568 l 76.51,43.5 c 47.33,32.67 110.99,77 190.99,133 11.34,8.67 20.5,15.83 27.5,21.5 l 134.01,113 c 2,1.67 4.5,3.5 7.5,5.5 18.33,26 39.5,55.83 63.49,89.5 11.67,17.33 27.5,37.67 47.5,61 11.67,13.33 29.01,33 52,59 66.67,69.33 139.01,123.33 217.01,162 81.66,43.33 162.99,65 243.99,65 z m -2148.5,-179 c 6.67,27 10,40.84 10,41.5 3,22.33 -0.33,39.67 -10,52 -11.67,15.67 -28.49,23.5 -50.49,23.5 -35.67,0 -72.84,-9.17 -111.51,-27.5 -33.66,-16.33 -67.33,-39.5 -100.99,-69.5 -57.01,-53 -103.34,-112.67 -139.01,-179 1.01,1 3,1.5 6.01,1.5 -3.01,-1 -5.34,-2.5 -7,-4.5 -16.67,-26 -33.68,-64 -51.01,-114 -12.33,-33 -20,-64.33 -23,-94 18.34,10.67 37.17,21.17 56.51,31.5 118.33,66.67 229.16,142.83 332.5,228.5 39.33,34.67 68.66,71.33 87.99,110 z m 1050.5,80.5 c -57,0 -119.16,-13.83 -186.49,-41.5 -66.34,-27 -129.5,-64.17 -189.5,-111.5 -60.67,-48 -110.67,-101 -150,-159 -42.34,-61.67 -66.51,-122.83 -72.5,-183.5 -4.67,-55 16.66,-82.5 63.99,-82.5 45,0 96.5,17.83 154.5,53.5 54.01,32 110.84,75.33 170.5,130 78.01,73.33 183.51,192.83 316.5,358.5 -27,24 -62.66,36 -107,36 z m -641.49,-1387 c 40.33,23 80.66,57.172 120.99,102.5 69.67,74.332 139.51,175 209.51,302 L 6059.31,488.5 c -80.99,-35.668 -141.16,-72.668 -180.5,-111 -42.66,-37.668 -66.33,-77.168 -70.99,-118.5 -2,-21.328 7.16,-39.168 27.5,-53.5 19.32,-20.328 45.83,-30.5 79.49,-30.5 42.33,0 86.67,13.5 133.01,40.5 z m 1852.5,1211 c -11.67,30.66 -26.67,54.17 -45,70.5 -25,21.33 -53.01,32 -84.01,32 -50,0 -103.83,-15.33 -161.5,-46 -55,-31 -106.16,-72 -153.5,-123 -50,-49 -90.83,-103.5 -122.5,-163.5 -32.66,-62.33 -51.5,-122 -56.5,-179 -8.66,-68.328 2.5,-102.5 33.51,-102.5 27.66,0 66.16,16.832 115.49,50.5 l 153,123 c 90.67,84.67 197.67,197.33 321.01,338"
         style="fill:#26637f;fill-opacity:1;fill-rule:evenodd;stroke:none"
         id="path3032" /></g></g></svg>
