<?xml version="1.0" encoding="UTF-8" standalone="no"?>
<!-- Created with Inkscape (http://www.inkscape.org/) -->

<svg
   xmlns:dc="http://purl.org/dc/elements/1.1/"
   xmlns:cc="http://creativecommons.org/ns#"
   xmlns:rdf="http://www.w3.org/1999/02/22-rdf-syntax-ns#"
   xmlns:svg="http://www.w3.org/2000/svg"
   xmlns="http://www.w3.org/2000/svg"
   xmlns:sodipodi="http://sodipodi.sourceforge.net/DTD/sodipodi-0.dtd"
   xmlns:inkscape="http://www.inkscape.org/namespaces/inkscape"
   id="svg3680"
   version="1.1"
   inkscape:version="0.48.3.1 r9886"
   viewBox="0 0 339.225 76.9375"
   width="100%"
   height="100%"
   x="0px"
   y="0px"
   xml:space="preserve"
   sodipodi:docname="knowit_logo_3285c.eps"><metadata
     id="metadata3686"><rdf:RDF><cc:Work
         rdf:about=""><dc:format>image/svg+xml</dc:format><dc:type
           rdf:resource="http://purl.org/dc/dcmitype/StillImage" /><dc:title></dc:title></cc:Work></rdf:RDF></metadata><defs
     id="defs3684"><clipPath
       clipPathUnits="userSpaceOnUse"
       id="clipPath3696"><path
         d="M 0,615.504 0,0 l 2713.79,0 0,615.504 -2713.79,0 z"
         id="path3698" /></clipPath></defs><sodipodi:namedview
     pagecolor="#ffffff"
     bordercolor="#666666"
     borderopacity="1"
     objecttolerance="10"
     gridtolerance="10"
     guidetolerance="10"
     inkscape:pageopacity="0"
     inkscape:pageshadow="2"
     inkscape:window-width="640"
     inkscape:window-height="480"
     id="namedview3682"
     showgrid="false"
     inkscape:zoom="1.0641904"
     inkscape:cx="169.6125"
     inkscape:cy="38.46875"
     inkscape:window-x="65"
     inkscape:window-y="24"
     inkscape:window-maximized="0"
     inkscape:current-layer="g3688" /><g
     id="g3688"
     inkscape:groupmode="layer"
     inkscape:label="ink_ext_XXXXXX"
     transform="matrix(1.25,0,0,-1.25,0,76.9375)"><g
       id="g3690"
       transform="scale(0.1,0.1)"><g
         id="g3692"><g
           id="g3694"
           clip-path="url(#clipPath3696)"><path
             d="m 450.547,458.883 -64.68,0 c -20.242,0 -22.722,-2.5 -46.187,-26.133 C 327.871,420.895 133.113,224.746 133.113,224.746 l 0,327.34 c 0,10.996 -6.004,17.051 -17.039,17.051 l -99.0232,0 C 6.01562,569.137 0,563.082 0,552.086 l 0,-44.004 c 0,-11.113 6.01562,-17.129 17.0508,-17.129 l 36.2304,0 0,-403.746 -36.0468,0 C 6.21094,87.207 0.195312,81.1914 0.195312,70.1953 l 0,-44.0234 C 0.195312,15.1367 6.21094,8.92578 17.2344,8.92578 l 151.4646,0 c 11.047,0 17.102,6.01562 17.102,17.05082 l 0,44.0429 c 0,11.1133 -6.055,17.1875 -17.102,17.1875 l -35.586,0 0,32.656 77.563,78.77 L 347.207,31.7383 C 365.168,8.92578 365.168,8.92578 391.445,8.92578 l 58.977,0 c 10.965,0 17,6.01562 17,17.05082 l 0,44.0429 c 0,11.0352 -6.035,17.0313 -17,17.0313 l -48.637,0 -135.828,167.6372 124.141,125.855 60.449,0 c 11.211,0 17.058,5.527 17.058,16.406 l 0,44.844 c 0,11.035 -6.043,17.09 -17.058,17.09"
             style="fill:#009f96;fill-opacity:1;fill-rule:nonzero;stroke:none"
             id="path3700" /><path
             d="m 983.945,87.0508 -35.871,0 0,192.5782 c 0,114.644 -72.207,188.726 -183.886,188.726 -51.493,0 -94.715,-15.878 -128.504,-47.167 l 0,20.41 c 0,11.035 -6.036,17.09 -17.032,17.09 l -97.695,0 c -11.055,0 -17.09,-5.86 -17.09,-16.954 l 0,-43.984 c 0,-11.035 6.035,-17.188 17.071,-17.188 l 35.832,0 0,-293.5112 -35.832,0 c -11.036,0 -17.071,-5.9961 -17.071,-17.0313 l 0,-44.0429 c 0,-10.9961 6.035,-17.05082 17.071,-17.05082 l 150.644,0 c 11.035,0 17.051,6.05472 17.051,17.05082 l 0,44.0429 c 0,11.0352 -6.016,17.0313 -17.051,17.0313 l -35.898,0 0,178.8472 c 0,73.454 51.652,126.774 122.754,126.774 69.238,0 110.593,-44.942 110.593,-120.328 l 0,-185.2932 -35.801,0 c -11.074,0 -17.125,-5.9961 -17.125,-17.0313 l 0,-44.0429 c 0,-10.9961 6.051,-17.05082 17.125,-17.05082 l 150.715,0 c 11.035,0 17.065,6.05472 17.065,17.05082 l 0,44.0429 c 0,11.0352 -6.03,17.0313 -17.065,17.0313"
             style="fill:#009f96;fill-opacity:1;fill-rule:nonzero;stroke:none"
             id="path3702" /><path
             d="m 1228.67,76.5625 c -82.94,0 -147.95,69.6285 -147.95,158.4765 0,88.883 62.96,155.973 146.39,155.973 83.4,0 148.78,-69.59 148.78,-158.395 0,-88.965 -63.28,-156.0545 -147.22,-156.0545 z m 0,391.1095 C 1099.64,467.672 998.562,364.391 998.562,232.617 998.562,102.227 1098.96,0 1227.11,0 c 129.56,0 231.02,103.223 231.02,235.039 0,130.465 -100.77,232.633 -229.46,232.633"
             style="fill:#009f96;fill-opacity:1;fill-rule:nonzero;stroke:none"
             id="path3704" /><path
             d="m 2127.46,458.688 -154.78,0 c -11.04,0 -17.09,-6.055 -17.09,-17.09 l 0,-44.004 c 0,-10.996 6.05,-17.032 17.09,-17.032 l 34.78,0 -73.76,-238.374 -104.37,303.707 c -2.86,8.144 -10.47,13.574 -18.95,13.574 l -30.86,0 c -8.59,0 -16.21,-5.43 -19.02,-13.574 l -103.34,-303.571 -73.8,238.238 34.83,0 c 11.02,0 17.03,6.036 17.03,17.032 l 0,44.004 c 0,11.035 -6.01,17.09 -17.03,17.09 l -156.5,0 c -11.07,0 -17.13,-6.055 -17.13,-17.09 l 0,-44.004 c 0,-10.996 6.06,-17.032 17.13,-17.032 l 36.76,0 122.67,-360.1128 c 2.85,-7.8711 10.39,-13.22264 18.79,-13.22264 l 33.34,0 c 8.54,0 16.13,5.46874 18.89,13.57424 L 1794.79,315.914 1896.94,20.8008 c 2.74,-8.1055 10.35,-13.57424 18.95,-13.57424 l 33.36,0 c 8.41,0 15.95,5.35154 18.76,13.18364 l 122.73,360.1518 36.72,0 c 11.09,0 17.15,6.036 17.15,17.032 l 0,44.004 c 0,11.035 -6.06,17.09 -17.15,17.09"
             style="fill:#009f96;fill-opacity:1;fill-rule:nonzero;stroke:none"
             id="path3706" /><path
             d="m 2346.5,87.0508 -35.84,0 0,354.5472 c 0,11.035 -6.05,17.09 -17.11,17.09 l -98.59,0 c -11.05,0 -17.07,-6.055 -17.07,-17.09 l 0,-44.004 c 0,-10.996 6.02,-17.032 17.07,-17.032 l 35.9,0 0,-293.5112 -65.16,0 c -11.01,0 -17.05,-5.9961 -17.05,-17.0313 l 0,-44.0429 c 0,-10.9961 6.04,-17.05082 17.05,-17.05082 l 180.8,0 c 11.08,0 17.13,6.05472 17.13,17.05082 l 0,44.0429 c 0,11.0352 -6.05,17.0313 -17.13,17.0313"
             style="fill:#009f96;fill-opacity:1;fill-rule:nonzero;stroke:none"
             id="path3708" /><path
             d="m 2696.72,237.637 -43.36,0 c -11.06,0 -17.11,-5.996 -17.11,-17.032 l 0,-83.359 c 0,-28.652 -20.41,-58.3398 -54.59,-58.3398 -42.91,0 -61.19,17.8516 -61.19,59.5708 l 0,242.066 104.71,0 c 11.03,0 17.09,6.055 17.09,17.051 l 0,44.004 c 0,11.035 -6.06,17.09 -17.09,17.09 l -104.71,0 0,93.554 c 0,11.035 -6.04,17.09 -17.07,17.09 l -45.61,0 c -11.07,0 -17.13,-6.055 -17.13,-17.09 l 0,-93.554 -47.67,0 c -11.04,0 -17.09,-6.055 -17.09,-17.09 l 0,-44.004 c 0,-10.996 6.05,-17.051 17.09,-17.051 l 47.67,0 0,-246.07 c 0,-80.6839 52.78,-132.83238 134.42,-132.83238 84.28,0 138.71,50.44918 138.71,128.57438 l 0,90.39 c 0,11.036 -6.02,17.032 -17.07,17.032"
             style="fill:#009f96;fill-opacity:1;fill-rule:nonzero;stroke:none"
             id="path3710" /><path
             d="m 2269.77,515.504 c 27.61,0 50,22.383 50,50 0,27.558 -22.39,50 -50,50 -27.58,0 -50,-22.442 -50,-50 0,-27.617 22.42,-50 50,-50"
             style="fill:#009f96;fill-opacity:1;fill-rule:nonzero;stroke:none"
             id="path3712" /></g></g></g></g></svg>
