<?xml version="1.0" encoding="UTF-8" standalone="no"?>
<!-- Created with Inkscape (http://www.inkscape.org/) -->

<svg
   xmlns:dc="http://purl.org/dc/elements/1.1/"
   xmlns:cc="http://creativecommons.org/ns#"
   xmlns:rdf="http://www.w3.org/1999/02/22-rdf-syntax-ns#"
   xmlns:svg="http://www.w3.org/2000/svg"
   xmlns="http://www.w3.org/2000/svg"
   xmlns:sodipodi="http://sodipodi.sourceforge.net/DTD/sodipodi-0.dtd"
   xmlns:inkscape="http://www.inkscape.org/namespaces/inkscape"
   id="svg3208"
   version="1.1"
   inkscape:version="0.48.4 r9939"
   viewBox="0 0 630.00085 95.859375"
   width="100%"
   height="100%"
   x="0px"
   y="0px"
   xml:space="preserve"
   sodipodi:docname="kodemaker-4-original.ai"><metadata
     id="metadata3214"><rdf:RDF><cc:Work
         rdf:about=""><dc:format>image/svg+xml</dc:format><dc:type
           rdf:resource="http://purl.org/dc/dcmitype/StillImage" /><dc:title></dc:title></cc:Work></rdf:RDF></metadata><defs
     id="defs3212"><clipPath
       clipPathUnits="userSpaceOnUse"
       id="clipPath3226"><path
         d="M 0,216 648,216 648,0 0,0 0,216 z"
         id="path3228"
         inkscape:connector-curvature="0" /></clipPath></defs><sodipodi:namedview
     pagecolor="#ffffff"
     bordercolor="#666666"
     borderopacity="1"
     objecttolerance="10"
     gridtolerance="10"
     guidetolerance="10"
     inkscape:pageopacity="0"
     inkscape:pageshadow="2"
     inkscape:window-width="640"
     inkscape:window-height="480"
     id="namedview3210"
     showgrid="false"
     fit-margin-top="0"
     fit-margin-left="0"
     fit-margin-right="0"
     fit-margin-bottom="0"
     inkscape:zoom="0.47407407"
     inkscape:cx="315.00063"
     inkscape:cy="44.999875"
     inkscape:window-x="215"
     inkscape:window-y="122"
     inkscape:window-maximized="0"
     inkscape:current-layer="g3216" /><g
     id="g3216"
     inkscape:groupmode="layer"
     inkscape:label="kodemaker-4-original"
     transform="matrix(1.25,0,0,-1.25,-89.999375,185.8595)"><g
       id="g3218"
       transform="translate(90.1455,142.7305)"><path
         d="m 0,0 0,-26.731 0.195,0 L 13.658,0 32.974,0 15.414,-30.438 35.12,-69.655 l -20.682,0 L 3.804,-45.364 0,-51.219 l 0,-18.436 -18.146,0 0,69.655 L 0,0 z"
         style="fill:#000000;fill-opacity:1;fill-rule:nonzero;stroke:none"
         id="path3220"
         inkscape:connector-curvature="0" /></g><g
       id="g3222"><g
         id="g3224"
         clip-path="url(#clipPath3226)"><g
           id="g3230"
           transform="translate(143.8018,96.2441)"><path
             d="m 0,0 c 0.13,-3.09 0.406,-5.544 0.829,-7.365 0.423,-1.821 1.04,-3.091 1.854,-3.806 0.812,-0.717 1.902,-1.071 3.268,-1.071 1.365,0 2.454,0.354 3.268,1.071 0.813,0.715 1.43,1.985 1.853,3.806 0.423,1.821 0.699,4.275 0.83,7.365 0.129,3.088 0.195,6.976 0.195,11.657 0,4.684 -0.066,8.57 -0.195,11.658 -0.131,3.089 -0.407,5.543 -0.83,7.367 -0.423,1.819 -1.04,3.089 -1.853,3.802 C 8.405,35.201 7.316,35.56 5.951,35.56 4.585,35.56 3.495,35.201 2.683,34.484 1.869,33.771 1.252,32.501 0.829,30.682 0.406,28.858 0.13,26.404 0,23.315 -0.131,20.227 -0.195,16.341 -0.195,11.657 -0.195,6.976 -0.131,3.088 0,0 m -17.658,28.291 c 0.845,4.585 2.244,8.324 4.195,11.22 1.951,2.891 4.52,5.007 7.707,6.34 3.186,1.333 7.089,2.001 11.707,2.001 4.617,0 8.519,-0.668 11.706,-2.001 3.187,-1.333 5.756,-3.449 7.708,-6.34 1.951,-2.896 3.348,-6.635 4.195,-11.22 0.844,-4.585 1.268,-10.131 1.268,-16.634 0,-6.504 -0.424,-12.048 -1.268,-16.633 -0.847,-4.586 -2.244,-8.325 -4.195,-11.217 -1.952,-2.896 -4.521,-4.962 -7.708,-6.196 -3.187,-1.236 -7.089,-1.855 -11.706,-1.855 -4.618,0 -8.521,0.619 -11.707,1.855 -3.187,1.234 -5.756,3.3 -7.707,6.196 -1.951,2.892 -3.35,6.631 -4.195,11.217 -0.845,4.585 -1.268,10.129 -1.268,16.633 0,6.503 0.423,12.049 1.268,16.634"
             style="fill:#000000;fill-opacity:1;fill-rule:nonzero;stroke:none"
             id="path3232"
             inkscape:connector-curvature="0" /></g><g
           id="g3234"
           transform="translate(202.9209,86.1484)"><path
             d="m 0,0 c 1.756,0 3.154,0.243 4.194,0.729 1.04,0.488 1.838,1.514 2.39,3.074 0.552,1.56 0.911,3.77 1.074,6.634 0.161,2.861 0.244,6.634 0.244,11.316 0,4.684 -0.083,8.455 -0.244,11.317 -0.163,2.861 -0.522,5.072 -1.074,6.633 -0.552,1.562 -1.35,2.586 -2.39,3.074 C 3.154,43.266 1.756,43.509 0,43.509 l -3.61,0 L -3.61,0 0,0 z m 4.584,56.582 c 5.269,0 9.366,-0.961 12.293,-2.879 2.926,-1.919 5.122,-4.487 6.585,-7.707 1.463,-3.219 2.357,-6.927 2.683,-11.121 0.325,-4.196 0.487,-8.57 0.487,-13.122 0,-4.552 -0.162,-8.927 -0.487,-13.121 -0.326,-4.194 -1.22,-7.903 -2.683,-11.12 -1.463,-3.221 -3.659,-5.79 -6.585,-7.709 -2.927,-1.918 -7.024,-2.876 -12.293,-2.876 l -26.339,0 0,69.655 26.339,0 z"
             style="fill:#000000;fill-opacity:1;fill-rule:nonzero;stroke:none"
             id="path3236"
             inkscape:connector-curvature="0" /></g><g
           id="g3238"
           transform="translate(278.4287,142.7305)"><path
             d="m 0,0 0,-14.83 -23.122,0 0,-11.901 21.658,0 0,-14.244 -21.658,0 0,-13.853 24.001,0 0,-14.827 -42.146,0 0,69.655 L 0,0 z"
             style="fill:#000000;fill-opacity:1;fill-rule:nonzero;stroke:none"
             id="path3240"
             inkscape:connector-curvature="0" /></g><g
           id="g3242"
           transform="translate(311.208,142.7305)"><path
             d="m 0,0 7.316,-41.268 0.196,0 7.316,41.268 25.95,0 0,-69.655 -16.975,0 0,51.899 -0.195,0 -9.658,-51.899 -13.072,0 -9.658,51.899 -0.195,0 0,-51.899 -16.975,0 L -25.95,0 0,0 z"
             style="fill:#000000;fill-opacity:1;fill-rule:nonzero;stroke:none"
             id="path3244"
             inkscape:connector-curvature="0" /></g><g
           id="g3246"
           transform="translate(382.6182,128.4863)"><path
             d="m 0,0 -4.975,-29.559 10.145,0 L 0.194,0 0,0 z m 11.512,14.244 16.973,-69.655 -19.315,0 -1.854,12.194 -14.437,0 -1.854,-12.194 -19.024,0 16.682,69.655 22.829,0 z"
             style="fill:#000000;fill-opacity:1;fill-rule:nonzero;stroke:none"
             id="path3248"
             inkscape:connector-curvature="0" /></g><g
           id="g3250"
           transform="translate(431.5908,142.7305)"><path
             d="m 0,0 0,-26.731 0.196,0 L 13.658,0 32.975,0 15.414,-30.438 35.12,-69.655 l -20.682,0 L 3.806,-45.364 0,-51.219 l 0,-18.436 -18.145,0 0,69.655 L 0,0 z"
             style="fill:#000000;fill-opacity:1;fill-rule:nonzero;stroke:none"
             id="path3252"
             inkscape:connector-curvature="0" /></g><g
           id="g3254"
           transform="translate(509.6367,142.7305)"><path
             d="m 0,0 0,-14.83 -23.121,0 0,-11.901 21.658,0 0,-14.244 -21.658,0 0,-13.853 24,0 0,-14.827 -42.146,0 0,69.655 L 0,0 z"
             style="fill:#000000;fill-opacity:1;fill-rule:nonzero;stroke:none"
             id="path3256"
             inkscape:connector-curvature="0" /></g><g
           id="g3258"
           transform="translate(538.9033,113.2686)"><path
             d="m 0,0 c 2.602,0 4.521,0.762 5.756,2.291 1.234,1.527 1.853,3.528 1.853,6 0,2.927 -0.601,5.007 -1.804,6.244 -1.204,1.235 -3.17,1.854 -5.902,1.854 l -3.512,0 L -3.609,0 0,0 z m 6.576,29.462 c 3.44,0 6.377,-0.457 8.812,-1.367 2.431,-0.911 4.412,-2.196 5.938,-3.853 1.525,-1.658 2.628,-3.627 3.309,-5.903 0.681,-2.277 1.023,-4.747 1.023,-7.414 0,-4.683 -0.939,-8.455 -2.815,-11.318 -1.877,-2.861 -4.885,-4.617 -9.025,-5.267 l 0,-0.194 c 4.333,-0.39 7.31,-1.918 8.926,-4.586 1.616,-2.668 2.426,-6.341 2.426,-11.023 l 0,-5.951 0,-2.829 c 0,-0.977 0.031,-1.903 0.098,-2.781 0.063,-0.876 0.161,-1.676 0.293,-2.39 0.128,-0.718 0.292,-1.268 0.488,-1.657 0.259,-0.392 0.519,-0.768 0.78,-1.122 0.258,-0.36 0.683,-0.702 1.268,-1.024 l 0,-0.976 -19.228,0 c -0.455,0.91 -0.794,1.981 -1.019,3.217 -0.226,1.236 -0.388,2.472 -0.485,3.707 -0.098,1.237 -0.162,2.422 -0.195,3.563 -0.032,1.135 -0.047,2.064 -0.047,2.778 l 0,4.685 c 0,1.95 -0.099,3.575 -0.294,4.877 -0.194,1.3 -0.536,2.323 -1.024,3.072 -0.487,0.748 -1.107,1.268 -1.854,1.562 -0.748,0.293 -1.675,0.439 -2.78,0.439 l -4.78,0 0,-27.9 -18.146,0 0,69.655 28.331,0 z"
             style="fill:#000000;fill-opacity:1;fill-rule:nonzero;stroke:none"
             id="path3260"
             inkscape:connector-curvature="0" /></g><g
           id="g3262"
           transform="translate(569.9072,143.1206)"><path
             d="m 0,0 c 0.244,0 0.476,0.008 0.693,0.024 0.219,0.016 0.413,0.061 0.583,0.136 0.17,0.074 0.306,0.189 0.407,0.343 0.1,0.154 0.151,0.369 0.151,0.646 0,0.234 -0.045,0.42 -0.136,0.558 C 1.608,1.845 1.491,1.952 1.348,2.026 1.204,2.101 1.039,2.151 0.854,2.178 0.667,2.204 0.483,2.218 0.303,2.218 l -1.436,0 L -1.133,0 0,0 z M 0.479,3.095 C 1.308,3.095 1.922,2.93 2.321,2.601 2.72,2.271 2.919,1.771 2.919,1.101 2.919,0.474 2.743,0.014 2.393,-0.279 2.042,-0.571 1.605,-0.744 1.084,-0.797 l 1.994,-3.079 -1.164,0 -1.898,2.999 -1.149,0 0,-2.999 -1.085,0 0,6.971 2.697,0 z M -4.442,-2.4 c 0.25,-0.622 0.594,-1.163 1.036,-1.62 0.441,-0.457 0.963,-0.816 1.563,-1.076 0.601,-0.261 1.253,-0.391 1.954,-0.391 0.692,0 1.335,0.13 1.931,0.391 0.595,0.26 1.113,0.619 1.555,1.076 0.441,0.457 0.787,0.998 1.037,1.62 0.25,0.622 0.375,1.3 0.375,2.033 0,0.713 -0.125,1.378 -0.375,1.994 C 4.384,2.244 4.038,2.778 3.597,3.23 3.155,3.683 2.637,4.039 2.042,4.299 1.446,4.56 0.803,4.69 0.111,4.69 -0.59,4.69 -1.242,4.56 -1.843,4.299 -2.443,4.039 -2.965,3.683 -3.406,3.23 -3.848,2.778 -4.192,2.244 -4.442,1.627 -4.692,1.011 -4.817,0.346 -4.817,-0.367 c 0,-0.733 0.125,-1.411 0.375,-2.033 m -0.982,4.379 c 0.32,0.722 0.752,1.35 1.3,1.882 0.548,0.532 1.186,0.949 1.915,1.252 0.728,0.303 1.501,0.454 2.32,0.454 0.82,0 1.59,-0.151 2.314,-0.454 C 3.147,4.81 3.78,4.393 4.323,3.861 4.865,3.329 5.296,2.701 5.615,1.979 5.935,1.255 6.093,0.474 6.093,-0.367 6.093,-1.228 5.935,-2.023 5.615,-2.751 5.296,-3.48 4.865,-4.113 4.323,-4.649 3.78,-5.187 3.147,-5.604 2.425,-5.902 1.701,-6.2 0.931,-6.349 0.111,-6.349 c -0.819,0 -1.592,0.149 -2.32,0.447 -0.729,0.298 -1.367,0.715 -1.915,1.253 -0.548,0.536 -0.98,1.169 -1.3,1.898 -0.318,0.728 -0.478,1.523 -0.478,2.384 0,0.841 0.16,1.622 0.478,2.346"
             style="fill:#000000;fill-opacity:1;fill-rule:nonzero;stroke:none"
             id="path3264"
             inkscape:connector-curvature="0" /></g></g></g></g></svg>
