<?xml version="1.0" encoding="UTF-8" standalone="no"?>
<!-- Created with Inkscape (http://www.inkscape.org/) -->

<svg
   xmlns:dc="http://purl.org/dc/elements/1.1/"
   xmlns:cc="http://creativecommons.org/ns#"
   xmlns:rdf="http://www.w3.org/1999/02/22-rdf-syntax-ns#"
   xmlns:svg="http://www.w3.org/2000/svg"
   xmlns="http://www.w3.org/2000/svg"
   xmlns:xlink="http://www.w3.org/1999/xlink"
   xmlns:sodipodi="http://sodipodi.sourceforge.net/DTD/sodipodi-0.dtd"
   xmlns:inkscape="http://www.inkscape.org/namespaces/inkscape"
   id="svg3101"
   version="1.1"
   inkscape:version="0.48.4 r9939"
   viewBox="0 0 934.76813 235.63177"
   width="100%"
   height="100%"
   x="0px"
   y="0px"
   xml:space="preserve"
   sodipodi:docname="miles.svg"><metadata
     id="metadata3107"><rdf:RDF><cc:Work
         rdf:about=""><dc:format>image/svg+xml</dc:format><dc:type
           rdf:resource="http://purl.org/dc/dcmitype/StillImage" /><dc:title></dc:title></cc:Work></rdf:RDF></metadata><defs
     id="defs3105"><clipPath
       clipPathUnits="userSpaceOnUse"
       id="clipPath3117"><path
         d="m 0,0 11873,0 0,8395.9 L 0,8395.9 0,0 z"
         id="path3119"
         inkscape:connector-curvature="0" /></clipPath><clipPath
       clipPathUnits="userSpaceOnUse"
       id="clipPath3131"><path
         d="m 3744.6,3499.46 c 250.92,195.04 357.8,537.36 240.55,850.66 -5.05,13.22 -10.36,26.25 -15.94,39.02 -74.62,-0.08 -149.52,-4.17 -224.59,-12.28 l -0.02,-877.4 z m -520.17,753.78 c -21.44,-8.02 -42.68,-16.4 -63.7,-25.06 l -0.03,-875.35 c 125.89,-21.62 258.89,-11.18 387.11,36.84 31.24,11.68 61.2,25.26 89.88,40.49 l 0.01,932.43 c -138.48,-22.12 -276.85,-58.3 -413.27,-109.35 z m -650.94,-386.48 c 4.17,-13.34 8.71,-26.62 13.64,-39.85 82.72,-220.8 258.83,-379.23 466.67,-447.45 l 0.03,801.37 c -177.09,-84.23 -337.89,-190.41 -480.34,-314.07 z m 450.96,920.62 c -330.48,-123.71 -521.53,-456.6 -478.99,-792 183.54,156.33 396.89,283.96 635.76,373.35 238.78,89.42 483.55,133.2 724.61,135.8 -188.26,280.85 -550.97,406.52 -881.38,282.85 z"
         id="path3133"
         inkscape:connector-curvature="0" /></clipPath><radialGradient
       fx="0"
       fy="0"
       cx="0"
       cy="0"
       r="1"
       gradientUnits="userSpaceOnUse"
       gradientTransform="matrix(80.6076,-0.00966054,0,-80.5883,362.516,438.102)"
       spreadMethod="pad"
       id="radialGradient3135"><stop
         style="stop-opacity:1;stop-color:#ffffff"
         offset="0"
         id="stop3137" /><stop
         style="stop-opacity:1;stop-color:#f47016"
         offset="0.455814"
         id="stop3139" /><stop
         style="stop-opacity:1;stop-color:#ed1c24"
         offset="1"
         id="stop3141" /></radialGradient><clipPath
       clipPathUnits="userSpaceOnUse"
       id="clipPath3149"><path
         d="m 6285.58,3284.96 -105.87,0 c 0,0 -15.97,2 -15.97,15.98 l 0,794.98 c 0,249.68 -243.68,249.68 -243.68,249.68 l -53.93,0 c 0,0 -245.7,0 -245.7,-249.68 l 0.01,-794.98 c 0,-15.98 -15.97,-15.98 -15.97,-15.98 l -103.88,0 c -13.97,0 -15.98,15.98 -15.98,15.98 l 0,794.98 c 0,249.68 -245.68,249.68 -245.68,249.68 l -53.93,0 c 0,0 -241.69,0 -241.69,-249.68 l 0.01,-794.98 c 0,-13.98 -15.98,-15.98 -15.98,-15.98 l -107.86,0 c -13.98,0 -15.98,15.98 -15.98,15.98 l 0,804.97 c 0,385.49 375.51,377.51 381.5,377.51 l 53.92,0 c 143.83,0 231.71,-53.92 313.6,-151.81 81.9,97.89 169.79,151.81 313.61,151.81 l 53.93,0 c 5.99,0 381.49,7.98 381.49,-377.51 l 0,-804.97 c 0,0 -1.99,-15.98 -15.97,-15.98 z"
         id="path3151"
         inkscape:connector-curvature="0" /></clipPath><linearGradient
       x1="0"
       y1="0"
       x2="1"
       y2="0"
       gradientUnits="userSpaceOnUse"
       gradientTransform="matrix(-494.5,1.92565e-4,1.92565e-4,494.5,974.384,388.42)"
       spreadMethod="pad"
       id="linearGradient3153"><stop
         style="stop-opacity:1;stop-color:#f47016"
         offset="0"
         id="stop3155" /><stop
         style="stop-opacity:1;stop-color:#ed1c24"
         offset="1"
         id="stop3157" /></linearGradient><clipPath
       clipPathUnits="userSpaceOnUse"
       id="clipPath3165"><path
         d="m 6627.33,3284.96 -105.86,0 c 0,0 -15.98,0 -15.98,15.98 l -0.01,1166.5 c 0,15.98 15.98,15.98 15.98,15.98 l 105.86,0 c 17.99,0 15.99,-15.98 15.99,-15.98 l 0,-1166.5 c 0,0 2,-15.98 -15.98,-15.98 z m -0.01,1462.12 -105.86,0 c 0,0 -15.98,0 -15.98,15.97 l 0,103.87 c 0,15.99 15.98,15.99 15.98,15.99 l 105.86,0 c 17.99,0 15.99,-15.99 15.99,-15.99 l 0,-103.87 c 0,0 2,-15.97 -15.99,-15.97 z"
         id="path3167"
         inkscape:connector-curvature="0" /></clipPath><linearGradient
       x1="0"
       y1="0"
       x2="1"
       y2="0"
       gradientUnits="userSpaceOnUse"
       gradientTransform="matrix(-494.518,1.92572e-4,1.92572e-4,494.518,975.806,408.394)"
       spreadMethod="pad"
       id="linearGradient3169"><stop
         style="stop-opacity:1;stop-color:#f47016"
         offset="0"
         id="stop3171" /><stop
         style="stop-opacity:1;stop-color:#ed1c24"
         offset="1"
         id="stop3173" /></linearGradient><clipPath
       clipPathUnits="userSpaceOnUse"
       id="clipPath3181"><path
         d="m 6992.99,3300.94 c 0,0 -1.99,-15.98 -15.97,-15.98 l -107.86,0 c -13.99,0 -15.98,15.98 -15.98,15.98 l -0.01,1565.98 c 0,13.99 15.99,15.99 15.99,15.99 l 107.86,0 c 13.97,0 15.97,-15.99 15.97,-15.99 l 0,-1565.98 z"
         id="path3183"
         inkscape:connector-curvature="0" /></clipPath><linearGradient
       x1="0"
       y1="0"
       x2="1"
       y2="0"
       gradientUnits="userSpaceOnUse"
       gradientTransform="matrix(-494.538,1.9258e-4,1.9258e-4,494.538,975.816,408.394)"
       spreadMethod="pad"
       id="linearGradient3185"><stop
         style="stop-opacity:1;stop-color:#f47016"
         offset="0"
         id="stop3187" /><stop
         style="stop-opacity:1;stop-color:#ed1c24"
         offset="1"
         id="stop3189" /></linearGradient><clipPath
       clipPathUnits="userSpaceOnUse"
       id="clipPath3197"><path
         d="m 7806.54,4345.6 -215.66,0 c -251.67,0 -251.67,-249.68 -251.67,-249.68 l 0,-423.46 c 0,-89.88 31.97,-123.84 31.97,-123.84 0,0 385.44,187.76 505.28,249.69 0,0 183.75,89.88 183.75,191.74 0,77.89 0,57.93 0,105.87 0,249.68 -253.67,249.68 -253.67,249.68 z m 375.51,-1060.64 -601.15,0 c -231.7,0 -381.51,145.82 -381.51,375.52 l 0,457.41 c 0,223.72 171.79,365.53 391.49,365.53 l 215.66,0 c 5.98,0 391.49,-2.01 391.49,-387.5 l 0,-105.87 c 0,-49.93 -11.99,-197.73 -259.67,-319.59 l -463.32,-225.69 c 0,0 19.97,-21.99 59.92,-21.99 l 647.09,0 c 0,0 15.98,0 15.98,-15.97 l 0,-105.87 c 0.01,-17.97 -15.98,-15.98 -15.98,-15.98 z"
         id="path3199"
         inkscape:connector-curvature="0" /></clipPath><linearGradient
       x1="0"
       y1="0"
       x2="1"
       y2="0"
       gradientUnits="userSpaceOnUse"
       gradientTransform="matrix(-494.508,1.92569e-4,1.92569e-4,494.508,979.455,388.416)"
       spreadMethod="pad"
       id="linearGradient3201"><stop
         style="stop-opacity:1;stop-color:#f47016"
         offset="0"
         id="stop3203" /><stop
         style="stop-opacity:1;stop-color:#ed1c24"
         offset="1"
         id="stop3205" /></linearGradient><clipPath
       clipPathUnits="userSpaceOnUse"
       id="clipPath3213"><path
         d="m 9041.03,3284.96 -627.17,0 c 0,0 -15.98,2 -15.98,15.98 l 0,105.87 c 0,13.98 15.98,15.97 15.98,15.97 l 601.21,0 c 261.66,0 347.56,249.68 53.93,337.57 l -417.46,125.85 c -277.65,83.88 -253.66,305.6 -253.66,305.6 0,297.6 387.48,291.62 387.48,291.62 l 595.24,0 c 0,0 15.99,-2.01 15.99,-15.98 l 0,-105.86 c 0,-13.99 -15.99,-15.98 -15.99,-15.98 l -601.24,0 c -265.66,0 -341.53,-251.66 -53.92,-337.56 l 417.48,-125.85 c 267.63,-79.88 253.67,-283.62 253.67,-283.62 0,-315.6 -355.56,-313.61 -355.56,-313.61 z"
         id="path3215"
         inkscape:connector-curvature="0" /></clipPath><linearGradient
       x1="0"
       y1="0"
       x2="1"
       y2="0"
       gradientUnits="userSpaceOnUse"
       gradientTransform="matrix(-494.497,1.92564e-4,1.92564e-4,494.497,979.451,388.419)"
       spreadMethod="pad"
       id="linearGradient3217"><stop
         style="stop-opacity:1;stop-color:#f47016"
         offset="0"
         id="stop3219" /><stop
         style="stop-opacity:1;stop-color:#ed1c24"
         offset="1"
         id="stop3221" /></linearGradient><clipPath
       clipPathUnits="userSpaceOnUse"
       id="clipPath3229"><path
         d="m 0,0 0,8396 11873,0 L 11873,0 0,0 z"
         id="path3231"
         inkscape:connector-curvature="0" /></clipPath><radialGradient
       inkscape:collect="always"
       xlink:href="#radialGradient3135"
       id="radialGradient3288"
       gradientUnits="userSpaceOnUse"
       gradientTransform="matrix(80.6076,-0.00966054,0,-80.5883,362.516,438.102)"
       spreadMethod="pad"
       cx="0"
       cy="0"
       fx="0"
       fy="0"
       r="1" /><linearGradient
       inkscape:collect="always"
       xlink:href="#linearGradient3153"
       id="linearGradient3290"
       gradientUnits="userSpaceOnUse"
       gradientTransform="matrix(-494.5,1.92565e-4,1.92565e-4,494.5,974.384,388.42)"
       spreadMethod="pad"
       x1="0"
       y1="0"
       x2="1"
       y2="0" /><linearGradient
       inkscape:collect="always"
       xlink:href="#linearGradient3169"
       id="linearGradient3292"
       gradientUnits="userSpaceOnUse"
       gradientTransform="matrix(-494.518,1.92572e-4,1.92572e-4,494.518,975.806,408.394)"
       spreadMethod="pad"
       x1="0"
       y1="0"
       x2="1"
       y2="0" /><linearGradient
       inkscape:collect="always"
       xlink:href="#linearGradient3185"
       id="linearGradient3294"
       gradientUnits="userSpaceOnUse"
       gradientTransform="matrix(-494.538,1.9258e-4,1.9258e-4,494.538,975.816,408.394)"
       spreadMethod="pad"
       x1="0"
       y1="0"
       x2="1"
       y2="0" /><linearGradient
       inkscape:collect="always"
       xlink:href="#linearGradient3201"
       id="linearGradient3296"
       gradientUnits="userSpaceOnUse"
       gradientTransform="matrix(-494.508,1.92569e-4,1.92569e-4,494.508,979.455,388.416)"
       spreadMethod="pad"
       x1="0"
       y1="0"
       x2="1"
       y2="0" /><linearGradient
       inkscape:collect="always"
       xlink:href="#linearGradient3217"
       id="linearGradient3298"
       gradientUnits="userSpaceOnUse"
       gradientTransform="matrix(-494.497,1.92564e-4,1.92564e-4,494.497,979.451,388.419)"
       spreadMethod="pad"
       x1="0"
       y1="0"
       x2="1"
       y2="0" /></defs><sodipodi:namedview
     pagecolor="#ffffff"
     bordercolor="#666666"
     borderopacity="1"
     objecttolerance="10"
     gridtolerance="10"
     guidetolerance="10"
     inkscape:pageopacity="0"
     inkscape:pageshadow="2"
     inkscape:window-width="1600"
     inkscape:window-height="876"
     id="namedview3103"
     showgrid="false"
     fit-margin-top="0"
     fit-margin-left="-2.7755576e-17"
     fit-margin-right="0"
     fit-margin-bottom="0"
     inkscape:zoom="0.20685416"
     inkscape:cx="449.16938"
     inkscape:cy="131.5242"
     inkscape:window-x="0"
     inkscape:window-y="24"
     inkscape:window-maximized="1"
     inkscape:current-layer="g3109" /><g
     id="g3109"
     inkscape:groupmode="layer"
     inkscape:label="ink_ext_XXXXXX"
     transform="matrix(1.25,0,0,-1.25,-292.89935,628.85162)"><path
       inkscape:connector-curvature="0"
       id="path3123"
       style="fill:#ffffff;fill-opacity:1;fill-rule:nonzero;stroke:none"
       d="m 293.111,331.43 c -20.69,9.41 -36.474,26.32 -44.444,47.601 -7.967,21.282 -7.173,44.391 2.243,65.072 9.417,20.68 26.326,36.458 47.611,44.423 l 0,0 c 43.936,16.441 93.069,-5.921 109.524,-49.855 16.448,-43.929 -5.917,-93.045 -49.856,-109.49 -21.283,-7.965 -44.39,-7.167 -65.078,2.249" /><path
       inkscape:connector-curvature="0"
       id="path3125"
       style="fill:#ed1c24;fill-opacity:1;fill-rule:nonzero;stroke:none"
       d="m 293.843,332.458 c -20.414,9.286 -35.988,25.969 -43.85,46.965 -7.861,20.997 -7.077,43.799 2.213,64.202 9.29,20.406 25.974,35.974 46.974,43.834 l 0,0 c 43.345,16.225 91.822,-5.836 108.058,-49.183 16.226,-43.343 -5.836,-91.805 -49.19,-108.034 -20.999,-7.86 -43.796,-7.072 -64.205,2.216 z m 1.727,164.638 0,0 c -23.577,-8.824 -42.303,-26.299 -52.731,-49.206 -10.429,-22.904 -11.314,-48.502 -2.485,-72.072 8.829,-23.573 26.311,-42.299 49.227,-52.727 22.91,-10.427 48.506,-11.306 72.078,-2.482 48.663,18.214 73.434,72.62 55.216,121.276 -18.227,48.66 -72.643,73.426 -121.305,55.211" /><g
       id="g3264"><g
         transform="scale(0.1,0.1)"
         id="g3127"><g
           id="g3129"
           clip-path="url(#clipPath3131)"><path
             d="m 3744.6,3499.46 c 250.92,195.04 357.8,537.36 240.55,850.66 -5.05,13.22 -10.36,26.25 -15.94,39.02 -74.62,-0.08 -149.52,-4.17 -224.59,-12.28 l -0.02,-877.4 z m -520.17,753.78 c -21.44,-8.02 -42.68,-16.4 -63.7,-25.06 l -0.03,-875.35 c 125.89,-21.62 258.89,-11.18 387.11,36.84 31.24,11.68 61.2,25.26 89.88,40.49 l 0.01,932.43 c -138.48,-22.12 -276.85,-58.3 -413.27,-109.35 z m -650.94,-386.48 c 4.17,-13.34 8.71,-26.62 13.64,-39.85 82.72,-220.8 258.83,-379.23 466.67,-447.45 l 0.03,801.37 c -177.09,-84.23 -337.89,-190.41 -480.34,-314.07 z m 450.96,920.62 c -330.48,-123.71 -521.53,-456.6 -478.99,-792 183.54,156.33 396.89,283.96 635.76,373.35 238.78,89.42 483.55,133.2 724.61,135.8 -188.26,280.85 -550.97,406.52 -881.38,282.85"
             style="fill:url(#radialGradient3288);fill-opacity:1;fill-rule:nonzero;stroke:none"
             id="path3143"
             inkscape:connector-curvature="0" /></g></g><g
         transform="scale(0.1,0.1)"
         id="g3145"><g
           id="g3147"
           clip-path="url(#clipPath3149)"><path
             d="m 6285.58,3284.96 -105.87,0 c 0,0 -15.97,2 -15.97,15.98 l 0,794.98 c 0,249.68 -243.68,249.68 -243.68,249.68 l -53.93,0 c 0,0 -245.7,0 -245.7,-249.68 l 0.01,-794.98 c 0,-15.98 -15.97,-15.98 -15.97,-15.98 l -103.88,0 c -13.97,0 -15.98,15.98 -15.98,15.98 l 0,794.98 c 0,249.68 -245.68,249.68 -245.68,249.68 l -53.93,0 c 0,0 -241.69,0 -241.69,-249.68 l 0.01,-794.98 c 0,-13.98 -15.98,-15.98 -15.98,-15.98 l -107.86,0 c -13.98,0 -15.98,15.98 -15.98,15.98 l 0,804.97 c 0,385.49 375.51,377.51 381.5,377.51 l 53.92,0 c 143.83,0 231.71,-53.92 313.6,-151.81 81.9,97.89 169.79,151.81 313.61,151.81 l 53.93,0 c 5.99,0 381.49,7.98 381.49,-377.51 l 0,-804.97 c 0,0 -1.99,-15.98 -15.97,-15.98"
             style="fill:url(#linearGradient3290);fill-opacity:1;fill-rule:nonzero;stroke:none"
             id="path3159"
             inkscape:connector-curvature="0" /></g></g><g
         transform="scale(0.1,0.1)"
         id="g3161"><g
           id="g3163"
           clip-path="url(#clipPath3165)"><path
             d="m 6627.33,3284.96 -105.86,0 c 0,0 -15.98,0 -15.98,15.98 l -0.01,1166.5 c 0,15.98 15.98,15.98 15.98,15.98 l 105.86,0 c 17.99,0 15.99,-15.98 15.99,-15.98 l 0,-1166.5 c 0,0 2,-15.98 -15.98,-15.98 z m -0.01,1462.12 -105.86,0 c 0,0 -15.98,0 -15.98,15.97 l 0,103.87 c 0,15.99 15.98,15.99 15.98,15.99 l 105.86,0 c 17.99,0 15.99,-15.99 15.99,-15.99 l 0,-103.87 c 0,0 2,-15.97 -15.99,-15.97"
             style="fill:url(#linearGradient3292);fill-opacity:1;fill-rule:nonzero;stroke:none"
             id="path3175"
             inkscape:connector-curvature="0" /></g></g><g
         transform="scale(0.1,0.1)"
         id="g3177"><g
           id="g3179"
           clip-path="url(#clipPath3181)"><path
             d="m 6992.99,3300.94 c 0,0 -1.99,-15.98 -15.97,-15.98 l -107.86,0 c -13.99,0 -15.98,15.98 -15.98,15.98 l -0.01,1565.98 c 0,13.99 15.99,15.99 15.99,15.99 l 107.86,0 c 13.97,0 15.97,-15.99 15.97,-15.99 l 0,-1565.98"
             style="fill:url(#linearGradient3294);fill-opacity:1;fill-rule:nonzero;stroke:none"
             id="path3191"
             inkscape:connector-curvature="0" /></g></g><g
         transform="scale(0.1,0.1)"
         id="g3193"><g
           id="g3195"
           clip-path="url(#clipPath3197)"><path
             d="m 7806.54,4345.6 -215.66,0 c -251.67,0 -251.67,-249.68 -251.67,-249.68 l 0,-423.46 c 0,-89.88 31.97,-123.84 31.97,-123.84 0,0 385.44,187.76 505.28,249.69 0,0 183.75,89.88 183.75,191.74 0,77.89 0,57.93 0,105.87 0,249.68 -253.67,249.68 -253.67,249.68 z m 375.51,-1060.64 -601.15,0 c -231.7,0 -381.51,145.82 -381.51,375.52 l 0,457.41 c 0,223.72 171.79,365.53 391.49,365.53 l 215.66,0 c 5.98,0 391.49,-2.01 391.49,-387.5 l 0,-105.87 c 0,-49.93 -11.99,-197.73 -259.67,-319.59 l -463.32,-225.69 c 0,0 19.97,-21.99 59.92,-21.99 l 647.09,0 c 0,0 15.98,0 15.98,-15.97 l 0,-105.87 c 0.01,-17.97 -15.98,-15.98 -15.98,-15.98"
             style="fill:url(#linearGradient3296);fill-opacity:1;fill-rule:nonzero;stroke:none"
             id="path3207"
             inkscape:connector-curvature="0" /></g></g><g
         transform="scale(0.1,0.1)"
         id="g3209"><g
           id="g3211"
           clip-path="url(#clipPath3213)"><path
             d="m 9041.03,3284.96 -627.17,0 c 0,0 -15.98,2 -15.98,15.98 l 0,105.87 c 0,13.98 15.98,15.97 15.98,15.97 l 601.21,0 c 261.66,0 347.56,249.68 53.93,337.57 l -417.46,125.85 c -277.65,83.88 -253.66,305.6 -253.66,305.6 0,297.6 387.48,291.62 387.48,291.62 l 595.24,0 c 0,0 15.99,-2.01 15.99,-15.98 l 0,-105.86 c 0,-13.99 -15.99,-15.98 -15.99,-15.98 l -601.24,0 c -265.66,0 -341.53,-251.66 -53.92,-337.56 l 417.48,-125.85 c 267.63,-79.88 253.67,-283.62 253.67,-283.62 0,-315.6 -355.56,-313.61 -355.56,-313.61"
             style="fill:url(#linearGradient3298);fill-opacity:1;fill-rule:nonzero;stroke:none"
             id="path3223"
             inkscape:connector-curvature="0" /></g></g><g
         transform="scale(0.1,0.1)"
         id="g3225"><g
           id="g3227"
           clip-path="url(#clipPath3229)"><path
             d="m 9630.23,3399.45 -33.52,0.13 0.1,-111.63 c 0,0 0.04,-4.25 -4.28,-4.24 l -15.69,0.02 c -4.28,0.02 -4.28,4.31 -4.28,4.31 l -0.11,111.64 -33.52,0.12 c 0,0 -4.3,0.02 -4.33,4.28 l 0,14.5 c 0,4.25 4.28,4.23 4.28,4.23 l 91.34,-0.1 c 0,0 4.29,-0.26 4.29,-4.52 l 0.01,-14.48 c 0.02,-4.27 -4.29,-4.26 -4.29,-4.26"
             style="fill:#f47016;fill-opacity:1;fill-rule:nonzero;stroke:none"
             id="path3233"
             inkscape:connector-curvature="0" /><path
             d="m 9815.45,3284.01 -11.72,-0.22 c 0,0 -5.87,0.04 -5.86,5.87 l 0.04,86.06 c -0.01,23.27 -23.44,23.4 -23.44,23.4 l -5.85,0.05 c 0,0 -23.43,0.15 -23.45,-23.09 l -0.01,-86.38 c -0.02,-5.83 -5.88,-5.78 -5.88,-5.78 l -11.71,0.09 c -5.87,0.03 -5.86,5.84 -5.86,5.84 l 0.04,86.37 c 0.01,23.24 -23.42,23.41 -23.42,23.41 l -5.86,0.03 c 0,0 -23.42,0.16 -23.44,-23.09 l -0.03,-87.1 c 0.01,-5.81 -5.86,-5.76 -5.86,-5.76 l -11.72,0.06 c -5.84,0.03 -5.85,5.86 -5.85,5.86 l 0.04,88.27 c 0.01,46.5 46.88,45.02 46.88,45.02 l 5.85,-0.03 c 17.33,-0.12 28.34,-6.71 35.13,-14.67 6.8,7.88 17.82,14.31 35.13,14.2 l 5.87,-0.05 c 0,0 46.87,0.87 46.87,-45.64 l -0.05,-86.93 c 0,0 0.01,-5.82 -5.84,-5.79"
             style="fill:#f47016;fill-opacity:1;fill-rule:nonzero;stroke:none"
             id="path3235"
             inkscape:connector-curvature="0" /></g></g></g></g></svg>
