<?xml version="1.0" encoding="UTF-8" standalone="no"?>
<!-- Created with Inkscape (http://www.inkscape.org/) -->

<svg
   xmlns:dc="http://purl.org/dc/elements/1.1/"
   xmlns:cc="http://creativecommons.org/ns#"
   xmlns:rdf="http://www.w3.org/1999/02/22-rdf-syntax-ns#"
   xmlns:svg="http://www.w3.org/2000/svg"
   xmlns="http://www.w3.org/2000/svg"
   xmlns:sodipodi="http://sodipodi.sourceforge.net/DTD/sodipodi-0.dtd"
   xmlns:inkscape="http://www.inkscape.org/namespaces/inkscape"
   id="svg3942"
   version="1.1"
   inkscape:version="0.48.3.1 r9886"
   viewBox="0 0 135.44 47.09"
   width="100%"
   height="100%"
   x="0px"
   y="0px"
   xml:space="preserve"
   sodipodi:docname="Nokia_brandmark_logo_blue_vector_RGB.ai"><metadata
     id="metadata3948"><rdf:RDF><cc:Work
         rdf:about=""><dc:format>image/svg+xml</dc:format><dc:type
           rdf:resource="http://purl.org/dc/dcmitype/StillImage" /><dc:title></dc:title></cc:Work></rdf:RDF></metadata><defs
     id="defs3946"><clipPath
       clipPathUnits="userSpaceOnUse"
       id="clipPath3956"><path
         d="m 0,193.988 199.127,0 L 199.127,0 0,0 0,193.988 z"
         id="path3958"
         inkscape:connector-curvature="0" /></clipPath></defs><sodipodi:namedview
     pagecolor="#ffffff"
     bordercolor="#666666"
     borderopacity="1"
     objecttolerance="10"
     gridtolerance="10"
     guidetolerance="10"
     inkscape:pageopacity="0"
     inkscape:pageshadow="2"
     inkscape:window-width="1855"
     inkscape:window-height="1056"
     id="namedview3944"
     showgrid="false"
     fit-margin-top="0"
     fit-margin-left="0"
     fit-margin-right="0"
     fit-margin-bottom="0"
     inkscape:zoom="2.7527839"
     inkscape:cx="77.710115"
     inkscape:cy="-14.951365"
     inkscape:window-x="65"
     inkscape:window-y="24"
     inkscape:window-maximized="1"
     inkscape:current-layer="g3950" /><g
     id="g3950"
     inkscape:groupmode="layer"
     inkscape:label="Nokia_brandmark_logo_blue_vector_RGB"
     transform="matrix(1.25,0,0,-1.25,-56.573625,185.70987)"><g
       id="g3960"
       transform="translate(148.9189,118.4199)"><path
         d="M 0,0 C 0.142,1.099 0.621,1.775 1.677,1.775 2.692,1.775 3.156,1.142 3.242,0 L 0,0 z m 4.692,-0.845 c 0,2.719 -1.113,3.874 -3.015,3.874 -2.057,0 -3.17,-1.479 -3.17,-3.691 0,-2.424 1.31,-3.748 3.522,-3.748 1.213,0 2.043,0.352 2.255,0.479 l -0.38,1.126 C 3.636,-2.903 3.03,-3.114 2.128,-3.114 c -1.366,0 -2.057,0.789 -2.156,1.972 l 4.72,0 0,0.297 z m -8.806,-3.383 1.465,0 0,10.568 -1.465,0 0,-10.568 z m -4.524,1.156 c -0.69,0 -1.282,0.282 -1.592,0.564 l 0,1.493 c 0,1.748 0.493,2.705 1.733,2.705 1.197,0 1.705,-0.902 1.705,-2.31 0,-1.719 -0.733,-2.452 -1.846,-2.452 m 0.394,6.101 c -1.07,0 -1.803,-0.606 -2.057,-1.084 l -0.056,0.901 -1.338,0 0,-10.173 1.465,0 0,3.438 c 0.436,-0.254 1.014,-0.465 1.79,-0.465 1.562,0 3.156,1.029 3.156,3.734 0,2.071 -0.945,3.649 -2.96,3.649 m -7.849,-6.143 c -1.198,0 -1.761,0.93 -1.761,2.424 0,1.465 0.591,2.409 1.761,2.409 1.212,0 1.789,-0.973 1.789,-2.409 0,-1.48 -0.563,-2.424 -1.789,-2.424 m 0,6.143 c -2.043,0 -3.268,-1.479 -3.268,-3.719 0,-2.255 1.225,-3.72 3.268,-3.72 2.072,0 3.283,1.451 3.283,3.72 0,2.254 -1.226,3.719 -3.283,3.719 M -24.971,0 c 0.142,1.099 0.62,1.775 1.677,1.775 1.015,0 1.48,-0.633 1.565,-1.775 l -3.242,0 z m 1.677,3.029 c -2.058,0 -3.171,-1.479 -3.171,-3.691 0,-2.424 1.312,-3.748 3.524,-3.748 1.212,0 2.043,0.352 2.253,0.479 l -0.379,1.126 c -0.268,-0.098 -0.874,-0.309 -1.776,-0.309 -1.367,0 -2.057,0.789 -2.156,1.972 l 4.721,0 0,0.297 c 0,2.719 -1.114,3.874 -3.016,3.874 m -7.116,-2.324 -1.255,0 0,3.649 1.367,0 c 1.113,0 1.888,-0.634 1.888,-1.832 0,-1.198 -0.775,-1.817 -2,-1.817 m 0.127,4.974 -2.875,0 0,-9.907 1.493,0 0,3.608 1.269,0 c 2.648,0 3.508,1.719 3.508,3.142 0,1.437 -0.86,3.157 -3.395,3.157 M -41.22,-1.042 c -0.788,0 -1.562,0.422 -1.562,1.493 0,1.071 0.761,1.494 1.562,1.494 0.776,0 1.537,-0.423 1.537,-1.494 0,-1.086 -0.761,-1.493 -1.537,-1.493 m -1.592,-3.382 c 0.212,-0.057 0.691,-0.127 1.296,-0.141 l 1.242,-0.043 c 0.873,-0.027 1.112,-0.295 1.112,-0.704 0,-0.677 -0.859,-1.071 -2.24,-1.071 -1.03,0 -1.831,0.197 -1.831,0.972 0,0.423 0.182,0.747 0.421,0.987 m 1.592,7.453 c -1.437,0 -3,-0.69 -3,-2.578 0,-0.719 0.239,-1.339 0.676,-1.761 -0.367,-0.339 -0.775,-0.874 -0.775,-1.508 0,-0.41 0.127,-0.873 0.549,-1.198 -0.479,-0.38 -0.873,-0.902 -0.873,-1.564 0,-1.592 1.789,-1.944 3.17,-1.944 2.452,0 3.832,0.971 3.832,2.353 0,1.45 -1.14,1.803 -2.621,1.859 l -1.464,0.058 c -1.086,0.026 -1.283,0.337 -1.283,0.732 0,0.281 0.227,0.535 0.352,0.634 0.41,-0.154 0.973,-0.254 1.437,-0.254 1.451,0 2.959,0.62 2.959,2.494 0,0.451 -0.154,1.071 -0.577,1.451 0.239,-0.028 0.507,-0.042 0.747,-0.042 l 0.479,0 0,1.085 -1.832,0 c -0.535,0 -0.901,0.183 -1.776,0.183 m -6.678,0 c -1.254,0 -1.946,-0.648 -2.227,-1.127 l -0.07,0.944 -1.339,0 0,-7.074 1.465,0 0,3.34 c 0,1.31 0.423,2.607 1.776,2.607 0.803,0 1.339,-0.366 1.339,-1.663 l 0,-4.284 1.465,0 0,4.552 c 0,1.676 -0.789,2.705 -2.409,2.705 m -5.947,3.001 c -0.592,0 -0.902,-0.394 -0.902,-0.959 0,-0.534 0.31,-0.956 0.902,-0.956 0.577,0 0.874,0.393 0.874,0.956 0,0.579 -0.297,0.959 -0.874,0.959 m -0.733,-10.258 1.465,0 0,7.073 -1.465,0 0,-7.073 z m -1.973,1.114 c -0.705,0 -1.226,0.183 -1.226,1.17 l 0,3.522 1.958,0 0,1.268 -1.958,0 0,2.255 -1.465,-0.381 0,-1.874 -1.015,0 -0.169,-1.268 1.184,0 0,-3.72 c 0,-1.437 0.69,-2.212 2.31,-2.212 0.606,0 1.085,0.099 1.353,0.197 l -0.127,1.17 c -0.154,-0.043 -0.522,-0.127 -0.845,-0.127 m -6.299,0.028 c -1.057,0 -1.832,0.732 -1.832,2.396 0,1.395 0.62,2.338 2.085,2.338 0.578,0 1.184,-0.225 1.368,-0.31 l 0.252,1.282 c -0.267,0.128 -0.901,0.395 -1.859,0.395 -2.339,0 -3.339,-1.761 -3.339,-3.705 0,-2.297 1.197,-3.72 3.226,-3.72 1.212,0 2.114,0.479 2.297,0.605 l -0.479,1.1 c -0.395,-0.184 -0.958,-0.381 -1.719,-0.381 M -71.7,0 c 0.141,1.099 0.62,1.775 1.677,1.775 1.014,0 1.48,-0.633 1.564,-1.775 L -71.7,0 z m 1.677,3.029 c -2.057,0 -3.17,-1.479 -3.17,-3.691 0,-2.424 1.31,-3.748 3.523,-3.748 1.211,0 2.042,0.352 2.253,0.479 l -0.38,1.126 c -0.267,-0.098 -0.873,-0.309 -1.775,-0.309 -1.367,0 -2.057,0.789 -2.157,1.972 l 4.721,0 0,0.297 c 0,2.719 -1.113,3.874 -3.015,3.874 m -6.736,0 c -1.254,0 -1.945,-0.648 -2.226,-1.127 l -0.071,0.944 -1.338,0 0,-7.074 1.464,0 0,3.34 c 0,1.31 0.424,2.607 1.777,2.607 0.802,0 1.338,-0.366 1.338,-1.663 l 0,-4.284 1.465,0 0,4.552 c 0,1.676 -0.789,2.705 -2.409,2.705 m -7.554,0 c -1.253,0 -1.944,-0.648 -2.226,-1.127 l -0.07,0.944 -1.339,0 0,-7.074 1.465,0 0,3.34 c 0,1.31 0.423,2.607 1.776,2.607 0.803,0 1.338,-0.366 1.338,-1.663 l 0,-4.284 1.466,0 0,4.552 c 0,1.676 -0.789,2.705 -2.41,2.705 m -8.06,-6.143 c -1.198,0 -1.761,0.93 -1.761,2.424 0,1.465 0.591,2.409 1.761,2.409 1.212,0 1.789,-0.973 1.789,-2.409 0,-1.48 -0.563,-2.424 -1.789,-2.424 m 0,6.143 c -2.043,0 -3.269,-1.479 -3.269,-3.719 0,-2.255 1.226,-3.72 3.269,-3.72 2.071,0 3.283,1.451 3.283,3.72 0,2.254 -1.226,3.719 -3.283,3.719 m -6.863,1.396 c 1.099,0 1.733,-0.41 2.212,-0.776 l 0.761,1.113 c -0.761,0.663 -1.747,1.085 -3.044,1.085 -2.874,0 -4.353,-2.141 -4.353,-5.157 0,-3.17 1.465,-5.086 4.241,-5.086 1.409,0 2.493,0.465 3.142,1 l -0.635,1.184 c -0.394,-0.296 -1.31,-0.761 -2.395,-0.761 -1.874,0 -2.734,1.451 -2.734,3.663 0,2.269 0.902,3.735 2.805,3.735 m 87.134,15.061 3.37,6.177 3.361,-6.177 -6.731,0 z m 6.892,10.381 -6.743,0 -9.602,-17.046 5.98,0 1.593,2.963 10.486,0 1.602,-2.963 6.283,0 -9.599,17.046 z m -17.349,0 -5.431,0 0,-17.045 5.431,0 0,17.045 z m -17.32,-7.971 9.648,7.971 -7.143,0 -9.159,-8.159 9.889,-8.887 7.663,0 -10.898,9.075 z m -12.075,7.971 0,-17.046 5.421,0 0,8.887 0,8.159 -5.421,0 z m -7.009,-11.095 c 0,-0.995 -0.108,-1.301 -0.381,-1.537 -0.276,-0.243 -0.706,-0.31 -1.889,-0.31 l -8.422,0 c -1.186,0 -1.601,0.067 -1.893,0.31 -0.257,0.236 -0.373,0.542 -0.373,1.537 l 0,5.204 c 0,1.006 0.116,1.299 0.373,1.533 0.292,0.256 0.707,0.317 1.893,0.317 l 8.422,0 c 1.183,0 1.613,-0.061 1.889,-0.317 0.273,-0.234 0.381,-0.527 0.381,-1.533 l 0,-5.204 z m 4.889,5.887 c 0,2.368 -0.438,3.184 -1.145,3.966 -1.105,1.169 -2.719,1.523 -5.793,1.523 l -8.862,0 c -3.09,0 -4.687,-0.354 -5.79,-1.523 -0.706,-0.782 -1.152,-1.598 -1.152,-3.966 l 0,-6.571 c 0,-2.367 0.446,-3.185 1.152,-3.966 1.103,-1.177 2.7,-1.527 5.79,-1.527 l 8.862,0 c 3.074,0 4.688,0.35 5.793,1.527 0.707,0.781 1.145,1.599 1.145,3.966 l 0,6.571 z m -44.094,1.106 10.478,-12.944 8.791,0 0,17.046 -5.189,0 0,-12.724 -10.292,12.724 -8.971,0 0,-17.046 5.183,0 0,12.944 z"
         style="fill:#124191;fill-opacity:1;fill-rule:nonzero;stroke:none"
         id="path3962"
         inkscape:connector-curvature="0" /></g></g></svg>
