<?xml version="1.0" encoding="UTF-8" standalone="no"?>
<!-- Created with Inkscape (http://www.inkscape.org/) -->

<svg
   xmlns:dc="http://purl.org/dc/elements/1.1/"
   xmlns:cc="http://creativecommons.org/ns#"
   xmlns:rdf="http://www.w3.org/1999/02/22-rdf-syntax-ns#"
   xmlns:svg="http://www.w3.org/2000/svg"
   xmlns="http://www.w3.org/2000/svg"
   xmlns:sodipodi="http://sodipodi.sourceforge.net/DTD/sodipodi-0.dtd"
   xmlns:inkscape="http://www.inkscape.org/namespaces/inkscape"
   id="svg3102"
   version="1.1"
   inkscape:version="0.48.3.1 r9886"
   viewBox="0 0 288.11337 50.107876"
   width="100%"
   height="100%"
   x="0px"
   y="0px"
   xml:space="preserve"
   sodipodi:docname="BlackBerry_Logo_Preferred_White_New.eps"><metadata
     id="metadata3108"><rdf:RDF><cc:Work
         rdf:about=""><dc:format>image/svg+xml</dc:format><dc:type
           rdf:resource="http://purl.org/dc/dcmitype/StillImage" /><dc:title></dc:title></cc:Work></rdf:RDF></metadata><defs
     id="defs3106" /><sodipodi:namedview
     pagecolor="#ffffff"
     bordercolor="#666666"
     borderopacity="1"
     objecttolerance="10"
     gridtolerance="10"
     guidetolerance="10"
     inkscape:pageopacity="0"
     inkscape:pageshadow="2"
     inkscape:window-width="1855"
     inkscape:window-height="1056"
     id="namedview3104"
     showgrid="false"
     inkscape:zoom="2.8841528"
     inkscape:cx="116.46883"
     inkscape:cy="13.553825"
     inkscape:window-x="65"
     inkscape:window-y="24"
     inkscape:window-maximized="1"
     inkscape:current-layer="g3110"
     fit-margin-top="0"
     fit-margin-left="0"
     fit-margin-right="0"
     fit-margin-bottom="0" /><g
     id="g3110"
     inkscape:groupmode="layer"
     inkscape:label="ink_ext_XXXXXX"
     transform="matrix(1.25,0,0,-1.25,-32.954125,83.062)"><path
       inkscape:connector-curvature="0"
       id="path3114"
       style="fill:#000000;fill-opacity:1;fill-rule:nonzero;stroke:none"
       d="m 253.687,37.7371 c 0.084,0.0117 0.191,0.0234 0.347,0.0234 0.54,0 0.733,-0.2632 0.733,-0.5269 0,-0.3723 -0.337,-0.5168 -0.733,-0.5168 l -0.347,0 0,1.0203 z m 0,-1.3926 0.335,0 c 0.384,0 0.577,-0.1433 0.648,-0.5269 0.06,-0.3965 0.132,-0.6723 0.204,-0.7688 l 0.504,0 c -0.048,0.0965 -0.12,0.2766 -0.191,0.7442 -0.061,0.4441 -0.241,0.6836 -0.504,0.7324 l 0,0.0234 c 0.323,0.0965 0.588,0.336 0.588,0.7324 0,0.2879 -0.097,0.4922 -0.277,0.6243 -0.18,0.1316 -0.479,0.2273 -0.935,0.2273 -0.361,0 -0.601,-0.0359 -0.853,-0.0715 l 0,-3.0125 0.481,0 0,1.2957 z m 0.515,2.5571 c 1.2,0 2.16,-1.0207 2.16,-2.2922 0,-1.2727 -0.96,-2.2918 -2.16,-2.2801 -1.2,0 -2.172,1.0074 -2.172,2.2918 0,1.2598 0.972,2.2805 2.16,2.2805 l 0.012,0 z m -0.012,0.4199 c -1.476,0 -2.676,-1.2004 -2.676,-2.7004 0,-1.5242 1.2,-2.7117 2.676,-2.7117 1.488,0 2.664,1.1875 2.664,2.7117 0,1.5 -1.176,2.7004 -2.652,2.7004 l -0.012,0 z M 43.1395,39.6289 c -2.5125,0 -5.2196,0 -5.2196,0 l 1.4239,6.5914 c 0,0 3.6738,0 5.0117,0 3.25,0 4.0222,-1.6031 4.0222,-2.8726 0,-1.7891 -1.1589,-3.7188 -5.2382,-3.7188 z m 14.1093,4.0164 c -2.5144,0 -5.2195,0 -5.2195,0 l 1.4238,6.5883 c 0,0 3.6739,0 5.0086,0 3.2524,0 4.0254,-1.5996 4.0254,-2.8645 0,-1.789 -1.159,-3.7238 -5.2383,-3.7238 z m 1.9446,10.3238 c -2.511,0 -5.22,0 -5.22,0 l 1.4258,6.5914 c 0,0 3.6723,0 5.009,0 3.25,0 4.0254,-1.6031 4.0254,-2.8675 0,-1.7942 -1.1609,-3.7239 -5.2402,-3.7239 z M 45.0781,49.9477 c -2.5144,0 -5.2219,0 -5.2219,0 l 1.4258,6.5918 c 0,0 3.6723,0 5.009,0 3.25,0 4.0254,-1.604 4.0254,-2.868 0,-1.7891 -1.1594,-3.7238 -5.2383,-3.7238 z m -13.4953,0 c -2.5125,0 -5.2195,0 -5.2195,0 l 1.4238,6.5918 c 0,0 3.6738,0 5.009,0 3.2527,0 4.0269,-1.604 4.0269,-2.868 0,-1.7891 -1.1609,-3.7238 -5.2402,-3.7238 z m 15.3027,9.9144 c -2.5125,0 -5.2183,0 -5.2183,0 l 1.4226,6.5875 c 0,0 3.6739,0 5.0098,0 3.252,0 4.0242,-1.5996 4.0242,-2.8637 0,-1.7937 -1.159,-3.7238 -5.2383,-3.7238 z m -13.4929,0 c -2.5149,0 -5.2215,0 -5.2215,0 l 1.4234,6.5875 c 0,0 3.6743,0 5.009,0 3.2527,0 4.0274,-1.5996 4.0274,-2.8637 0,-1.7937 -1.1614,-3.7238 -5.2383,-3.7238 z M 194.439,46.5469 c 1.934,0 7.663,0 9.588,0 0.137,1.6406 -1.144,3.6867 -4.496,3.6867 -3.244,0 -4.843,-2.6453 -5.092,-3.6867 z m 13.721,-6.1867 c -0.197,-0.575 -2.248,-6.5379 -9.861,-6.5379 -6.16,0 -9.645,4.1164 -9.645,9.9179 0,5.9969 4.819,11.0469 10.824,11.0469 6.567,0 9.823,-4.3926 9.823,-9.1953 0,-1.3887 -0.343,-2.7402 -0.43,-3.1113 -1.087,0 -13.103,0 -15.183,0 -0.09,-0.9063 0.796,-4.211 4.695,-4.211 2.707,0 3.918,1.6895 4.099,2.0907 0,0 4.323,0 5.678,0 z m -103.764,7.9304 c 0.365,0.8637 2.613,6.4723 10.415,6.4723 6.067,0 8.435,-3.05 7.554,-7.3649 -0.463,-2.2808 -1.371,-6.4136 -1.694,-7.8519 -0.611,-2.7316 -0.243,-4.4387 -0.066,-5.3273 -1.285,0 -4.736,0 -5.145,0 -0.058,0.6535 -0.128,1.4628 -0.145,2.0039 -0.173,-0.1731 -2.124,-2.4258 -5.856,-2.4258 -4.492,0 -7.021,2.9676 -7.021,6.0136 0,4.2981 3.76,6.145 9.711,7.0047 3.464,0.4957 5.464,0.818 5.464,2.0539 0,0.8758 -1.016,1.5997 -3.001,1.5997 -3.19,0 -4.471,-1.9754 -4.594,-2.1782 l -5.622,0 z m 3.215,-7.8933 c 0,-1.1356 1.038,-2.0914 2.816,-2.0914 2.785,0 5.309,1.5914 5.888,4.0711 0.095,0.4042 0.224,0.9511 0.306,1.2929 -0.437,-0.0613 -3.644,-0.5566 -4.74,-0.7187 -3.409,-0.5039 -4.27,-1.6153 -4.27,-2.5539 z m 131.727,-14.034 16.704,28.3457 -5.376,0 -7.676,-13.3399 -1.793,13.3567 c 0,0 -2.736,0 -5.752,0 -6.588,0 -10.002,-3.0129 -11.213,-8.7785 -0.607,-2.877 -2.537,-11.7403 -2.537,-11.7403 l 4.98,0 c 0,0 1.827,8.418 2.554,11.8149 0.703,3.298 3.149,4.3062 5.787,3.7441 l 1.048,4.8395 c 0.778,-4.5957 3.154,-19.2793 3.154,-19.2793 l -5.212,-8.9629 5.332,0 z M 222.402,54.709 c -5.314,0 -8.927,-3.1449 -10.146,-9.0469 -0.525,-2.5371 -2.451,-11.4551 -2.451,-11.4551 l 4.976,0 c 0,0 1.834,8.4805 2.414,11.1446 0.76,3.4929 2.608,4.6793 5.09,4.6793 0.803,0 1.315,-0.0911 1.575,-0.1286 0.137,0.7032 0.831,3.8559 0.997,4.6289 -0.538,0.07 -1.388,0.1778 -2.455,0.1778 z m -44.195,-4.3313 -5.291,0 1.149,5.3231 5.076,0 c 2.396,0 3.368,-1.1031 3.368,-2.3848 0,-1.5621 -1.454,-2.9383 -4.302,-2.9383 z m -2.514,-11.2527 -5.211,0 1.377,6.377 4.604,0 c 3.541,0 4.34,-1.5711 4.34,-2.8106 0,-2.0469 -1.74,-3.5664 -5.11,-3.5664 z m -2.652,-4.9102 c 0.611,0 2.859,0 2.859,0 6.274,0 10.325,3.6778 10.325,8.0664 0,4.034 -3.159,5.2817 -3.704,5.4637 0.596,0.1863 5.448,1.5457 5.448,6.6828 0,2.3227 -1.696,6.1493 -8.58,6.1493 -3.406,0 -9.493,0 -9.493,0 0,0 -3.533,-16.3192 -3.951,-18.2086 -1.004,-4.5375 1.826,-8.1536 7.096,-8.1536 z m -90.6531,16.1629 -5.2902,0 1.1511,5.3231 5.0774,0 c 2.3906,0 3.3664,-1.1031 3.3664,-2.3848 0,-1.5621 -1.4555,-2.9383 -4.3047,-2.9383 z M 79.875,39.125 l -5.209,0 1.3778,6.377 4.6007,0 c 3.543,0 4.341,-1.5711 4.341,-2.8106 0,-2.0469 -1.7394,-3.5664 -5.1105,-3.5664 z m -2.6523,-4.9102 c 0.6113,0 2.8613,0 2.8613,0 6.2734,0 10.3191,3.6778 10.3191,8.0664 0,4.034 -3.1492,5.2817 -3.7019,5.4637 0.5949,0.1863 5.4465,1.5457 5.4465,6.6828 0,2.3227 -1.6946,6.1493 -8.5793,6.1493 -3.4012,0 -9.4891,0 -9.4891,0 0,0 -3.5332,-16.3192 -3.9504,-18.2086 -1.0027,-4.5375 1.8262,-8.1536 7.0938,-8.1536 z m 91.0073,20.5063 -6.947,0 -8.922,-8.034 3.008,13.8984 -5.016,0 -5.696,-26.3667 5.013,0 1.385,6.4062 3.084,2.4551 4.263,-8.8613 5.58,0 -6.05,11.8691 10.298,8.6332 z M 97.5039,39.9102 c 0,0.3093 0.082,0.8964 0.3555,2.1281 0.2636,1.2351 4.0126,18.5055 4.0126,18.5055 l -4.9802,0 -4.132,-19.0516 c -0.1739,-0.8008 -0.2493,-1.5906 -0.2493,-2.2891 0,-4.1777 3.2329,-5.4062 5.8196,-5.4062 0.9258,0 1.7849,0.1543 1.9999,0.1816 0.082,0.418 0.863,4.0051 0.901,4.1621 -0.112,-0.0078 -0.661,-0.0488 -1.2974,-0.0488 -1.8516,0 -2.4297,0.7852 -2.4297,1.8184 z m 46.3181,1.4785 c -0.256,-1.4914 -2.346,-7.5664 -10.092,-7.5664 -6.214,0 -9.567,4.1367 -9.567,9.5019 0,6.557 4.914,11.4629 11.056,11.4629 8.397,0 9.971,-6.0664 9.653,-8.0504 l -5.306,0 c -0.083,0.4875 -0.942,3.1742 -4.55,3.1742 -3.352,0 -5.629,-3.0379 -5.629,-6.4187 0,-2.0449 1.294,-4.7969 4.612,-4.7969 2.864,0 4.009,2.2063 4.228,2.6934 l 5.595,0" /></g></svg>
