<?xml version="1.0" encoding="UTF-8" standalone="no"?>
<!-- Created with Inkscape (http://www.inkscape.org/) -->

<svg
   xmlns:dc="http://purl.org/dc/elements/1.1/"
   xmlns:cc="http://creativecommons.org/ns#"
   xmlns:rdf="http://www.w3.org/1999/02/22-rdf-syntax-ns#"
   xmlns:svg="http://www.w3.org/2000/svg"
   xmlns="http://www.w3.org/2000/svg"
   xmlns:sodipodi="http://sodipodi.sourceforge.net/DTD/sodipodi-0.dtd"
   xmlns:inkscape="http://www.inkscape.org/namespaces/inkscape"
   id="svg4680"
   version="1.1"
   inkscape:version="0.48.3.1 r9886"
   viewBox="0 0 118.40688 134.65521"
   width="100%"
   height="100%"
   x="0px"
   y="0px"
   xml:space="preserve"
   sodipodi:docname="Skalar_logo_original.eps"><metadata
     id="metadata4686"><rdf:RDF><cc:Work
         rdf:about=""><dc:format>image/svg+xml</dc:format><dc:type
           rdf:resource="http://purl.org/dc/dcmitype/StillImage" /><dc:title></dc:title></cc:Work></rdf:RDF></metadata><defs
     id="defs4684"><clipPath
       clipPathUnits="userSpaceOnUse"
       id="clipPath4696"><path
         d="m 0,0 1417,0 0,2041.66 -1417,0 L 0,0 z"
         id="path4698"
         inkscape:connector-curvature="0" /></clipPath></defs><sodipodi:namedview
     pagecolor="#ffffff"
     bordercolor="#666666"
     borderopacity="1"
     objecttolerance="10"
     gridtolerance="10"
     guidetolerance="10"
     inkscape:pageopacity="0"
     inkscape:pageshadow="2"
     inkscape:window-width="1855"
     inkscape:window-height="1056"
     id="namedview4682"
     showgrid="false"
     fit-margin-top="0"
     fit-margin-left="0"
     fit-margin-right="0"
     fit-margin-bottom="0"
     inkscape:zoom="3.6988785"
     inkscape:cx="-4.5354358"
     inkscape:cy="72.261379"
     inkscape:window-x="65"
     inkscape:window-y="24"
     inkscape:window-maximized="1"
     inkscape:current-layer="g4688" /><g
     id="g4688"
     inkscape:groupmode="layer"
     inkscape:label="ink_ext_XXXXXX"
     transform="matrix(1.25,0,0,-1.25,-29.379375,182.69875)"><g
       id="g5358"><path
         d="m 78.4238,78.3332 -6.9445,5.0367 2.4922,1.3992 4.4523,-6.4359 m -23.0652,16.7289 -11.3453,8.2289 11.3734,8.25 5.7711,-8.25 -5.7992,-8.2289 m 51.2534,8.5389 0,0 -28.1882,24.65 -4.3297,-6.259 -0.0543,0.031 -0.0543,-0.079 -2.3917,1.353 6.83,4.954 28.1882,-24.65"
         style="fill:#3f3a3a;fill-opacity:1;fill-rule:nonzero;stroke:none"
         id="path4702"
         inkscape:connector-curvature="0" /><path
         d="m 78.4238,78.3332 0,0 -4.4523,6.4359 32.9945,18.5219 -28.5422,-24.9578 m 28.5422,24.9578 -0.097,0.055 0.021,0.012 0.076,-0.067 m -0.354,0.31 -32.5179,18.391 4.3297,6.259 28.1882,-24.65"
         style="fill:#898382;fill-opacity:1;fill-rule:nonzero;stroke:none"
         id="path4704"
         inkscape:connector-curvature="0" /><path
         d="M 31.1715,60.7422 55.3586,95.0621 71.4793,83.3699 31.1715,60.7422 M 55.3867,111.541 31.1715,146.159 71.5938,123.297 55.3867,111.541"
         style="fill:#595352;fill-opacity:1;fill-rule:nonzero;stroke:none"
         id="path4706"
         inkscape:connector-curvature="0" /><path
         d="m 71.4793,83.3699 -16.1207,11.6922 5.7992,8.2289 -5.7711,8.25 16.2071,11.756 2.3917,-1.353 -12.8273,-18.544 0.0375,-0.054 -0.0379,-0.055 12.8137,-18.5219 -2.4922,-1.3992"
         style="fill:#787170;fill-opacity:1;fill-rule:nonzero;stroke:none"
         id="path4708"
         inkscape:connector-curvature="0" /><path
         d="m 73.9715,84.7691 -12.8137,18.5219 0.0379,0.055 12.7762,-18.4679 32.8971,18.4679 0.097,-0.055 -32.9945,-18.5219"
         style="fill:#b1acab;fill-opacity:1;fill-rule:nonzero;stroke:none"
         id="path4710"
         inkscape:connector-curvature="0" /><path
         d="m 106.89,103.358 -0.278,0.243 0.354,-0.201 -0.076,-0.042"
         style="fill:#2a2727;fill-opacity:1;fill-rule:nonzero;stroke:none"
         id="path4712"
         inkscape:connector-curvature="0" /><path
         d="m 74.0398,121.913 -0.0543,0.031 0.0543,0.079 0.0543,-0.031 -0.0543,-0.079"
         style="fill:#4c4646;fill-opacity:1;fill-rule:nonzero;stroke:none"
         id="path4714"
         inkscape:connector-curvature="0" /><path
         d="m 106.869,103.346 -32.8292,18.567 0.0543,0.079 32.5179,-18.391 0.278,-0.243 -0.021,-0.012"
         style="fill:#938c8b;fill-opacity:1;fill-rule:nonzero;stroke:none"
         id="path4716"
         inkscape:connector-curvature="0" /><path
         d="m 61.1957,103.346 -0.0375,0.054 12.8273,18.544 0.0543,-0.031 -12.8441,-18.567"
         style="fill:#827c7b;fill-opacity:1;fill-rule:nonzero;stroke:none"
         id="path4718"
         inkscape:connector-curvature="0" /><path
         d="M 73.9719,84.8781 61.1957,103.346 74.0398,121.913 106.869,103.346 73.9719,84.8781"
         style="fill:#b7b3b2;fill-opacity:1;fill-rule:nonzero;stroke:none"
         id="path4720"
         inkscape:connector-curvature="0" /></g><g
       id="g5350"><path
         d="m 28.1086,38.434824 c -2.1379,0 -4.0426,0.3141 -4.5566,0.4309 l 0.4988,2.682 c 0.3945,-0.1 2.9801,-0.4117 4.0902,-0.4117 1.5399,0 1.8039,0.1629 1.8039,1.0098 0,0.8089 -0.2312,0.8769 -2.1363,1.2242 -3.5274,0.6289 -4.3051,1.1418 -4.3051,3.9738 0,2.7809 1.7735,3.6109 4.686,3.6109 1.4082,0 3.8929,-0.25 4.5046,-0.45 l -0.4968,-2.6949 c -1.011,0.1469 -2.5485,0.3801 -4.0235,0.3801 -1.1781,0 -1.4078,-0.25 -1.4078,-0.9152 0,-0.8258 0.2297,-0.8731 1.9203,-1.1719 3.777,-0.6789 4.5699,-1.0789 4.5699,-3.993 0,-2.7461 -1.5062,-3.675 -5.1476,-3.675"
         style="fill:#2a2a2a;fill-opacity:1;fill-rule:nonzero;stroke:none"
         id="path4722"
         inkscape:connector-curvature="0" /><path
         d="m 50.6801,38.600824 -3.7934,0 -3.3285,4.7692 -0.5973,-0.6621 0,-4.1071 -3.2773,0 0,12.1879 3.2773,0 0,-4.191 3.8094,4.191 3.5442,0 -4.6051,-5.05 4.9707,-7.1379"
         style="fill:#2a2a2a;fill-opacity:1;fill-rule:nonzero;stroke:none"
         id="path4724"
         inkscape:connector-curvature="0" /><path
         d="m 68.3492,38.600824 -3.4437,0 -0.6145,1.6891 -4.5875,0 -0.6101,-1.6891 -3.2825,0 4.7715,12.2711 2.9953,0 4.7715,-12.2711 m -6.3426,8.125 -1.3738,-3.8879 2.7309,0 -1.3571,3.8879"
         style="fill:#2a2a2a;fill-opacity:1;fill-rule:nonzero;stroke:none"
         id="path4726"
         inkscape:connector-curvature="0" /><path
         d="m 83.1688,38.600824 -8.7235,0 0,12.1879 3.2434,0 0,-9.4738 5.4801,0 0,-2.7141"
         style="fill:#2a2a2a;fill-opacity:1;fill-rule:nonzero;stroke:none"
         id="path4728"
         inkscape:connector-curvature="0" /><path
         d="m 101.138,38.600824 -3.4446,0 -0.6114,1.6891 -4.5898,0 -0.6121,-1.6891 -3.2785,0 4.7714,12.2711 2.995,0 4.77,-12.2711 m -6.3431,8.1739 -1.375,-3.9368 2.7332,0 -1.3582,3.9368"
         style="fill:#2a2a2a;fill-opacity:1;fill-rule:nonzero;stroke:none"
         id="path4730"
         inkscape:connector-curvature="0" /><path
         d="m 118.229,38.600824 -3.693,0 -2.319,3.3282 c -0.398,0 -1.307,0 -1.772,0 l 0,-3.3282 -3.213,0 0,12.1879 5.265,0 c 3.149,0 4.753,-0.532 4.753,-4.4051 0,-2.4019 -0.627,-3.3449 -1.853,-3.7109 l 2.832,-4.0719 m -7.784,9.5891 0,-3.693 c 0.696,0 1.656,0 2.052,0 1.062,0 1.508,0.3457 1.508,1.8528 0,1.557 -0.545,1.8402 -1.523,1.8402 -0.546,0 -2.037,0 -2.037,0"
         style="fill:#2a2a2a;fill-opacity:1;fill-rule:nonzero;stroke:none"
         id="path4732"
         inkscape:connector-curvature="0" /></g></g></svg>
