<?xml version="1.0" encoding="UTF-8" standalone="no"?>
<!-- Created with Inkscape (http://www.inkscape.org/) -->

<svg
   xmlns:dc="http://purl.org/dc/elements/1.1/"
   xmlns:cc="http://creativecommons.org/ns#"
   xmlns:rdf="http://www.w3.org/1999/02/22-rdf-syntax-ns#"
   xmlns:svg="http://www.w3.org/2000/svg"
   xmlns="http://www.w3.org/2000/svg"
   xmlns:sodipodi="http://sodipodi.sourceforge.net/DTD/sodipodi-0.dtd"
   xmlns:inkscape="http://www.inkscape.org/namespaces/inkscape"
   id="svg3022"
   version="1.1"
   inkscape:version="0.48.3.1 r9886"
   viewBox="0 0 740.91199 131.64125"
   width="100%"
   height="100%"
   x="0px"
   y="0px"
   xml:space="preserve"
   sodipodi:docname="WEBSTEP_logo.pdf"><metadata
     id="metadata3028"><rdf:RDF><cc:Work
         rdf:about=""><dc:format>image/svg+xml</dc:format><dc:type
           rdf:resource="http://purl.org/dc/dcmitype/StillImage" /><dc:title></dc:title></cc:Work></rdf:RDF></metadata><defs
     id="defs3026"><clipPath
       clipPathUnits="userSpaceOnUse"
       id="clipPath3036"><path
         d="m 0,595.28 841.89,0 L 841.89,0 0,0 0,595.28 z"
         id="path3038"
         inkscape:connector-curvature="0" /></clipPath></defs><sodipodi:namedview
     pagecolor="#ffffff"
     bordercolor="#666666"
     borderopacity="1"
     objecttolerance="10"
     gridtolerance="10"
     guidetolerance="10"
     inkscape:pageopacity="0"
     inkscape:pageshadow="2"
     inkscape:window-width="1855"
     inkscape:window-height="1056"
     id="namedview3024"
     showgrid="false"
     fit-margin-top="0"
     fit-margin-left="0"
     fit-margin-right="0"
     fit-margin-bottom="0"
     inkscape:zoom="1.22161"
     inkscape:cx="370.45652"
     inkscape:cy="65.820637"
     inkscape:window-x="65"
     inkscape:window-y="24"
     inkscape:window-maximized="1"
     inkscape:current-layer="g3030" /><g
     id="g3030"
     inkscape:groupmode="layer"
     inkscape:label="WEBSTEP_logo"
     transform="matrix(1.25,0,0,-1.25,-155.72475,437.87063)"><g
       id="g3032"><g
         id="g3034"
         clip-path="url(#clipPath3036)"><g
           id="g3040"
           transform="translate(299.4248,245.0889)"><path
             d="m 0,0 c -14.443,0 -24.492,7.223 -24.492,22.297 l 0,59.19 c 0,14.288 8.635,23.239 23.081,23.239 l 44.902,0 0,-15.231 -39.562,0 c -8.168,0 -13.193,-3.139 -13.193,-11.776 l 0,-17.899 44.666,0 0,-15.073 -44.666,0 0,-17.585 c 0,-8.793 5.025,-11.932 13.348,-11.932 l 39.407,0 L 43.491,0 0,0 z"
             style="fill:#231f20;fill-opacity:1;fill-rule:nonzero;stroke:none"
             id="path3042"
             inkscape:connector-curvature="0" /></g><g
           id="g3044"
           transform="translate(463.6006,334.5835)"><path
             d="m 0,0 c -10.303,0 -13.253,-3.616 -13.349,-10.013 -0.035,-2.346 10e-4,-5.118 10e-4,-8.198 0,-3.298 0.941,-6.282 3.609,-8.48 2.987,-2.353 6.126,-2.353 9.739,-2.353 l 13.171,0 c 13.501,0 26.108,-7.538 26.108,-21.512 l 0,-16.642 c 0,-14.761 -9.763,-22.297 -24.051,-22.297 l -42.162,0 0,15.231 37.609,0 c 14.602,0 13.187,7.691 13.187,19.309 0,8.48 -5.024,10.679 -12.716,10.679 l -16.171,0 c -12.719,0 -23.553,8.378 -23.553,22.04 l 0,15.329 c 0,6.752 2.584,13.046 7.749,17.464 3.871,3.31 9.521,4.674 15.486,4.674 l 39.698,0 L 34.355,0 0,0 z"
             style="fill:#231f20;fill-opacity:1;fill-rule:nonzero;stroke:none"
             id="path3046"
             inkscape:connector-curvature="0" /></g><g
           id="g3048"
           transform="translate(543.6211,334.5835)"><path
             d="m 0,0 0,-89.495 -15.23,0 0,89.495 -23.209,0 0,15.231 61.582,0 L 23.143,0 0,0 z"
             style="fill:#231f20;fill-opacity:1;fill-rule:nonzero;stroke:none"
             id="path3050"
             inkscape:connector-curvature="0" /></g><g
           id="g3052"
           transform="translate(413.873,278.1943)"><path
             d="m 0,0 c 0,7.691 -4.237,11.459 -11.773,11.641 l -32.814,0 0,-29.53 32.814,0 C -4.393,-18.057 0,-14.76 0,-7.064 L 0,0 z m -44.658,56.389 0,-29.675 24.747,-10e-4 c 7.222,0 12.088,2.947 12.088,10.639 l 0,7.694 c 0,8.008 -5.183,11.343 -12.562,11.343 l -24.273,0 z m 226.375,-89.494 c -14.446,0 -24.495,7.222 -24.495,22.296 l 0,59.19 c 0,14.288 8.637,23.239 23.084,23.239 l 44.902,0 0,-15.231 -39.562,0 c -8.169,0 -13.192,-3.139 -13.192,-11.776 l 0,-17.899 44.665,0 0,-15.072 -44.665,0 0,-17.585 c 0,-8.793 5.023,-11.932 13.345,-11.932 l 39.409,0 0,-15.23 -43.491,0 z M 3.887,23.451 C 11.485,19.84 15.231,13.068 15.231,2.668 l 0,-11.75 c 0,-14.604 -7.378,-24.023 -22.452,-24.023 l -52.597,0 0,104.725 37.601,0 7.358,-0.196 c 14.979,0 22.293,-9.628 22.293,-23.708 l 0,-9.637 C 7.434,31.573 6.841,27.24 4.039,23.587 L 3.887,23.451 z"
             style="fill:#231f20;fill-opacity:1;fill-rule:nonzero;stroke:none"
             id="path3054"
             inkscape:connector-curvature="0" /></g><g
           id="g3056"
           transform="translate(650.1914,334.5811)"><path
             d="m 0,0 0,15.233 43.725,0 c 12.716,0 23.083,-7.065 23.237,-20.568 0.156,-7.536 0.156,-9.86 0.156,-17.395 0,-13.975 -8.635,-22.456 -22.61,-22.456 l -29.278,0 0,-44.306 -15.23,0 0,59.855 39.327,-0.004 c 8.322,0 12.563,0.783 12.563,9.417 l 0,9.706 c 0,7.224 -5.655,10.52 -12.247,10.52 L 0,0 z"
             style="fill:#231f20;fill-opacity:1;fill-rule:nonzero;stroke:none"
             id="path3058"
             inkscape:connector-curvature="0" /></g><g
           id="g3060"
           transform="translate(254.7168,349.8145)"><path
             d="m 0,0 -18.016,-78.171 -0.762,-6.478 -0.737,6.668 -14.486,67.074 c -1.253,6.594 -4.779,11.389 -12.16,11.389 l -0.05,0 c -7.382,0 -10.907,-4.795 -12.16,-11.389 l -14.502,-67.143 -0.776,-6.599 -0.724,6.546 -13.473,58.435 c -2.761,13.085 -11.613,19.672 -24.953,19.672 l -17.338,0.041 0,-14.842 16.916,0.007 c 5.162,0 9.478,-3.597 10.584,-8.419 l 16.209,-70.474 c 1.411,-5.964 5.759,-11.148 12.356,-11.148 6.593,0 11.69,4.094 12.943,10.217 l 14.402,66.831 0.56,4.75 0.524,-4.764 14.4,-66.817 c 1.253,-6.123 6.349,-10.217 12.943,-10.217 6.597,0 10.945,5.184 12.356,11.148 L 15.61,0 0,0 z"
             style="fill:#231f20;fill-opacity:1;fill-rule:nonzero;stroke:none"
             id="path3062"
             inkscape:connector-curvature="0" /></g></g></g></g></svg>
